<ttFont>
    <TTGlyph name="A" xMin="-11" yMin="-11" xMax="1548" yMax="1487">
      <contour>
        <pt x="744" y="1479" on="1"/>
        <pt x="869" y="1479" on="0"/>
        <pt x="914" y="1487" on="1"/>
        <pt x="914" y="1483" on="1"/>
        <pt x="920" y="1441" on="0"/>
        <pt x="981" y="1239" on="0"/>
        <pt x="991" y="1216" on="1"/>
        <pt x="1361" y="252" on="1"/>
        <pt x="1373" y="222" on="0"/>
        <pt x="1409" y="189" on="0"/>
        <pt x="1448" y="189" on="1"/>
        <pt x="1483" y="189" on="0"/>
        <pt x="1541" y="165" on="0"/>
        <pt x="1548" y="141" on="1"/>
        <pt x="1544" y="77" on="0"/>
        <pt x="1544" y="38" on="1"/>
        <pt x="1544" y="0" on="0"/>
        <pt x="1527" y="-11" on="1"/>
        <pt x="1377" y="0" on="0"/>
        <pt x="1275" y="0" on="1"/>
        <pt x="1071" y="0" on="0"/>
        <pt x="996" y="-11" on="1"/>
        <pt x="979" y="47" on="0"/>
        <pt x="979" y="149" on="1"/>
        <pt x="979" y="173" on="0"/>
        <pt x="1050" y="187" on="0"/>
        <pt x="1121" y="197" on="0"/>
        <pt x="1121" y="217" on="1"/>
        <pt x="1121" y="231" on="0"/>
        <pt x="1112" y="254" on="1"/>
        <pt x="1017" y="523" on="1"/>
        <pt x="492" y="523" on="1"/>
        <pt x="401" y="254" on="1"/>
        <pt x="392" y="227" on="0"/>
        <pt x="392" y="217" on="1"/>
        <pt x="392" y="197" on="0"/>
        <pt x="464" y="187" on="0"/>
        <pt x="536" y="173" on="0"/>
        <pt x="536" y="149" on="1"/>
        <pt x="524" y="21" on="0"/>
        <pt x="509" y="-11" on="1"/>
        <pt x="351" y="0" on="0"/>
        <pt x="246" y="0" on="1"/>
        <pt x="185" y="0" on="0"/>
        <pt x="6" y="-11" on="1"/>
        <pt x="-11" y="0" on="0"/>
        <pt x="-11" y="38" on="1"/>
        <pt x="-11" y="77" on="0"/>
        <pt x="-5" y="141" on="1"/>
        <pt x="2" y="165" on="0"/>
        <pt x="58" y="189" on="0"/>
        <pt x="93" y="189" on="1"/>
        <pt x="132" y="189" on="0"/>
        <pt x="168" y="222" on="0"/>
        <pt x="180" y="252" on="1"/>
        <pt x="550" y="1236" on="1"/>
        <pt x="558" y="1258" on="0"/>
        <pt x="558" y="1269" on="1"/>
        <pt x="558" y="1289" on="0"/>
        <pt x="516" y="1302" on="0"/>
        <pt x="467" y="1298" on="0"/>
        <pt x="425" y="1315" on="0"/>
        <pt x="425" y="1337" on="1"/>
        <pt x="425" y="1339" on="0"/>
        <pt x="427" y="1347" on="1"/>
        <pt x="441" y="1459" on="0"/>
        <pt x="462" y="1487" on="1"/>
        <pt x="585" y="1479" on="0"/>
      </contour>
      <contour>
        <pt x="757" y="1256" on="1"/>
        <pt x="652" y="1000" on="0"/>
        <pt x="544" y="675" on="1"/>
        <pt x="964" y="675" on="1"/>
        <pt x="916" y="820" on="0"/>
        <pt x="812" y="1110" on="0"/>
        <pt x="784" y="1183" on="1"/>
      </contour>
    </TTGlyph>
    <TTGlyph name="AE" xMin="-5" yMin="-11" xMax="2215" yMax="1503">
      <contour>
        <pt x="1170" y="238" on="1"/>
        <pt x="1149" y="523" on="1"/>
        <pt x="624" y="523" on="1"/>
        <pt x="459" y="254" on="1"/>
        <pt x="437" y="217" on="0"/>
        <pt x="438" y="211" on="1"/>
        <pt x="438" y="195" on="0"/>
        <pt x="502" y="186" on="0"/>
        <pt x="565" y="175" on="0"/>
        <pt x="565" y="157" on="1"/>
        <pt x="565" y="152" on="0"/>
        <pt x="564" y="149" on="1"/>
        <pt x="517" y="20" on="0"/>
        <pt x="493" y="-11" on="1"/>
        <pt x="346" y="0" on="0"/>
        <pt x="243" y="0" on="1"/>
        <pt x="184" y="0" on="0"/>
        <pt x="3" y="-11" on="1"/>
        <pt x="-5" y="-3" on="0"/>
        <pt x="-5" y="11" on="1"/>
        <pt x="-5" y="24" on="0"/>
        <pt x="4" y="65" on="0"/>
        <pt x="23" y="135" on="0"/>
        <pt x="24" y="141" on="1"/>
        <pt x="51" y="189" on="0"/>
        <pt x="135" y="189" on="1"/>
        <pt x="172" y="189" on="0"/>
        <pt x="217" y="222" on="0"/>
        <pt x="237" y="252" on="1"/>
        <pt x="880" y="1247" on="1"/>
        <pt x="897" y="1279" on="0"/>
        <pt x="897" y="1289" on="1"/>
        <pt x="897" y="1306" on="0"/>
        <pt x="839" y="1311" on="0"/>
        <pt x="781" y="1318" on="0"/>
        <pt x="781" y="1337" on="1"/>
        <pt x="781" y="1346" on="0"/>
        <pt x="787" y="1358" on="1"/>
        <pt x="832" y="1475" on="0"/>
        <pt x="862" y="1503" on="1"/>
        <pt x="1097" y="1490" on="0"/>
        <pt x="1396" y="1490" on="1"/>
        <pt x="1505" y="1490" on="0"/>
        <pt x="1740" y="1495" on="0"/>
        <pt x="1946" y="1502" on="0"/>
        <pt x="1971" y="1503" on="1"/>
        <pt x="1988" y="1487" on="0"/>
        <pt x="2123" y="1104" on="0"/>
        <pt x="2123" y="1072" on="1"/>
        <pt x="2123" y="1064" on="0"/>
        <pt x="2110" y="1040" on="0"/>
        <pt x="2082" y="1012" on="0"/>
        <pt x="2026" y="992" on="0"/>
        <pt x="1989" y="992" on="1"/>
        <pt x="1974" y="992" on="0"/>
        <pt x="1922" y="1120" on="0"/>
        <pt x="1867" y="1290" on="0"/>
        <pt x="1857" y="1311" on="1"/>
        <pt x="1784" y="1311" on="0"/>
        <pt x="1443" y="1310" on="0"/>
        <pt x="1342" y="1310" on="1"/>
        <pt x="1313" y="1310" on="0"/>
        <pt x="1313" y="1269" on="1"/>
        <pt x="1313" y="1254" on="0"/>
        <pt x="1314" y="1246" on="1"/>
        <pt x="1353" y="869" on="1"/>
        <pt x="1407" y="889" on="0"/>
        <pt x="1577" y="921" on="0"/>
        <pt x="1648" y="921" on="1"/>
        <pt x="1709" y="921" on="0"/>
        <pt x="1793" y="852" on="0"/>
        <pt x="1793" y="779" on="1"/>
        <pt x="1793" y="729" on="0"/>
        <pt x="1725" y="662" on="0"/>
        <pt x="1677" y="662" on="1"/>
        <pt x="1595" y="753" on="0"/>
        <pt x="1462" y="753" on="1"/>
        <pt x="1420" y="753" on="0"/>
        <pt x="1368" y="746" on="1"/>
        <pt x="1416" y="244" on="1"/>
        <pt x="1417" y="229" on="0"/>
        <pt x="1421" y="212" on="0"/>
        <pt x="1429" y="190" on="0"/>
        <pt x="1444" y="179" on="0"/>
        <pt x="1456" y="179" on="1"/>
        <pt x="1557" y="179" on="0"/>
        <pt x="1899" y="178" on="0"/>
        <pt x="1972" y="178" on="1"/>
        <pt x="1980" y="202" on="0"/>
        <pt x="2011" y="393" on="0"/>
        <pt x="2046" y="537" on="0"/>
        <pt x="2065" y="537" on="1"/>
        <pt x="2114" y="537" on="0"/>
        <pt x="2187" y="502" on="0"/>
        <pt x="2214" y="467" on="0"/>
        <pt x="2215" y="456" on="1"/>
        <pt x="2215" y="447" on="1"/>
        <pt x="2215" y="385" on="0"/>
        <pt x="2152" y="4" on="0"/>
        <pt x="2135" y="-11" on="1"/>
        <pt x="1963" y="0" on="0"/>
        <pt x="1625" y="0" on="1"/>
        <pt x="1199" y="0" on="0"/>
        <pt x="980" y="-11" on="1"/>
        <pt x="980" y="48" on="0"/>
        <pt x="1008" y="149" on="1"/>
        <pt x="1014" y="170" on="0"/>
        <pt x="1068" y="187" on="0"/>
        <pt x="1124" y="187" on="0"/>
        <pt x="1170" y="207" on="0"/>
        <pt x="1170" y="232" on="1"/>
      </contour>
      <contour>
        <pt x="1092" y="1267" on="1"/>
        <pt x="916" y="1006" on="0"/>
        <pt x="718" y="675" on="1"/>
        <pt x="1138" y="675" on="1"/>
        <pt x="1130" y="823" on="0"/>
        <pt x="1107" y="1119" on="0"/>
        <pt x="1100" y="1193" on="1"/>
      </contour>
    </TTGlyph>
    <TTGlyph name="Aacute" xMin="-11" yMin="-11" xMax="1548" yMax="2090">
      <component glyphName="acute" x="610" y="465" flags="0x1004"/>
      <component glyphName="A" x="0" y="0" flags="0x1204"/>
    </TTGlyph>
    <TTGlyph name="Abreve" xMin="-11" yMin="-11" xMax="1548" yMax="1895">
      <component glyphName="breve" x="200" y="380" flags="0x1004"/>
      <component glyphName="A" x="0" y="0" flags="0x1204"/>
    </TTGlyph>
    <TTGlyph name="Acircumflex" xMin="-11" yMin="-11" xMax="1548" yMax="2090">
      <component glyphName="circumflex" x="275" y="465" flags="0x1004"/>
      <component glyphName="A" x="0" y="0" flags="0x1204"/>
    </TTGlyph>
    <TTGlyph name="Adieresis" xMin="-11" yMin="-11" xMax="1548" yMax="1886">
      <component glyphName="dieresis" x="235" y="378" flags="0x1004"/>
      <component glyphName="A" x="0" y="0" flags="0x1204"/>
    </TTGlyph>
    <TTGlyph name="Agrave" xMin="-11" yMin="-11" xMax="1548" yMax="2090">
      <component glyphName="grave" x="150" y="465" flags="0x1004"/>
      <component glyphName="A" x="0" y="0" flags="0x1204"/>
    </TTGlyph>
    <TTGlyph name="Amacron" xMin="-11" yMin="-11" xMax="1548" yMax="1763">
      <component glyphName="macron" x="324" y="371" flags="0x1004"/>
      <component glyphName="A" x="0" y="0" flags="0x1204"/>
    </TTGlyph>
    <TTGlyph name="Aogonek" xMin="-11" yMin="-452" xMax="1557" yMax="1487">
      <component glyphName="ogonek" x="1043" y="-3" flags="0x1004"/>
      <component glyphName="A" x="0" y="0" flags="0x1004"/>
    </TTGlyph>
    <TTGlyph name="Aring" xMin="-11" yMin="-11" xMax="1548" yMax="1986">
      <component glyphName="ring" x="434" y="350" flags="0x1004"/>
      <component glyphName="A" x="0" y="0" flags="0x1204"/>
    </TTGlyph>
    <TTGlyph name="Atilde" xMin="-11" yMin="-11" xMax="1548" yMax="1873">
      <component glyphName="tilde" x="220" y="389" flags="0x1004"/>
      <component glyphName="A" x="0" y="0" flags="0x1204"/>
    </TTGlyph>
    <TTGlyph name="B" xMin="69" yMin="-11" xMax="1435" yMax="1506">
      <contour>
        <pt x="122" y="-11" on="1"/>
        <pt x="95" y="5" on="0"/>
        <pt x="69" y="101" on="0"/>
        <pt x="69" y="152" on="1"/>
        <pt x="69" y="176" on="0"/>
        <pt x="135" y="200" on="0"/>
        <pt x="181" y="200" on="1"/>
        <pt x="220" y="200" on="0"/>
        <pt x="244" y="233" on="0"/>
        <pt x="244" y="263" on="1"/>
        <pt x="244" y="1229" on="1"/>
        <pt x="244" y="1259" on="0"/>
        <pt x="220" y="1292" on="0"/>
        <pt x="181" y="1292" on="1"/>
        <pt x="69" y="1292" on="0"/>
        <pt x="69" y="1344" on="1"/>
        <pt x="69" y="1393" on="0"/>
        <pt x="95" y="1488" on="0"/>
        <pt x="122" y="1503" on="1"/>
        <pt x="254" y="1490" on="0"/>
        <pt x="490" y="1490" on="1"/>
        <pt x="577" y="1490" on="0"/>
        <pt x="839" y="1506" on="0"/>
        <pt x="881" y="1506" on="1"/>
        <pt x="989" y="1506" on="0"/>
        <pt x="1165" y="1435" on="0"/>
        <pt x="1273" y="1317" on="0"/>
        <pt x="1331" y="1170" on="0"/>
        <pt x="1331" y="1091" on="1"/>
        <pt x="1331" y="1010" on="0"/>
        <pt x="1230" y="854" on="0"/>
        <pt x="1139" y="818" on="1"/>
        <pt x="1239" y="787" on="0"/>
        <pt x="1377" y="658" on="0"/>
        <pt x="1435" y="511" on="0"/>
        <pt x="1435" y="431" on="1"/>
        <pt x="1435" y="347" on="0"/>
        <pt x="1364" y="191" on="0"/>
        <pt x="1232" y="65" on="0"/>
        <pt x="1021" y="-11" on="0"/>
        <pt x="892" y="-11" on="1"/>
        <pt x="868" y="-11" on="0"/>
        <pt x="550" y="0" on="0"/>
        <pt x="434" y="0" on="1"/>
        <pt x="313" y="0" on="0"/>
      </contour>
      <contour>
        <pt x="861" y="714" on="1"/>
        <pt x="475" y="714" on="1"/>
        <pt x="475" y="215" on="1"/>
        <pt x="475" y="176" on="0"/>
        <pt x="489" y="176" on="1"/>
        <pt x="911" y="176" on="1"/>
        <pt x="1052" y="176" on="0"/>
        <pt x="1214" y="332" on="0"/>
        <pt x="1214" y="438" on="1"/>
        <pt x="1214" y="550" on="0"/>
        <pt x="1030" y="714" on="0"/>
      </contour>
      <contour>
        <pt x="475" y="873" on="1"/>
        <pt x="861" y="873" on="1"/>
        <pt x="976" y="873" on="0"/>
        <pt x="1110" y="999" on="0"/>
        <pt x="1110" y="1084" on="1"/>
        <pt x="1110" y="1180" on="0"/>
        <pt x="994" y="1322" on="0"/>
        <pt x="891" y="1322" on="1"/>
        <pt x="475" y="1322" on="1"/>
      </contour>
    </TTGlyph>
    <TTGlyph name="C" xMin="29" yMin="-27" xMax="1304" yMax="1512">
      <contour>
        <pt x="1243" y="994" on="1"/>
        <pt x="1160" y="994" on="1"/>
        <pt x="1151" y="994" on="0"/>
        <pt x="1123" y="1031" on="0"/>
        <pt x="1086" y="1089" on="0"/>
        <pt x="1038" y="1160" on="0"/>
        <pt x="973" y="1230" on="0"/>
        <pt x="900" y="1288" on="0"/>
        <pt x="801" y="1325" on="0"/>
        <pt x="748" y="1325" on="1"/>
        <pt x="655" y="1325" on="0"/>
        <pt x="497" y="1258" on="0"/>
        <pt x="387" y="1145" on="0"/>
        <pt x="308" y="994" on="0"/>
        <pt x="271" y="826" on="0"/>
        <pt x="271" y="738" on="1"/>
        <pt x="271" y="654" on="0"/>
        <pt x="316" y="495" on="0"/>
        <pt x="409" y="353" on="0"/>
        <pt x="540" y="246" on="0"/>
        <pt x="726" y="183" on="0"/>
        <pt x="835" y="183" on="1"/>
        <pt x="1068" y="183" on="0"/>
        <pt x="1265" y="330" on="1"/>
        <pt x="1304" y="278" on="0"/>
        <pt x="1304" y="228" on="1"/>
        <pt x="1304" y="156" on="0"/>
        <pt x="1149" y="35" on="0"/>
        <pt x="923" y="-27" on="0"/>
        <pt x="808" y="-27" on="1"/>
        <pt x="654" y="-27" on="0"/>
        <pt x="395" y="59" on="0"/>
        <pt x="215" y="205" on="0"/>
        <pt x="88" y="400" on="0"/>
        <pt x="29" y="618" on="0"/>
        <pt x="29" y="734" on="1"/>
        <pt x="29" y="891" on="0"/>
        <pt x="131" y="1175" on="0"/>
        <pt x="311" y="1387" on="0"/>
        <pt x="577" y="1512" on="0"/>
        <pt x="731" y="1512" on="1"/>
        <pt x="829" y="1512" on="0"/>
        <pt x="1030" y="1425" on="0"/>
        <pt x="1092" y="1340" on="1"/>
        <pt x="1092" y="1490" on="0"/>
        <pt x="1131" y="1490" on="1"/>
        <pt x="1243" y="1490" on="1"/>
        <pt x="1291" y="1490" on="0"/>
        <pt x="1291" y="1386" on="1"/>
        <pt x="1291" y="1119" on="1"/>
        <pt x="1291" y="1062" on="0"/>
        <pt x="1280" y="1009" on="0"/>
        <pt x="1263" y="996" on="0"/>
      </contour>
    </TTGlyph>
    <TTGlyph name="Cacute" xMin="29" yMin="-27" xMax="1304" yMax="2090">
      <component glyphName="acute" x="632" y="465" flags="0x1004"/>
      <component glyphName="C" x="0" y="0" flags="0x1204"/>
    </TTGlyph>
    <TTGlyph name="Ccaron" xMin="29" yMin="-27" xMax="1304" yMax="2090">
      <component glyphName="caron" x="271" y="465" flags="0x1004"/>
      <component glyphName="C" x="0" y="0" flags="0x1204"/>
    </TTGlyph>
    <TTGlyph name="Ccedilla" xMin="29" yMin="-516" xMax="1304" yMax="1512">
      <component glyphName="cedilla" x="577" y="-21" flags="0x1004"/>
      <component glyphName="C" x="0" y="0" flags="0x1204"/>
    </TTGlyph>
    <TTGlyph name="Cdotaccent" xMin="29" yMin="-27" xMax="1304" yMax="1940">
      <component glyphName="dotaccent" x="440" y="414" flags="0x1004"/>
      <component glyphName="C" x="0" y="0" flags="0x1204"/>
    </TTGlyph>
    <TTGlyph name="D" xMin="60" yMin="-11" xMax="1564" yMax="1503">
      <contour>
        <pt x="466" y="173" on="1"/>
        <pt x="854" y="173" on="1"/>
        <pt x="939" y="173" on="0"/>
        <pt x="1086" y="237" on="0"/>
        <pt x="1192" y="346" on="0"/>
        <pt x="1267" y="492" on="0"/>
        <pt x="1304" y="657" on="0"/>
        <pt x="1304" y="743" on="1"/>
        <pt x="1304" y="852" on="0"/>
        <pt x="1241" y="1056" on="0"/>
        <pt x="1124" y="1222" on="0"/>
        <pt x="937" y="1322" on="0"/>
        <pt x="824" y="1322" on="1"/>
        <pt x="466" y="1322" on="1"/>
      </contour>
      <contour>
        <pt x="113" y="1503" on="1"/>
        <pt x="245" y="1490" on="0"/>
        <pt x="481" y="1490" on="1"/>
        <pt x="557" y="1490" on="0"/>
        <pt x="788" y="1503" on="0"/>
        <pt x="824" y="1503" on="1"/>
        <pt x="973" y="1503" on="0"/>
        <pt x="1221" y="1418" on="0"/>
        <pt x="1391" y="1272" on="0"/>
        <pt x="1510" y="1078" on="0"/>
        <pt x="1564" y="862" on="0"/>
        <pt x="1564" y="747" on="1"/>
        <pt x="1564" y="630" on="0"/>
        <pt x="1511" y="413" on="0"/>
        <pt x="1398" y="218" on="0"/>
        <pt x="1234" y="74" on="0"/>
        <pt x="996" y="-11" on="0"/>
        <pt x="854" y="-11" on="1"/>
        <pt x="812" y="-11" on="0"/>
        <pt x="581" y="0" on="0"/>
        <pt x="492" y="0" on="1"/>
        <pt x="450" y="0" on="0"/>
        <pt x="330" y="-4" on="0"/>
        <pt x="164" y="-10" on="0"/>
        <pt x="113" y="-11" on="1"/>
        <pt x="86" y="5" on="0"/>
        <pt x="60" y="101" on="0"/>
        <pt x="60" y="152" on="1"/>
        <pt x="60" y="176" on="0"/>
        <pt x="126" y="200" on="0"/>
        <pt x="172" y="200" on="1"/>
        <pt x="211" y="200" on="0"/>
        <pt x="235" y="233" on="0"/>
        <pt x="235" y="263" on="1"/>
        <pt x="235" y="1229" on="1"/>
        <pt x="235" y="1259" on="0"/>
        <pt x="211" y="1292" on="0"/>
        <pt x="172" y="1292" on="1"/>
        <pt x="60" y="1292" on="0"/>
        <pt x="60" y="1344" on="1"/>
        <pt x="60" y="1393" on="0"/>
        <pt x="86" y="1488" on="0"/>
      </contour>
    </TTGlyph>
    <TTGlyph name="Dcaron" xMin="60" yMin="-11" xMax="1564" yMax="2090">
      <component glyphName="caron" x="322" y="465" flags="0x1004"/>
      <component glyphName="D" x="0" y="0" flags="0x1204"/>
    </TTGlyph>
    <TTGlyph name="Dcroat" xMin="61" yMin="-11" xMax="1597" yMax="1503">
      <contour>
        <pt x="146" y="1503" on="1"/>
        <pt x="278" y="1490" on="0"/>
        <pt x="514" y="1490" on="1"/>
        <pt x="590" y="1490" on="0"/>
        <pt x="821" y="1503" on="0"/>
        <pt x="857" y="1503" on="1"/>
        <pt x="1006" y="1503" on="0"/>
        <pt x="1254" y="1418" on="0"/>
        <pt x="1424" y="1272" on="0"/>
        <pt x="1543" y="1078" on="0"/>
        <pt x="1597" y="862" on="0"/>
        <pt x="1597" y="747" on="1"/>
        <pt x="1597" y="630" on="0"/>
        <pt x="1544" y="413" on="0"/>
        <pt x="1431" y="218" on="0"/>
        <pt x="1267" y="74" on="0"/>
        <pt x="1029" y="-11" on="0"/>
        <pt x="887" y="-11" on="1"/>
        <pt x="845" y="-11" on="0"/>
        <pt x="614" y="0" on="0"/>
        <pt x="525" y="0" on="1"/>
        <pt x="483" y="0" on="0"/>
        <pt x="363" y="-4" on="0"/>
        <pt x="197" y="-10" on="0"/>
        <pt x="146" y="-11" on="1"/>
        <pt x="119" y="5" on="0"/>
        <pt x="93" y="101" on="0"/>
        <pt x="93" y="152" on="1"/>
        <pt x="93" y="176" on="0"/>
        <pt x="159" y="200" on="0"/>
        <pt x="205" y="200" on="1"/>
        <pt x="244" y="200" on="0"/>
        <pt x="268" y="233" on="0"/>
        <pt x="268" y="263" on="1"/>
        <pt x="268" y="684" on="1"/>
        <pt x="124" y="682" on="0"/>
        <pt x="116" y="679" on="1"/>
        <pt x="61" y="679" on="0"/>
        <pt x="61" y="774" on="1"/>
        <pt x="61" y="845" on="0"/>
        <pt x="97" y="859" on="1"/>
        <pt x="136" y="856" on="0"/>
        <pt x="240" y="856" on="1"/>
        <pt x="268" y="856" on="1"/>
        <pt x="268" y="1229" on="1"/>
        <pt x="268" y="1259" on="0"/>
        <pt x="244" y="1292" on="0"/>
        <pt x="205" y="1292" on="1"/>
        <pt x="93" y="1292" on="0"/>
        <pt x="93" y="1344" on="1"/>
        <pt x="93" y="1393" on="0"/>
        <pt x="119" y="1488" on="0"/>
      </contour>
      <contour>
        <pt x="499" y="173" on="1"/>
        <pt x="887" y="173" on="1"/>
        <pt x="972" y="173" on="0"/>
        <pt x="1119" y="237" on="0"/>
        <pt x="1225" y="346" on="0"/>
        <pt x="1300" y="492" on="0"/>
        <pt x="1337" y="657" on="0"/>
        <pt x="1337" y="743" on="1"/>
        <pt x="1337" y="852" on="0"/>
        <pt x="1274" y="1056" on="0"/>
        <pt x="1157" y="1222" on="0"/>
        <pt x="970" y="1322" on="0"/>
        <pt x="857" y="1322" on="1"/>
        <pt x="499" y="1322" on="1"/>
        <pt x="499" y="857" on="1"/>
        <pt x="523" y="857" on="0"/>
        <pt x="576" y="857" on="0"/>
        <pt x="619" y="858" on="0"/>
        <pt x="653" y="858" on="0"/>
        <pt x="664" y="858" on="1"/>
        <pt x="674" y="858" on="1"/>
        <pt x="778" y="858" on="0"/>
        <pt x="817" y="861" on="1"/>
        <pt x="853" y="847" on="0"/>
        <pt x="853" y="776" on="1"/>
        <pt x="853" y="681" on="0"/>
        <pt x="798" y="681" on="1"/>
        <pt x="793" y="683" on="0"/>
        <pt x="679" y="686" on="0"/>
        <pt x="625" y="686" on="1"/>
        <pt x="571" y="687" on="1"/>
        <pt x="536" y="687" on="0"/>
        <pt x="499" y="686" on="1"/>
      </contour>
    </TTGlyph>
    <TTGlyph name="E" xMin="60" yMin="-11" xMax="1327" yMax="1503">
      <contour>
        <pt x="113" y="1503" on="1"/>
        <pt x="513" y="1490" on="0"/>
        <pt x="651" y="1490" on="1"/>
        <pt x="746" y="1490" on="0"/>
        <pt x="950" y="1495" on="0"/>
        <pt x="1130" y="1503" on="0"/>
        <pt x="1149" y="1503" on="1"/>
        <pt x="1166" y="1488" on="0"/>
        <pt x="1257" y="1110" on="0"/>
        <pt x="1257" y="1073" on="1"/>
        <pt x="1257" y="1066" on="0"/>
        <pt x="1242" y="1041" on="0"/>
        <pt x="1211" y="1012" on="0"/>
        <pt x="1152" y="992" on="0"/>
        <pt x="1114" y="992" on="1"/>
        <pt x="1099" y="992" on="0"/>
        <pt x="1061" y="1120" on="0"/>
        <pt x="1023" y="1289" on="0"/>
        <pt x="1015" y="1311" on="1"/>
        <pt x="942" y="1311" on="0"/>
        <pt x="601" y="1310" on="0"/>
        <pt x="500" y="1310" on="1"/>
        <pt x="485" y="1310" on="0"/>
        <pt x="469" y="1288" on="0"/>
        <pt x="466" y="1265" on="0"/>
        <pt x="466" y="1246" on="1"/>
        <pt x="466" y="869" on="1"/>
        <pt x="524" y="889" on="0"/>
        <pt x="695" y="921" on="0"/>
        <pt x="766" y="921" on="1"/>
        <pt x="826" y="921" on="0"/>
        <pt x="898" y="860" on="0"/>
        <pt x="898" y="793" on="1"/>
        <pt x="898" y="737" on="0"/>
        <pt x="821" y="662" on="0"/>
        <pt x="769" y="662" on="1"/>
        <pt x="697" y="753" on="0"/>
        <pt x="563" y="753" on="1"/>
        <pt x="524" y="753" on="0"/>
        <pt x="466" y="746" on="1"/>
        <pt x="466" y="244" on="1"/>
        <pt x="466" y="224" on="0"/>
        <pt x="469" y="201" on="0"/>
        <pt x="485" y="179" on="0"/>
        <pt x="500" y="179" on="1"/>
        <pt x="609" y="179" on="0"/>
        <pt x="977" y="178" on="0"/>
        <pt x="1055" y="178" on="1"/>
        <pt x="1065" y="202" on="0"/>
        <pt x="1115" y="393" on="0"/>
        <pt x="1165" y="537" on="0"/>
        <pt x="1184" y="537" on="1"/>
        <pt x="1222" y="537" on="0"/>
        <pt x="1281" y="517" on="0"/>
        <pt x="1312" y="488" on="0"/>
        <pt x="1327" y="463" on="0"/>
        <pt x="1327" y="456" on="1"/>
        <pt x="1327" y="415" on="0"/>
        <pt x="1218" y="4" on="0"/>
        <pt x="1199" y="-11" on="1"/>
        <pt x="1014" y="0" on="0"/>
        <pt x="651" y="0" on="1"/>
        <pt x="334" y="0" on="0"/>
        <pt x="113" y="-11" on="1"/>
        <pt x="86" y="5" on="0"/>
        <pt x="60" y="101" on="0"/>
        <pt x="60" y="152" on="1"/>
        <pt x="60" y="176" on="0"/>
        <pt x="126" y="200" on="0"/>
        <pt x="172" y="200" on="1"/>
        <pt x="211" y="200" on="0"/>
        <pt x="235" y="233" on="0"/>
        <pt x="235" y="263" on="1"/>
        <pt x="235" y="1229" on="1"/>
        <pt x="235" y="1259" on="0"/>
        <pt x="211" y="1292" on="0"/>
        <pt x="172" y="1292" on="1"/>
        <pt x="60" y="1292" on="0"/>
        <pt x="60" y="1344" on="1"/>
        <pt x="60" y="1393" on="0"/>
        <pt x="86" y="1488" on="0"/>
      </contour>
    </TTGlyph>
    <TTGlyph name="Eacute" xMin="60" yMin="-11" xMax="1327" yMax="2090">
      <component glyphName="acute" x="533" y="465" flags="0x1004"/>
      <component glyphName="E" x="0" y="0" flags="0x1204"/>
    </TTGlyph>
    <TTGlyph name="Ecaron" xMin="60" yMin="-11" xMax="1327" yMax="2090">
      <component glyphName="caron" x="259" y="465" flags="0x1004"/>
      <component glyphName="E" x="0" y="0" flags="0x1204"/>
    </TTGlyph>
    <TTGlyph name="Ecircumflex" xMin="60" yMin="-11" xMax="1327" yMax="2090">
      <component glyphName="circumflex" x="243" y="465" flags="0x1004"/>
      <component glyphName="E" x="0" y="0" flags="0x1204"/>
    </TTGlyph>
    <TTGlyph name="Edieresis" xMin="60" yMin="-11" xMax="1327" yMax="1886">
      <component glyphName="dieresis" x="143" y="378" flags="0x1004"/>
      <component glyphName="E" x="0" y="0" flags="0x1204"/>
    </TTGlyph>
    <TTGlyph name="Egrave" xMin="60" yMin="-11" xMax="1327" yMax="2090">
      <component glyphName="grave" x="73" y="465" flags="0x1004"/>
      <component glyphName="E" x="0" y="0" flags="0x1204"/>
    </TTGlyph>
    <TTGlyph name="Emacron" xMin="60" yMin="-11" xMax="1327" yMax="1763">
      <component glyphName="macron" x="247" y="371" flags="0x1004"/>
      <component glyphName="E" x="0" y="0" flags="0x1204"/>
    </TTGlyph>
    <TTGlyph name="Eogonek" xMin="60" yMin="-455" xMax="1327" yMax="1503">
      <component glyphName="ogonek" x="758" y="-6" flags="0x1004"/>
      <component glyphName="E" x="0" y="0" flags="0x1004"/>
    </TTGlyph>
    <TTGlyph name="Eth" xMin="61" yMin="-11" xMax="1597" yMax="1503">
      <contour>
        <pt x="146" y="1503" on="1"/>
        <pt x="278" y="1490" on="0"/>
        <pt x="514" y="1490" on="1"/>
        <pt x="590" y="1490" on="0"/>
        <pt x="821" y="1503" on="0"/>
        <pt x="857" y="1503" on="1"/>
        <pt x="1006" y="1503" on="0"/>
        <pt x="1254" y="1418" on="0"/>
        <pt x="1424" y="1272" on="0"/>
        <pt x="1543" y="1078" on="0"/>
        <pt x="1597" y="862" on="0"/>
        <pt x="1597" y="747" on="1"/>
        <pt x="1597" y="630" on="0"/>
        <pt x="1544" y="413" on="0"/>
        <pt x="1431" y="218" on="0"/>
        <pt x="1267" y="74" on="0"/>
        <pt x="1029" y="-11" on="0"/>
        <pt x="887" y="-11" on="1"/>
        <pt x="845" y="-11" on="0"/>
        <pt x="614" y="0" on="0"/>
        <pt x="525" y="0" on="1"/>
        <pt x="483" y="0" on="0"/>
        <pt x="363" y="-4" on="0"/>
        <pt x="197" y="-10" on="0"/>
        <pt x="146" y="-11" on="1"/>
        <pt x="119" y="5" on="0"/>
        <pt x="93" y="101" on="0"/>
        <pt x="93" y="152" on="1"/>
        <pt x="93" y="176" on="0"/>
        <pt x="159" y="200" on="0"/>
        <pt x="205" y="200" on="1"/>
        <pt x="244" y="200" on="0"/>
        <pt x="268" y="233" on="0"/>
        <pt x="268" y="263" on="1"/>
        <pt x="268" y="684" on="1"/>
        <pt x="124" y="682" on="0"/>
        <pt x="116" y="679" on="1"/>
        <pt x="61" y="679" on="0"/>
        <pt x="61" y="774" on="1"/>
        <pt x="61" y="845" on="0"/>
        <pt x="97" y="859" on="1"/>
        <pt x="136" y="856" on="0"/>
        <pt x="240" y="856" on="1"/>
        <pt x="268" y="856" on="1"/>
        <pt x="268" y="1229" on="1"/>
        <pt x="268" y="1259" on="0"/>
        <pt x="244" y="1292" on="0"/>
        <pt x="205" y="1292" on="1"/>
        <pt x="93" y="1292" on="0"/>
        <pt x="93" y="1344" on="1"/>
        <pt x="93" y="1393" on="0"/>
        <pt x="119" y="1488" on="0"/>
      </contour>
      <contour>
        <pt x="499" y="173" on="1"/>
        <pt x="887" y="173" on="1"/>
        <pt x="972" y="173" on="0"/>
        <pt x="1119" y="237" on="0"/>
        <pt x="1225" y="346" on="0"/>
        <pt x="1300" y="492" on="0"/>
        <pt x="1337" y="657" on="0"/>
        <pt x="1337" y="743" on="1"/>
        <pt x="1337" y="852" on="0"/>
        <pt x="1274" y="1056" on="0"/>
        <pt x="1157" y="1222" on="0"/>
        <pt x="970" y="1322" on="0"/>
        <pt x="857" y="1322" on="1"/>
        <pt x="499" y="1322" on="1"/>
        <pt x="499" y="857" on="1"/>
        <pt x="537" y="857" on="0"/>
        <pt x="621" y="857" on="0"/>
        <pt x="688" y="858" on="0"/>
        <pt x="744" y="858" on="0"/>
        <pt x="760" y="858" on="1"/>
        <pt x="777" y="858" on="1"/>
        <pt x="881" y="858" on="0"/>
        <pt x="920" y="861" on="1"/>
        <pt x="956" y="847" on="0"/>
        <pt x="956" y="776" on="1"/>
        <pt x="956" y="681" on="0"/>
        <pt x="901" y="681" on="1"/>
        <pt x="896" y="683" on="0"/>
        <pt x="782" y="686" on="0"/>
        <pt x="728" y="686" on="1"/>
        <pt x="674" y="687" on="1"/>
        <pt x="571" y="687" on="1"/>
        <pt x="542" y="686" on="0"/>
        <pt x="499" y="686" on="1"/>
      </contour>
    </TTGlyph>
    <TTGlyph name="Euro" xMin="5" yMin="-27" xMax="1439" yMax="1512">
      <contour>
        <pt x="642" y="833" on="1"/>
        <pt x="441" y="832" on="1"/>
        <pt x="436" y="793" on="0"/>
        <pt x="436" y="738" on="1"/>
        <pt x="436" y="722" on="0"/>
        <pt x="438" y="690" on="1"/>
        <pt x="701" y="690" on="1"/>
        <pt x="773" y="690" on="0"/>
        <pt x="817" y="694" on="1"/>
        <pt x="846" y="682" on="0"/>
        <pt x="846" y="625" on="1"/>
        <pt x="846" y="548" on="0"/>
        <pt x="801" y="548" on="1"/>
        <pt x="793" y="552" on="0"/>
        <pt x="663" y="552" on="1"/>
        <pt x="663" y="552" on="0"/>
        <pt x="617" y="551" on="1"/>
        <pt x="464" y="551" on="1"/>
        <pt x="515" y="389" on="0"/>
        <pt x="776" y="183" on="0"/>
        <pt x="970" y="183" on="1"/>
        <pt x="1203" y="183" on="0"/>
        <pt x="1400" y="330" on="1"/>
        <pt x="1439" y="278" on="0"/>
        <pt x="1439" y="228" on="1"/>
        <pt x="1439" y="156" on="0"/>
        <pt x="1284" y="35" on="0"/>
        <pt x="1058" y="-27" on="0"/>
        <pt x="943" y="-27" on="1"/>
        <pt x="819" y="-27" on="0"/>
        <pt x="603" y="34" on="0"/>
        <pt x="440" y="140" on="0"/>
        <pt x="313" y="287" on="0"/>
        <pt x="234" y="456" on="0"/>
        <pt x="213" y="551" on="1"/>
        <pt x="127" y="551" on="1"/>
        <pt x="57" y="551" on="0"/>
        <pt x="50" y="546" on="1"/>
        <pt x="5" y="546" on="0"/>
        <pt x="5" y="623" on="1"/>
        <pt x="5" y="681" on="0"/>
        <pt x="34" y="692" on="1"/>
        <pt x="48" y="690" on="0"/>
        <pt x="94" y="690" on="1"/>
        <pt x="195" y="690" on="1"/>
        <pt x="195" y="697" on="0"/>
        <pt x="194" y="726" on="0"/>
        <pt x="194" y="734" on="1"/>
        <pt x="194" y="791" on="0"/>
        <pt x="199" y="831" on="1"/>
        <pt x="116" y="831" on="1"/>
        <pt x="66" y="831" on="0"/>
        <pt x="58" y="827" on="1"/>
        <pt x="13" y="827" on="0"/>
        <pt x="13" y="904" on="1"/>
        <pt x="13" y="961" on="0"/>
        <pt x="42" y="973" on="1"/>
        <pt x="50" y="972" on="0"/>
        <pt x="117" y="972" on="1"/>
        <pt x="225" y="972" on="1"/>
        <pt x="290" y="1211" on="0"/>
        <pt x="648" y="1512" on="0"/>
        <pt x="896" y="1512" on="1"/>
        <pt x="1003" y="1512" on="0"/>
        <pt x="1215" y="1455" on="0"/>
        <pt x="1362" y="1344" on="0"/>
        <pt x="1362" y="1277" on="1"/>
        <pt x="1362" y="1226" on="0"/>
        <pt x="1323" y="1175" on="1"/>
        <pt x="1230" y="1249" on="0"/>
        <pt x="1015" y="1325" on="0"/>
        <pt x="913" y="1325" on="1"/>
        <pt x="748" y="1325" on="0"/>
        <pt x="523" y="1129" on="0"/>
        <pt x="472" y="972" on="1"/>
        <pt x="725" y="972" on="1"/>
        <pt x="821" y="972" on="0"/>
        <pt x="841" y="974" on="1"/>
        <pt x="870" y="963" on="0"/>
        <pt x="870" y="905" on="1"/>
        <pt x="870" y="828" on="0"/>
        <pt x="826" y="828" on="1"/>
        <pt x="822" y="830" on="0"/>
        <pt x="730" y="832" on="0"/>
        <pt x="686" y="832" on="1"/>
      </contour>
    </TTGlyph>
    <TTGlyph name="F" xMin="60" yMin="-11" xMax="1247" yMax="1503">
      <contour>
        <pt x="113" y="1503" on="1"/>
        <pt x="238" y="1490" on="0"/>
        <pt x="671" y="1490" on="1"/>
        <pt x="899" y="1490" on="0"/>
        <pt x="1099" y="1503" on="1"/>
        <pt x="1121" y="1488" on="0"/>
        <pt x="1247" y="1128" on="0"/>
        <pt x="1247" y="1093" on="1"/>
        <pt x="1247" y="1086" on="0"/>
        <pt x="1232" y="1061" on="0"/>
        <pt x="1201" y="1032" on="0"/>
        <pt x="1142" y="1012" on="0"/>
        <pt x="1104" y="1012" on="1"/>
        <pt x="1083" y="1012" on="0"/>
        <pt x="1030" y="1132" on="0"/>
        <pt x="976" y="1291" on="0"/>
        <pt x="965" y="1311" on="1"/>
        <pt x="899" y="1311" on="0"/>
        <pt x="590" y="1310" on="0"/>
        <pt x="500" y="1310" on="1"/>
        <pt x="485" y="1310" on="0"/>
        <pt x="469" y="1302" on="0"/>
        <pt x="466" y="1293" on="0"/>
        <pt x="466" y="1286" on="1"/>
        <pt x="466" y="877" on="1"/>
        <pt x="524" y="897" on="0"/>
        <pt x="695" y="929" on="0"/>
        <pt x="766" y="929" on="1"/>
        <pt x="928" y="929" on="0"/>
        <pt x="928" y="801" on="1"/>
        <pt x="928" y="745" on="0"/>
        <pt x="851" y="670" on="0"/>
        <pt x="799" y="670" on="1"/>
        <pt x="728" y="762" on="0"/>
        <pt x="613" y="762" on="1"/>
        <pt x="542" y="762" on="0"/>
        <pt x="466" y="745" on="1"/>
        <pt x="466" y="265" on="1"/>
        <pt x="466" y="250" on="0"/>
        <pt x="469" y="233" on="0"/>
        <pt x="480" y="211" on="0"/>
        <pt x="508" y="200" on="0"/>
        <pt x="530" y="200" on="1"/>
        <pt x="576" y="200" on="0"/>
        <pt x="642" y="176" on="0"/>
        <pt x="642" y="152" on="1"/>
        <pt x="642" y="100" on="0"/>
        <pt x="621" y="5" on="0"/>
        <pt x="599" y="-11" on="1"/>
        <pt x="456" y="0" on="0"/>
        <pt x="352" y="0" on="1"/>
        <pt x="254" y="0" on="0"/>
        <pt x="113" y="-11" on="1"/>
        <pt x="86" y="5" on="0"/>
        <pt x="60" y="101" on="0"/>
        <pt x="60" y="152" on="1"/>
        <pt x="60" y="176" on="0"/>
        <pt x="126" y="200" on="0"/>
        <pt x="172" y="200" on="1"/>
        <pt x="211" y="200" on="0"/>
        <pt x="235" y="233" on="0"/>
        <pt x="235" y="263" on="1"/>
        <pt x="235" y="1229" on="1"/>
        <pt x="235" y="1259" on="0"/>
        <pt x="211" y="1292" on="0"/>
        <pt x="172" y="1292" on="1"/>
        <pt x="60" y="1292" on="0"/>
        <pt x="60" y="1344" on="1"/>
        <pt x="60" y="1393" on="0"/>
        <pt x="86" y="1488" on="0"/>
      </contour>
    </TTGlyph>
    <TTGlyph name="G" xMin="57" yMin="-27" xMax="1567" yMax="1512">
      <contour>
        <pt x="1441" y="472" on="1"/>
        <pt x="1442" y="53" on="1"/>
        <pt x="1406" y="17" on="0"/>
        <pt x="1361" y="17" on="1"/>
        <pt x="1350" y="17" on="0"/>
        <pt x="1327" y="22" on="0"/>
        <pt x="1301" y="33" on="0"/>
        <pt x="1285" y="40" on="0"/>
        <pt x="1254" y="57" on="0"/>
        <pt x="1250" y="59" on="1"/>
        <pt x="1160" y="22" on="0"/>
        <pt x="921" y="-27" on="0"/>
        <pt x="816" y="-27" on="1"/>
        <pt x="666" y="-27" on="0"/>
        <pt x="414" y="59" on="0"/>
        <pt x="238" y="205" on="0"/>
        <pt x="115" y="400" on="0"/>
        <pt x="57" y="618" on="0"/>
        <pt x="57" y="734" on="1"/>
        <pt x="57" y="891" on="0"/>
        <pt x="159" y="1175" on="0"/>
        <pt x="339" y="1387" on="0"/>
        <pt x="605" y="1512" on="0"/>
        <pt x="759" y="1512" on="1"/>
        <pt x="881" y="1512" on="0"/>
        <pt x="1136" y="1425" on="0"/>
        <pt x="1210" y="1340" on="1"/>
        <pt x="1210" y="1490" on="0"/>
        <pt x="1249" y="1490" on="1"/>
        <pt x="1361" y="1490" on="1"/>
        <pt x="1409" y="1490" on="0"/>
        <pt x="1409" y="1386" on="1"/>
        <pt x="1409" y="1139" on="1"/>
        <pt x="1409" y="1082" on="0"/>
        <pt x="1398" y="1029" on="0"/>
        <pt x="1381" y="1016" on="0"/>
        <pt x="1361" y="1014" on="1"/>
        <pt x="1278" y="1014" on="1"/>
        <pt x="1270" y="1014" on="0"/>
        <pt x="1229" y="1060" on="0"/>
        <pt x="1175" y="1129" on="0"/>
        <pt x="1088" y="1210" on="0"/>
        <pt x="990" y="1279" on="0"/>
        <pt x="851" y="1325" on="0"/>
        <pt x="776" y="1325" on="1"/>
        <pt x="683" y="1325" on="0"/>
        <pt x="525" y="1258" on="0"/>
        <pt x="415" y="1145" on="0"/>
        <pt x="336" y="994" on="0"/>
        <pt x="299" y="826" on="0"/>
        <pt x="299" y="738" on="1"/>
        <pt x="299" y="654" on="0"/>
        <pt x="342" y="495" on="0"/>
        <pt x="432" y="353" on="0"/>
        <pt x="559" y="246" on="0"/>
        <pt x="738" y="183" on="0"/>
        <pt x="843" y="183" on="1"/>
        <pt x="1036" y="183" on="0"/>
        <pt x="1220" y="229" on="1"/>
        <pt x="1220" y="435" on="1"/>
        <pt x="1220" y="469" on="0"/>
        <pt x="1210" y="516" on="0"/>
        <pt x="1181" y="564" on="0"/>
        <pt x="1116" y="588" on="0"/>
        <pt x="1067" y="588" on="1"/>
        <pt x="1048" y="588" on="0"/>
        <pt x="1035" y="622" on="0"/>
        <pt x="1035" y="666" on="1"/>
        <pt x="1035" y="733" on="0"/>
        <pt x="1068" y="786" on="1"/>
        <pt x="1197" y="775" on="0"/>
        <pt x="1322" y="775" on="1"/>
        <pt x="1373" y="775" on="0"/>
        <pt x="1473" y="780" on="0"/>
        <pt x="1537" y="786" on="0"/>
        <pt x="1544" y="786" on="1"/>
        <pt x="1552" y="778" on="0"/>
        <pt x="1567" y="719" on="0"/>
        <pt x="1567" y="696" on="1"/>
        <pt x="1567" y="657" on="0"/>
        <pt x="1541" y="612" on="0"/>
        <pt x="1504" y="592" on="0"/>
        <pt x="1467" y="570" on="0"/>
        <pt x="1441" y="517" on="0"/>
      </contour>
    </TTGlyph>
    <TTGlyph name="Gbreve" xMin="57" yMin="-27" xMax="1567" yMax="1895">
      <component glyphName="breve" x="231" y="380" flags="0x1004"/>
      <component glyphName="G" x="0" y="0" flags="0x1204"/>
    </TTGlyph>
    <TTGlyph name="Gcommaaccent" xMin="57" yMin="-636" xMax="1567" yMax="1512">
      <component glyphName="uni0326" x="508" y="-17" flags="0x1004"/>
      <component glyphName="G" x="0" y="0" flags="0x1204"/>
    </TTGlyph>
    <TTGlyph name="Gdotaccent" xMin="57" yMin="-27" xMax="1567" yMax="1940">
      <component glyphName="dotaccent" x="520" y="414" flags="0x1004"/>
      <component glyphName="G" x="0" y="0" flags="0x1204"/>
    </TTGlyph>
    <TTGlyph name="H" xMin="60" yMin="-11" xMax="1699" yMax="1503">
      <contour>
        <pt x="113" y="-11" on="1"/>
        <pt x="86" y="5" on="0"/>
        <pt x="60" y="101" on="0"/>
        <pt x="60" y="152" on="1"/>
        <pt x="60" y="176" on="0"/>
        <pt x="126" y="200" on="0"/>
        <pt x="172" y="200" on="1"/>
        <pt x="211" y="200" on="0"/>
        <pt x="235" y="233" on="0"/>
        <pt x="235" y="263" on="1"/>
        <pt x="235" y="1229" on="1"/>
        <pt x="235" y="1259" on="0"/>
        <pt x="211" y="1292" on="0"/>
        <pt x="172" y="1292" on="1"/>
        <pt x="60" y="1292" on="0"/>
        <pt x="60" y="1344" on="1"/>
        <pt x="60" y="1393" on="0"/>
        <pt x="86" y="1488" on="0"/>
        <pt x="113" y="1503" on="1"/>
        <pt x="279" y="1490" on="0"/>
        <pt x="352" y="1490" on="1"/>
        <pt x="443" y="1490" on="0"/>
        <pt x="599" y="1502" on="1"/>
        <pt x="621" y="1486" on="0"/>
        <pt x="642" y="1390" on="0"/>
        <pt x="642" y="1338" on="1"/>
        <pt x="642" y="1314" on="0"/>
        <pt x="576" y="1290" on="0"/>
        <pt x="530" y="1290" on="1"/>
        <pt x="508" y="1290" on="0"/>
        <pt x="480" y="1279" on="0"/>
        <pt x="469" y="1257" on="0"/>
        <pt x="466" y="1240" on="0"/>
        <pt x="466" y="1225" on="1"/>
        <pt x="466" y="884" on="1"/>
        <pt x="466" y="863" on="0"/>
        <pt x="485" y="863" on="1"/>
        <pt x="1273" y="863" on="1"/>
        <pt x="1292" y="863" on="0"/>
        <pt x="1292" y="884" on="1"/>
        <pt x="1292" y="1227" on="1"/>
        <pt x="1292" y="1257" on="0"/>
        <pt x="1268" y="1290" on="0"/>
        <pt x="1229" y="1290" on="1"/>
        <pt x="1183" y="1290" on="0"/>
        <pt x="1117" y="1314" on="0"/>
        <pt x="1117" y="1338" on="1"/>
        <pt x="1117" y="1390" on="0"/>
        <pt x="1143" y="1486" on="0"/>
        <pt x="1170" y="1502" on="1"/>
        <pt x="1324" y="1490" on="0"/>
        <pt x="1409" y="1490" on="1"/>
        <pt x="1500" y="1490" on="0"/>
        <pt x="1656" y="1502" on="1"/>
        <pt x="1678" y="1486" on="0"/>
        <pt x="1699" y="1390" on="0"/>
        <pt x="1699" y="1338" on="1"/>
        <pt x="1699" y="1314" on="0"/>
        <pt x="1633" y="1290" on="0"/>
        <pt x="1587" y="1290" on="1"/>
        <pt x="1565" y="1290" on="0"/>
        <pt x="1537" y="1279" on="0"/>
        <pt x="1526" y="1257" on="0"/>
        <pt x="1523" y="1240" on="0"/>
        <pt x="1523" y="1225" on="1"/>
        <pt x="1523" y="265" on="1"/>
        <pt x="1523" y="250" on="0"/>
        <pt x="1526" y="233" on="0"/>
        <pt x="1537" y="211" on="0"/>
        <pt x="1565" y="200" on="0"/>
        <pt x="1587" y="200" on="1"/>
        <pt x="1633" y="200" on="0"/>
        <pt x="1699" y="176" on="0"/>
        <pt x="1699" y="152" on="1"/>
        <pt x="1699" y="100" on="0"/>
        <pt x="1678" y="5" on="0"/>
        <pt x="1656" y="-11" on="1"/>
        <pt x="1513" y="0" on="0"/>
        <pt x="1409" y="0" on="1"/>
        <pt x="1311" y="0" on="0"/>
        <pt x="1170" y="-11" on="1"/>
        <pt x="1143" y="5" on="0"/>
        <pt x="1117" y="101" on="0"/>
        <pt x="1117" y="152" on="1"/>
        <pt x="1117" y="176" on="0"/>
        <pt x="1183" y="200" on="0"/>
        <pt x="1229" y="200" on="1"/>
        <pt x="1268" y="200" on="0"/>
        <pt x="1292" y="233" on="0"/>
        <pt x="1292" y="263" on="1"/>
        <pt x="1292" y="686" on="1"/>
        <pt x="1292" y="707" on="0"/>
        <pt x="1273" y="707" on="1"/>
        <pt x="485" y="707" on="1"/>
        <pt x="466" y="707" on="0"/>
        <pt x="466" y="686" on="1"/>
        <pt x="466" y="265" on="1"/>
        <pt x="466" y="250" on="0"/>
        <pt x="469" y="233" on="0"/>
        <pt x="480" y="211" on="0"/>
        <pt x="508" y="200" on="0"/>
        <pt x="530" y="200" on="1"/>
        <pt x="576" y="200" on="0"/>
        <pt x="642" y="176" on="0"/>
        <pt x="642" y="152" on="1"/>
        <pt x="642" y="100" on="0"/>
        <pt x="621" y="5" on="0"/>
        <pt x="599" y="-11" on="1"/>
        <pt x="456" y="0" on="0"/>
        <pt x="352" y="0" on="1"/>
        <pt x="254" y="0" on="0"/>
      </contour>
    </TTGlyph>
    <TTGlyph name="Hbar" xMin="126" yMin="-11" xMax="1765" yMax="1503">
      <contour>
        <pt x="179" y="-11" on="1"/>
        <pt x="152" y="5" on="0"/>
        <pt x="126" y="101" on="0"/>
        <pt x="126" y="152" on="1"/>
        <pt x="126" y="176" on="0"/>
        <pt x="192" y="200" on="0"/>
        <pt x="238" y="200" on="1"/>
        <pt x="277" y="200" on="0"/>
        <pt x="301" y="233" on="0"/>
        <pt x="301" y="263" on="1"/>
        <pt x="301" y="1229" on="1"/>
        <pt x="301" y="1259" on="0"/>
        <pt x="277" y="1292" on="0"/>
        <pt x="238" y="1292" on="1"/>
        <pt x="126" y="1292" on="0"/>
        <pt x="126" y="1344" on="1"/>
        <pt x="126" y="1393" on="0"/>
        <pt x="152" y="1488" on="0"/>
        <pt x="179" y="1503" on="1"/>
        <pt x="345" y="1490" on="0"/>
        <pt x="418" y="1490" on="1"/>
        <pt x="509" y="1490" on="0"/>
        <pt x="665" y="1502" on="1"/>
        <pt x="687" y="1486" on="0"/>
        <pt x="708" y="1390" on="0"/>
        <pt x="708" y="1338" on="1"/>
        <pt x="708" y="1314" on="0"/>
        <pt x="642" y="1290" on="0"/>
        <pt x="596" y="1290" on="1"/>
        <pt x="574" y="1290" on="0"/>
        <pt x="546" y="1279" on="0"/>
        <pt x="535" y="1257" on="0"/>
        <pt x="532" y="1240" on="0"/>
        <pt x="532" y="1225" on="1"/>
        <pt x="532" y="1124" on="1"/>
        <pt x="1358" y="1124" on="1"/>
        <pt x="1358" y="1227" on="1"/>
        <pt x="1358" y="1257" on="0"/>
        <pt x="1334" y="1290" on="0"/>
        <pt x="1295" y="1290" on="1"/>
        <pt x="1249" y="1290" on="0"/>
        <pt x="1183" y="1314" on="0"/>
        <pt x="1183" y="1338" on="1"/>
        <pt x="1183" y="1390" on="0"/>
        <pt x="1209" y="1486" on="0"/>
        <pt x="1236" y="1502" on="1"/>
        <pt x="1390" y="1490" on="0"/>
        <pt x="1475" y="1490" on="1"/>
        <pt x="1566" y="1490" on="0"/>
        <pt x="1722" y="1502" on="1"/>
        <pt x="1744" y="1486" on="0"/>
        <pt x="1765" y="1390" on="0"/>
        <pt x="1765" y="1338" on="1"/>
        <pt x="1765" y="1314" on="0"/>
        <pt x="1699" y="1290" on="0"/>
        <pt x="1653" y="1290" on="1"/>
        <pt x="1631" y="1290" on="0"/>
        <pt x="1603" y="1279" on="0"/>
        <pt x="1592" y="1257" on="0"/>
        <pt x="1589" y="1240" on="0"/>
        <pt x="1589" y="1225" on="1"/>
        <pt x="1589" y="265" on="1"/>
        <pt x="1589" y="250" on="0"/>
        <pt x="1592" y="233" on="0"/>
        <pt x="1603" y="211" on="0"/>
        <pt x="1631" y="200" on="0"/>
        <pt x="1653" y="200" on="1"/>
        <pt x="1699" y="200" on="0"/>
        <pt x="1765" y="176" on="0"/>
        <pt x="1765" y="152" on="1"/>
        <pt x="1765" y="100" on="0"/>
        <pt x="1744" y="5" on="0"/>
        <pt x="1722" y="-11" on="1"/>
        <pt x="1579" y="0" on="0"/>
        <pt x="1475" y="0" on="1"/>
        <pt x="1377" y="0" on="0"/>
        <pt x="1236" y="-11" on="1"/>
        <pt x="1209" y="5" on="0"/>
        <pt x="1183" y="101" on="0"/>
        <pt x="1183" y="152" on="1"/>
        <pt x="1183" y="176" on="0"/>
        <pt x="1249" y="200" on="0"/>
        <pt x="1295" y="200" on="1"/>
        <pt x="1334" y="200" on="0"/>
        <pt x="1358" y="233" on="0"/>
        <pt x="1358" y="263" on="1"/>
        <pt x="1358" y="686" on="1"/>
        <pt x="1358" y="707" on="0"/>
        <pt x="1339" y="707" on="1"/>
        <pt x="551" y="707" on="1"/>
        <pt x="532" y="707" on="0"/>
        <pt x="532" y="686" on="1"/>
        <pt x="532" y="265" on="1"/>
        <pt x="532" y="250" on="0"/>
        <pt x="535" y="233" on="0"/>
        <pt x="546" y="211" on="0"/>
        <pt x="574" y="200" on="0"/>
        <pt x="596" y="200" on="1"/>
        <pt x="642" y="200" on="0"/>
        <pt x="708" y="176" on="0"/>
        <pt x="708" y="152" on="1"/>
        <pt x="708" y="100" on="0"/>
        <pt x="687" y="5" on="0"/>
        <pt x="665" y="-11" on="1"/>
        <pt x="522" y="0" on="0"/>
        <pt x="418" y="0" on="1"/>
        <pt x="320" y="0" on="0"/>
      </contour>
      <contour>
        <pt x="532" y="1003" on="1"/>
        <pt x="532" y="884" on="1"/>
        <pt x="532" y="863" on="0"/>
        <pt x="551" y="863" on="1"/>
        <pt x="1339" y="863" on="1"/>
        <pt x="1358" y="863" on="0"/>
        <pt x="1358" y="884" on="1"/>
        <pt x="1358" y="1003" on="1"/>
      </contour>
    </TTGlyph>
    <TTGlyph name="I" xMin="60" yMin="-11" xMax="642" yMax="1503">
      <contour>
        <pt x="113" y="1503" on="1"/>
        <pt x="279" y="1490" on="0"/>
        <pt x="352" y="1490" on="1"/>
        <pt x="430" y="1490" on="0"/>
        <pt x="599" y="1503" on="1"/>
        <pt x="621" y="1487" on="0"/>
        <pt x="642" y="1390" on="0"/>
        <pt x="642" y="1338" on="1"/>
        <pt x="642" y="1314" on="0"/>
        <pt x="576" y="1290" on="0"/>
        <pt x="530" y="1290" on="1"/>
        <pt x="508" y="1290" on="0"/>
        <pt x="480" y="1279" on="0"/>
        <pt x="469" y="1257" on="0"/>
        <pt x="466" y="1240" on="0"/>
        <pt x="466" y="1225" on="1"/>
        <pt x="466" y="265" on="1"/>
        <pt x="466" y="250" on="0"/>
        <pt x="469" y="233" on="0"/>
        <pt x="480" y="211" on="0"/>
        <pt x="508" y="200" on="0"/>
        <pt x="530" y="200" on="1"/>
        <pt x="576" y="200" on="0"/>
        <pt x="642" y="176" on="0"/>
        <pt x="642" y="152" on="1"/>
        <pt x="642" y="100" on="0"/>
        <pt x="621" y="5" on="0"/>
        <pt x="599" y="-11" on="1"/>
        <pt x="456" y="0" on="0"/>
        <pt x="352" y="0" on="1"/>
        <pt x="254" y="0" on="0"/>
        <pt x="113" y="-11" on="1"/>
        <pt x="86" y="5" on="0"/>
        <pt x="60" y="101" on="0"/>
        <pt x="60" y="152" on="1"/>
        <pt x="60" y="176" on="0"/>
        <pt x="126" y="200" on="0"/>
        <pt x="172" y="200" on="1"/>
        <pt x="211" y="200" on="0"/>
        <pt x="235" y="233" on="0"/>
        <pt x="235" y="263" on="1"/>
        <pt x="235" y="1229" on="1"/>
        <pt x="235" y="1259" on="0"/>
        <pt x="211" y="1292" on="0"/>
        <pt x="172" y="1292" on="1"/>
        <pt x="60" y="1292" on="0"/>
        <pt x="60" y="1344" on="1"/>
        <pt x="60" y="1393" on="0"/>
        <pt x="86" y="1488" on="0"/>
      </contour>
    </TTGlyph>
    <TTGlyph name="IJ" xMin="70" yMin="-85" xMax="1574" yMax="1503">
      <contour>
        <pt x="122" y="1503" on="1"/>
        <pt x="288" y="1490" on="0"/>
        <pt x="362" y="1490" on="1"/>
        <pt x="439" y="1490" on="0"/>
        <pt x="608" y="1503" on="1"/>
        <pt x="630" y="1487" on="0"/>
        <pt x="652" y="1390" on="0"/>
        <pt x="652" y="1338" on="1"/>
        <pt x="652" y="1314" on="0"/>
        <pt x="586" y="1290" on="0"/>
        <pt x="540" y="1290" on="1"/>
        <pt x="518" y="1290" on="0"/>
        <pt x="490" y="1279" on="0"/>
        <pt x="479" y="1257" on="0"/>
        <pt x="476" y="1240" on="0"/>
        <pt x="476" y="1225" on="1"/>
        <pt x="476" y="265" on="1"/>
        <pt x="476" y="250" on="0"/>
        <pt x="479" y="233" on="0"/>
        <pt x="490" y="211" on="0"/>
        <pt x="518" y="200" on="0"/>
        <pt x="540" y="200" on="1"/>
        <pt x="586" y="200" on="0"/>
        <pt x="652" y="176" on="0"/>
        <pt x="652" y="152" on="1"/>
        <pt x="652" y="101" on="0"/>
        <pt x="631" y="5" on="0"/>
        <pt x="608" y="-11" on="1"/>
        <pt x="465" y="0" on="0"/>
        <pt x="362" y="0" on="1"/>
        <pt x="263" y="0" on="0"/>
        <pt x="122" y="-11" on="1"/>
        <pt x="95" y="5" on="0"/>
        <pt x="70" y="100" on="0"/>
        <pt x="70" y="152" on="1"/>
        <pt x="70" y="176" on="0"/>
        <pt x="136" y="200" on="0"/>
        <pt x="182" y="200" on="1"/>
        <pt x="221" y="200" on="0"/>
        <pt x="244" y="232" on="0"/>
        <pt x="244" y="263" on="1"/>
        <pt x="244" y="1229" on="1"/>
        <pt x="244" y="1260" on="0"/>
        <pt x="221" y="1292" on="0"/>
        <pt x="182" y="1292" on="1"/>
        <pt x="70" y="1292" on="0"/>
        <pt x="70" y="1344" on="1"/>
        <pt x="70" y="1393" on="0"/>
        <pt x="95" y="1488" on="0"/>
      </contour>
      <contour>
        <pt x="1168" y="351" on="1"/>
        <pt x="1167" y="1227" on="1"/>
        <pt x="1167" y="1257" on="0"/>
        <pt x="1143" y="1290" on="0"/>
        <pt x="1104" y="1290" on="1"/>
        <pt x="1058" y="1290" on="0"/>
        <pt x="992" y="1314" on="0"/>
        <pt x="992" y="1338" on="1"/>
        <pt x="992" y="1389" on="0"/>
        <pt x="1018" y="1482" on="0"/>
        <pt x="1045" y="1498" on="1"/>
        <pt x="1147" y="1490" on="0"/>
        <pt x="1284" y="1490" on="1"/>
        <pt x="1427" y="1490" on="0"/>
        <pt x="1531" y="1498" on="1"/>
        <pt x="1574" y="1468" on="0"/>
        <pt x="1574" y="1338" on="1"/>
        <pt x="1574" y="1314" on="0"/>
        <pt x="1508" y="1290" on="0"/>
        <pt x="1462" y="1290" on="1"/>
        <pt x="1440" y="1290" on="0"/>
        <pt x="1412" y="1279" on="0"/>
        <pt x="1401" y="1257" on="0"/>
        <pt x="1398" y="1240" on="0"/>
        <pt x="1398" y="1225" on="1"/>
        <pt x="1398" y="375" on="1"/>
        <pt x="1398" y="299" on="0"/>
        <pt x="1384" y="177" on="0"/>
        <pt x="1341" y="52" on="0"/>
        <pt x="1269" y="-32" on="0"/>
        <pt x="1145" y="-85" on="0"/>
        <pt x="1062" y="-85" on="1"/>
        <pt x="1012" y="-85" on="0"/>
        <pt x="911" y="-66" on="0"/>
        <pt x="814" y="-25" on="0"/>
        <pt x="753" y="53" on="0"/>
        <pt x="753" y="104" on="1"/>
        <pt x="753" y="147" on="0"/>
        <pt x="825" y="199" on="0"/>
        <pt x="872" y="199" on="1"/>
        <pt x="903" y="199" on="0"/>
        <pt x="943" y="185" on="0"/>
        <pt x="960" y="165" on="0"/>
        <pt x="977" y="140" on="0"/>
        <pt x="991" y="120" on="0"/>
        <pt x="1027" y="106" on="0"/>
        <pt x="1054" y="106" on="1"/>
        <pt x="1091" y="106" on="0"/>
        <pt x="1138" y="141" on="0"/>
        <pt x="1161" y="214" on="0"/>
        <pt x="1168" y="291" on="0"/>
      </contour>
    </TTGlyph>
    <TTGlyph name="Iacute" xMin="60" yMin="-11" xMax="870" yMax="2090">
      <component glyphName="acute" x="257" y="465" flags="0x1004"/>
      <component glyphName="I" x="0" y="0" flags="0x1204"/>
    </TTGlyph>
    <TTGlyph name="Ibreve" xMin="38" yMin="-11" xMax="674" yMax="1895">
      <component glyphName="breve" x="-196" y="380" flags="0x1004"/>
      <component glyphName="I" x="0" y="0" flags="0x1204"/>
    </TTGlyph>
    <TTGlyph name="Icircumflex" xMin="-33" yMin="-11" xMax="745" yMax="2090">
      <component glyphName="circumflex" x="-104" y="465" flags="0x1004"/>
      <component glyphName="I" x="0" y="0" flags="0x1204"/>
    </TTGlyph>
    <TTGlyph name="Idieresis" xMin="-88" yMin="-11" xMax="801" yMax="1886">
      <component glyphName="dieresis" x="-131" y="378" flags="0x1004"/>
      <component glyphName="I" x="0" y="0" flags="0x1204"/>
    </TTGlyph>
    <TTGlyph name="Idotaccent" xMin="60" yMin="-11" xMax="642" yMax="1940">
      <component glyphName="dotaccent" x="65" y="414" flags="0x1004"/>
      <component glyphName="I" x="0" y="0" flags="0x1204"/>
    </TTGlyph>
    <TTGlyph name="Igrave" xMin="-158" yMin="-11" xMax="642" yMax="2090">
      <component glyphName="grave" x="-201" y="465" flags="0x1004"/>
      <component glyphName="I" x="0" y="0" flags="0x1204"/>
    </TTGlyph>
    <TTGlyph name="Imacron" xMin="18" yMin="-11" xMax="699" yMax="1763">
      <component glyphName="macron" x="-48" y="371" flags="0x1004"/>
      <component glyphName="I" x="0" y="0" flags="0x1204"/>
    </TTGlyph>
    <TTGlyph name="Iogonek" xMin="60" yMin="-458" xMax="673" yMax="1503">
      <component glyphName="ogonek" x="159" y="-9" flags="0x1004"/>
      <component glyphName="I" x="0" y="0" flags="0x1204"/>
    </TTGlyph>
    <TTGlyph name="Itilde" xMin="-23" yMin="-11" xMax="735" yMax="1873">
      <component glyphName="tilde" x="-144" y="389" flags="0x1004"/>
      <component glyphName="I" x="0" y="0" flags="0x1204"/>
    </TTGlyph>
    <TTGlyph name="J" xMin="57" yMin="-85" xMax="888" yMax="1498">
      <contour>
        <pt x="482" y="351" on="1"/>
        <pt x="481" y="1227" on="1"/>
        <pt x="481" y="1257" on="0"/>
        <pt x="457" y="1290" on="0"/>
        <pt x="418" y="1290" on="1"/>
        <pt x="372" y="1290" on="0"/>
        <pt x="306" y="1314" on="0"/>
        <pt x="306" y="1338" on="1"/>
        <pt x="306" y="1389" on="0"/>
        <pt x="332" y="1482" on="0"/>
        <pt x="359" y="1498" on="1"/>
        <pt x="461" y="1490" on="0"/>
        <pt x="598" y="1490" on="1"/>
        <pt x="741" y="1490" on="0"/>
        <pt x="845" y="1498" on="1"/>
        <pt x="888" y="1468" on="0"/>
        <pt x="888" y="1338" on="1"/>
        <pt x="888" y="1314" on="0"/>
        <pt x="822" y="1290" on="0"/>
        <pt x="776" y="1290" on="1"/>
        <pt x="754" y="1290" on="0"/>
        <pt x="726" y="1279" on="0"/>
        <pt x="715" y="1257" on="0"/>
        <pt x="712" y="1240" on="0"/>
        <pt x="712" y="1225" on="1"/>
        <pt x="712" y="375" on="1"/>
        <pt x="712" y="299" on="0"/>
        <pt x="698" y="177" on="0"/>
        <pt x="655" y="52" on="0"/>
        <pt x="583" y="-32" on="0"/>
        <pt x="459" y="-85" on="0"/>
        <pt x="376" y="-85" on="1"/>
        <pt x="324" y="-85" on="0"/>
        <pt x="220" y="-63" on="0"/>
        <pt x="120" y="-15" on="0"/>
        <pt x="57" y="74" on="0"/>
        <pt x="57" y="134" on="1"/>
        <pt x="57" y="177" on="0"/>
        <pt x="129" y="229" on="0"/>
        <pt x="176" y="229" on="1"/>
        <pt x="214" y="229" on="0"/>
        <pt x="259" y="204" on="0"/>
        <pt x="278" y="168" on="0"/>
        <pt x="295" y="131" on="0"/>
        <pt x="334" y="106" on="0"/>
        <pt x="368" y="106" on="1"/>
        <pt x="405" y="106" on="0"/>
        <pt x="452" y="141" on="0"/>
        <pt x="475" y="214" on="0"/>
        <pt x="482" y="291" on="0"/>
      </contour>
    </TTGlyph>
    <TTGlyph name="Jcircumflex" xMin="57" yMin="-85" xMax="976" yMax="2090">
      <component glyphName="circumflex" x="127" y="465" flags="0x1004"/>
      <component glyphName="J" x="0" y="0" flags="0x1204"/>
    </TTGlyph>
    <TTGlyph name="K" xMin="60" yMin="-27" xMax="1566" yMax="1503">
      <contour>
        <pt x="113" y="1503" on="1"/>
        <pt x="279" y="1490" on="0"/>
        <pt x="352" y="1490" on="1"/>
        <pt x="430" y="1490" on="0"/>
        <pt x="599" y="1503" on="1"/>
        <pt x="621" y="1487" on="0"/>
        <pt x="642" y="1390" on="0"/>
        <pt x="642" y="1338" on="1"/>
        <pt x="642" y="1314" on="0"/>
        <pt x="576" y="1290" on="0"/>
        <pt x="530" y="1290" on="1"/>
        <pt x="508" y="1290" on="0"/>
        <pt x="480" y="1279" on="0"/>
        <pt x="469" y="1257" on="0"/>
        <pt x="466" y="1240" on="0"/>
        <pt x="466" y="1225" on="1"/>
        <pt x="466" y="792" on="1"/>
        <pt x="1025" y="1227" on="1"/>
        <pt x="1047" y="1244" on="0"/>
        <pt x="1047" y="1258" on="1"/>
        <pt x="1047" y="1278" on="0"/>
        <pt x="1017" y="1294" on="0"/>
        <pt x="982" y="1293" on="0"/>
        <pt x="952" y="1305" on="0"/>
        <pt x="952" y="1321" on="1"/>
        <pt x="952" y="1333" on="0"/>
        <pt x="969" y="1398" on="1"/>
        <pt x="974" y="1411" on="0"/>
        <pt x="998" y="1494" on="0"/>
        <pt x="1005" y="1503" on="1"/>
        <pt x="1179" y="1490" on="0"/>
        <pt x="1259" y="1490" on="1"/>
        <pt x="1326" y="1490" on="0"/>
        <pt x="1511" y="1503" on="1"/>
        <pt x="1528" y="1481" on="0"/>
        <pt x="1541" y="1375" on="0"/>
        <pt x="1541" y="1338" on="1"/>
        <pt x="1541" y="1313" on="0"/>
        <pt x="1492" y="1290" on="0"/>
        <pt x="1465" y="1290" on="1"/>
        <pt x="1427" y="1290" on="0"/>
        <pt x="1369" y="1273" on="0"/>
        <pt x="1340" y="1255" on="0"/>
        <pt x="1320" y="1238" on="1"/>
        <pt x="786" y="793" on="1"/>
        <pt x="849" y="715" on="0"/>
        <pt x="983" y="527" on="0"/>
        <pt x="1061" y="411" on="0"/>
        <pt x="1161" y="290" on="0"/>
        <pt x="1248" y="224" on="0"/>
        <pt x="1369" y="182" on="0"/>
        <pt x="1444" y="182" on="1"/>
        <pt x="1566" y="182" on="0"/>
        <pt x="1566" y="156" on="1"/>
        <pt x="1566" y="119" on="1"/>
        <pt x="1566" y="85" on="0"/>
        <pt x="1557" y="43" on="0"/>
        <pt x="1525" y="-4" on="0"/>
        <pt x="1451" y="-27" on="0"/>
        <pt x="1393" y="-27" on="1"/>
        <pt x="1297" y="-27" on="0"/>
        <pt x="1151" y="5" on="0"/>
        <pt x="1039" y="76" on="0"/>
        <pt x="957" y="160" on="0"/>
        <pt x="870" y="294" on="0"/>
        <pt x="797" y="422" on="0"/>
        <pt x="680" y="611" on="0"/>
        <pt x="621" y="693" on="1"/>
        <pt x="466" y="576" on="1"/>
        <pt x="466" y="265" on="1"/>
        <pt x="466" y="250" on="0"/>
        <pt x="469" y="233" on="0"/>
        <pt x="480" y="211" on="0"/>
        <pt x="508" y="200" on="0"/>
        <pt x="530" y="200" on="1"/>
        <pt x="576" y="200" on="0"/>
        <pt x="642" y="176" on="0"/>
        <pt x="642" y="152" on="1"/>
        <pt x="642" y="100" on="0"/>
        <pt x="621" y="5" on="0"/>
        <pt x="599" y="-11" on="1"/>
        <pt x="456" y="0" on="0"/>
        <pt x="352" y="0" on="1"/>
        <pt x="254" y="0" on="0"/>
        <pt x="113" y="-11" on="1"/>
        <pt x="86" y="5" on="0"/>
        <pt x="60" y="101" on="0"/>
        <pt x="60" y="152" on="1"/>
        <pt x="60" y="176" on="0"/>
        <pt x="126" y="200" on="0"/>
        <pt x="172" y="200" on="1"/>
        <pt x="211" y="200" on="0"/>
        <pt x="235" y="233" on="0"/>
        <pt x="235" y="263" on="1"/>
        <pt x="235" y="1229" on="1"/>
        <pt x="235" y="1259" on="0"/>
        <pt x="211" y="1292" on="0"/>
        <pt x="172" y="1292" on="1"/>
        <pt x="60" y="1292" on="0"/>
        <pt x="60" y="1344" on="1"/>
        <pt x="60" y="1393" on="0"/>
        <pt x="86" y="1488" on="0"/>
      </contour>
    </TTGlyph>
    <TTGlyph name="Kcommaaccent" xMin="60" yMin="-636" xMax="1566" yMax="1503">
      <component glyphName="uni0326" x="533" y="-17" flags="0x1004"/>
      <component glyphName="K" x="0" y="0" flags="0x1204"/>
    </TTGlyph>
    <TTGlyph name="L" xMin="69" yMin="-11" xMax="1276" yMax="1503">
      <contour>
        <pt x="122" y="1503" on="1"/>
        <pt x="170" y="1490" on="0"/>
        <pt x="360" y="1490" on="1"/>
        <pt x="527" y="1490" on="0"/>
        <pt x="578" y="1503" on="1"/>
        <pt x="605" y="1488" on="0"/>
        <pt x="631" y="1405" on="0"/>
        <pt x="631" y="1359" on="1"/>
        <pt x="631" y="1335" on="0"/>
        <pt x="577" y="1311" on="0"/>
        <pt x="539" y="1311" on="1"/>
        <pt x="517" y="1311" on="0"/>
        <pt x="489" y="1300" on="0"/>
        <pt x="478" y="1278" on="0"/>
        <pt x="475" y="1261" on="0"/>
        <pt x="475" y="1246" on="1"/>
        <pt x="475" y="214" on="1"/>
        <pt x="475" y="179" on="0"/>
        <pt x="489" y="179" on="1"/>
        <pt x="579" y="179" on="0"/>
        <pt x="888" y="178" on="0"/>
        <pt x="954" y="178" on="1"/>
        <pt x="967" y="201" on="0"/>
        <pt x="1037" y="393" on="0"/>
        <pt x="1107" y="537" on="0"/>
        <pt x="1133" y="537" on="1"/>
        <pt x="1171" y="537" on="0"/>
        <pt x="1230" y="517" on="0"/>
        <pt x="1261" y="488" on="0"/>
        <pt x="1276" y="463" on="0"/>
        <pt x="1276" y="456" on="1"/>
        <pt x="1276" y="415" on="0"/>
        <pt x="1107" y="4" on="0"/>
        <pt x="1078" y="-11" on="1"/>
        <pt x="805" y="0" on="0"/>
        <pt x="577" y="0" on="1"/>
        <pt x="364" y="0" on="0"/>
        <pt x="122" y="-11" on="1"/>
        <pt x="95" y="5" on="0"/>
        <pt x="69" y="101" on="0"/>
        <pt x="69" y="152" on="1"/>
        <pt x="69" y="176" on="0"/>
        <pt x="135" y="200" on="0"/>
        <pt x="181" y="200" on="1"/>
        <pt x="220" y="200" on="0"/>
        <pt x="244" y="233" on="0"/>
        <pt x="244" y="263" on="1"/>
        <pt x="244" y="1229" on="1"/>
        <pt x="244" y="1259" on="0"/>
        <pt x="220" y="1292" on="0"/>
        <pt x="181" y="1292" on="1"/>
        <pt x="69" y="1292" on="0"/>
        <pt x="69" y="1344" on="1"/>
        <pt x="69" y="1393" on="0"/>
        <pt x="95" y="1488" on="0"/>
      </contour>
    </TTGlyph>
    <TTGlyph name="Lacute" xMin="69" yMin="-11" xMax="1276" yMax="2090">
      <component glyphName="acute" x="294" y="465" flags="0x1004"/>
      <component glyphName="L" x="0" y="0" flags="0x1204"/>
    </TTGlyph>
    <TTGlyph name="Lcommaaccent" xMin="69" yMin="-620" xMax="1276" yMax="1503">
      <component glyphName="uni0326" x="292" y="-1" flags="0x1004"/>
      <component glyphName="L" x="0" y="0" flags="0x1204"/>
    </TTGlyph>
    <TTGlyph name="Ldot" xMin="69" yMin="-11" xMax="1276" yMax="1503">
      <component glyphName="periodcentered" x="616" y="-182" flags="0x1004"/>
      <component glyphName="L" x="0" y="0" flags="0x1204"/>
    </TTGlyph>
    <TTGlyph name="Lslash" xMin="93" yMin="-11" xMax="1300" yMax="1503">
      <contour>
        <pt x="146" y="1503" on="1"/>
        <pt x="194" y="1490" on="0"/>
        <pt x="384" y="1490" on="1"/>
        <pt x="551" y="1490" on="0"/>
        <pt x="602" y="1503" on="1"/>
        <pt x="629" y="1488" on="0"/>
        <pt x="655" y="1405" on="0"/>
        <pt x="655" y="1359" on="1"/>
        <pt x="655" y="1335" on="0"/>
        <pt x="601" y="1311" on="0"/>
        <pt x="563" y="1311" on="1"/>
        <pt x="541" y="1311" on="0"/>
        <pt x="513" y="1300" on="0"/>
        <pt x="502" y="1278" on="0"/>
        <pt x="499" y="1261" on="0"/>
        <pt x="499" y="1246" on="1"/>
        <pt x="499" y="910" on="1"/>
        <pt x="642" y="968" on="0"/>
        <pt x="754" y="1015" on="1"/>
        <pt x="781" y="1026" on="0"/>
        <pt x="798" y="1026" on="1"/>
        <pt x="823" y="1026" on="0"/>
        <pt x="868" y="925" on="0"/>
        <pt x="868" y="898" on="1"/>
        <pt x="868" y="872" on="0"/>
        <pt x="838" y="859" on="1"/>
        <pt x="686" y="797" on="0"/>
        <pt x="499" y="718" on="1"/>
        <pt x="499" y="214" on="1"/>
        <pt x="499" y="179" on="0"/>
        <pt x="513" y="179" on="1"/>
        <pt x="603" y="179" on="0"/>
        <pt x="912" y="178" on="0"/>
        <pt x="978" y="178" on="1"/>
        <pt x="991" y="201" on="0"/>
        <pt x="1061" y="393" on="0"/>
        <pt x="1131" y="537" on="0"/>
        <pt x="1157" y="537" on="1"/>
        <pt x="1195" y="537" on="0"/>
        <pt x="1254" y="517" on="0"/>
        <pt x="1285" y="488" on="0"/>
        <pt x="1300" y="463" on="0"/>
        <pt x="1300" y="456" on="1"/>
        <pt x="1300" y="415" on="0"/>
        <pt x="1131" y="4" on="0"/>
        <pt x="1102" y="-11" on="1"/>
        <pt x="829" y="0" on="0"/>
        <pt x="601" y="0" on="1"/>
        <pt x="388" y="0" on="0"/>
        <pt x="146" y="-11" on="1"/>
        <pt x="119" y="5" on="0"/>
        <pt x="93" y="101" on="0"/>
        <pt x="93" y="152" on="1"/>
        <pt x="93" y="176" on="0"/>
        <pt x="159" y="200" on="0"/>
        <pt x="205" y="200" on="1"/>
        <pt x="244" y="200" on="0"/>
        <pt x="268" y="233" on="0"/>
        <pt x="268" y="263" on="1"/>
        <pt x="268" y="624" on="1"/>
        <pt x="218" y="604" on="0"/>
        <pt x="208" y="599" on="1"/>
        <pt x="184" y="588" on="0"/>
        <pt x="170" y="588" on="1"/>
        <pt x="145" y="588" on="0"/>
        <pt x="96" y="671" on="0"/>
        <pt x="96" y="745" on="0"/>
        <pt x="146" y="766" on="1"/>
        <pt x="167" y="775" on="0"/>
        <pt x="249" y="808" on="0"/>
        <pt x="268" y="816" on="1"/>
        <pt x="268" y="1229" on="1"/>
        <pt x="268" y="1259" on="0"/>
        <pt x="244" y="1292" on="0"/>
        <pt x="205" y="1292" on="1"/>
        <pt x="93" y="1292" on="0"/>
        <pt x="93" y="1344" on="1"/>
        <pt x="93" y="1393" on="0"/>
        <pt x="119" y="1488" on="0"/>
      </contour>
    </TTGlyph>
    <TTGlyph name="M" xMin="69" yMin="-11" xMax="1950" yMax="1503">
      <contour>
        <pt x="122" y="1503" on="1"/>
        <pt x="139" y="1502" on="0"/>
        <pt x="216" y="1494" on="0"/>
        <pt x="280" y="1490" on="0"/>
        <pt x="320" y="1490" on="1"/>
        <pt x="359" y="1490" on="0"/>
        <pt x="474" y="1497" on="0"/>
        <pt x="486" y="1497" on="1"/>
        <pt x="489" y="1497" on="0"/>
        <pt x="497" y="1496" on="0"/>
        <pt x="498" y="1496" on="1"/>
        <pt x="503" y="1495" on="0"/>
        <pt x="549" y="1404" on="0"/>
        <pt x="630" y="1226" on="0"/>
        <pt x="711" y="1048" on="0"/>
        <pt x="826" y="787" on="0"/>
        <pt x="899" y="619" on="0"/>
        <pt x="1007" y="372" on="0"/>
        <pt x="1021" y="339" on="1"/>
        <pt x="1139" y="627" on="0"/>
        <pt x="1520" y="1493" on="0"/>
        <pt x="1536" y="1496" on="1"/>
        <pt x="1542" y="1497" on="0"/>
        <pt x="1548" y="1497" on="1"/>
        <pt x="1558" y="1497" on="0"/>
        <pt x="1664" y="1490" on="0"/>
        <pt x="1699" y="1490" on="1"/>
        <pt x="1838" y="1490" on="0"/>
        <pt x="1907" y="1503" on="1"/>
        <pt x="1950" y="1472" on="0"/>
        <pt x="1950" y="1335" on="1"/>
        <pt x="1950" y="1311" on="0"/>
        <pt x="1884" y="1287" on="0"/>
        <pt x="1838" y="1287" on="1"/>
        <pt x="1799" y="1287" on="0"/>
        <pt x="1775" y="1254" on="0"/>
        <pt x="1775" y="1224" on="1"/>
        <pt x="1775" y="261" on="1"/>
        <pt x="1775" y="231" on="0"/>
        <pt x="1799" y="198" on="0"/>
        <pt x="1838" y="198" on="1"/>
        <pt x="1884" y="198" on="0"/>
        <pt x="1950" y="174" on="0"/>
        <pt x="1950" y="150" on="1"/>
        <pt x="1950" y="100" on="0"/>
        <pt x="1924" y="5" on="0"/>
        <pt x="1897" y="-11" on="1"/>
        <pt x="1763" y="0" on="0"/>
        <pt x="1668" y="0" on="1"/>
        <pt x="1559" y="0" on="0"/>
        <pt x="1416" y="-11" on="1"/>
        <pt x="1394" y="5" on="0"/>
        <pt x="1373" y="101" on="0"/>
        <pt x="1373" y="152" on="1"/>
        <pt x="1373" y="176" on="0"/>
        <pt x="1439" y="200" on="0"/>
        <pt x="1485" y="200" on="1"/>
        <pt x="1507" y="200" on="0"/>
        <pt x="1535" y="211" on="0"/>
        <pt x="1546" y="233" on="0"/>
        <pt x="1549" y="250" on="0"/>
        <pt x="1549" y="265" on="1"/>
        <pt x="1549" y="1146" on="1"/>
        <pt x="1549" y="1147" on="0"/>
        <pt x="1455" y="929" on="0"/>
        <pt x="1321" y="617" on="0"/>
        <pt x="1187" y="305" on="0"/>
        <pt x="1140" y="196" on="1"/>
        <pt x="1093" y="86" on="1"/>
        <pt x="1093" y="84" on="0"/>
        <pt x="1061" y="59" on="0"/>
        <pt x="1007" y="33" on="0"/>
        <pt x="985" y="33" on="1"/>
        <pt x="933" y="33" on="0"/>
        <pt x="898" y="111" on="1"/>
        <pt x="885" y="139" on="0"/>
        <pt x="780" y="379" on="0"/>
        <pt x="652" y="670" on="0"/>
        <pt x="526" y="956" on="0"/>
        <pt x="441" y="1147" on="0"/>
        <pt x="441" y="1146" on="1"/>
        <pt x="441" y="265" on="1"/>
        <pt x="441" y="250" on="0"/>
        <pt x="444" y="233" on="0"/>
        <pt x="455" y="211" on="0"/>
        <pt x="483" y="200" on="0"/>
        <pt x="505" y="200" on="1"/>
        <pt x="551" y="200" on="0"/>
        <pt x="617" y="176" on="0"/>
        <pt x="617" y="152" on="1"/>
        <pt x="617" y="101" on="0"/>
        <pt x="596" y="5" on="0"/>
        <pt x="574" y="-11" on="1"/>
        <pt x="451" y="0" on="0"/>
        <pt x="351" y="0" on="1"/>
        <pt x="256" y="0" on="0"/>
        <pt x="122" y="-11" on="1"/>
        <pt x="95" y="5" on="0"/>
        <pt x="69" y="101" on="0"/>
        <pt x="69" y="152" on="1"/>
        <pt x="69" y="176" on="0"/>
        <pt x="135" y="200" on="0"/>
        <pt x="181" y="200" on="1"/>
        <pt x="220" y="200" on="0"/>
        <pt x="244" y="233" on="0"/>
        <pt x="244" y="263" on="1"/>
        <pt x="244" y="1229" on="1"/>
        <pt x="244" y="1259" on="0"/>
        <pt x="220" y="1292" on="0"/>
        <pt x="181" y="1292" on="1"/>
        <pt x="69" y="1292" on="0"/>
        <pt x="69" y="1344" on="1"/>
        <pt x="69" y="1393" on="0"/>
        <pt x="95" y="1488" on="0"/>
      </contour>
    </TTGlyph>
    <TTGlyph name="N" xMin="69" yMin="-37" xMax="1646" yMax="1503">
      <contour>
        <pt x="122" y="1503" on="1"/>
        <pt x="139" y="1502" on="0"/>
        <pt x="216" y="1494" on="0"/>
        <pt x="280" y="1490" on="0"/>
        <pt x="320" y="1490" on="1"/>
        <pt x="352" y="1490" on="0"/>
        <pt x="446" y="1497" on="0"/>
        <pt x="456" y="1497" on="1"/>
        <pt x="459" y="1497" on="0"/>
        <pt x="467" y="1496" on="0"/>
        <pt x="468" y="1496" on="1"/>
        <pt x="485" y="1495" on="0"/>
        <pt x="705" y="1213" on="0"/>
        <pt x="1018" y="781" on="0"/>
        <pt x="1190" y="539" on="0"/>
        <pt x="1259" y="442" on="1"/>
        <pt x="1259" y="1226" on="1"/>
        <pt x="1259" y="1256" on="0"/>
        <pt x="1235" y="1289" on="0"/>
        <pt x="1196" y="1289" on="1"/>
        <pt x="1150" y="1289" on="0"/>
        <pt x="1084" y="1313" on="0"/>
        <pt x="1084" y="1337" on="1"/>
        <pt x="1084" y="1388" on="0"/>
        <pt x="1105" y="1481" on="0"/>
        <pt x="1127" y="1497" on="1"/>
        <pt x="1217" y="1490" on="0"/>
        <pt x="1366" y="1490" on="1"/>
        <pt x="1516" y="1490" on="0"/>
        <pt x="1603" y="1497" on="1"/>
        <pt x="1625" y="1481" on="0"/>
        <pt x="1646" y="1388" on="0"/>
        <pt x="1646" y="1337" on="1"/>
        <pt x="1646" y="1313" on="0"/>
        <pt x="1580" y="1289" on="0"/>
        <pt x="1534" y="1289" on="1"/>
        <pt x="1512" y="1289" on="0"/>
        <pt x="1484" y="1278" on="0"/>
        <pt x="1473" y="1256" on="0"/>
        <pt x="1470" y="1239" on="0"/>
        <pt x="1470" y="1224" on="1"/>
        <pt x="1470" y="414" on="1"/>
        <pt x="1470" y="345" on="0"/>
        <pt x="1483" y="42" on="0"/>
        <pt x="1483" y="14" on="1"/>
        <pt x="1432" y="-37" on="0"/>
        <pt x="1375" y="-37" on="1"/>
        <pt x="1363" y="-37" on="0"/>
        <pt x="1342" y="-29" on="0"/>
        <pt x="1324" y="-10" on="0"/>
        <pt x="1313" y="3" on="0"/>
        <pt x="1293" y="34" on="0"/>
        <pt x="1288" y="41" on="1"/>
        <pt x="1197" y="169" on="0"/>
        <pt x="455" y="1198" on="0"/>
        <pt x="455" y="1196" on="1"/>
        <pt x="455" y="265" on="1"/>
        <pt x="455" y="250" on="0"/>
        <pt x="458" y="233" on="0"/>
        <pt x="469" y="211" on="0"/>
        <pt x="497" y="200" on="0"/>
        <pt x="519" y="200" on="1"/>
        <pt x="565" y="200" on="0"/>
        <pt x="631" y="176" on="0"/>
        <pt x="631" y="152" on="1"/>
        <pt x="631" y="101" on="0"/>
        <pt x="610" y="5" on="0"/>
        <pt x="588" y="-11" on="1"/>
        <pt x="452" y="0" on="0"/>
        <pt x="351" y="0" on="1"/>
        <pt x="256" y="0" on="0"/>
        <pt x="122" y="-11" on="1"/>
        <pt x="95" y="5" on="0"/>
        <pt x="69" y="101" on="0"/>
        <pt x="69" y="152" on="1"/>
        <pt x="69" y="176" on="0"/>
        <pt x="135" y="200" on="0"/>
        <pt x="181" y="200" on="1"/>
        <pt x="220" y="200" on="0"/>
        <pt x="244" y="233" on="0"/>
        <pt x="244" y="263" on="1"/>
        <pt x="244" y="1229" on="1"/>
        <pt x="244" y="1259" on="0"/>
        <pt x="220" y="1292" on="0"/>
        <pt x="181" y="1292" on="1"/>
        <pt x="69" y="1292" on="0"/>
        <pt x="69" y="1344" on="1"/>
        <pt x="69" y="1393" on="0"/>
        <pt x="95" y="1488" on="0"/>
      </contour>
    </TTGlyph>
    <TTGlyph name="Nacute" xMin="69" yMin="-37" xMax="1646" yMax="2090">
      <component glyphName="acute" x="597" y="465" flags="0x1004"/>
      <component glyphName="N" x="0" y="0" flags="0x1204"/>
    </TTGlyph>
    <TTGlyph name="Ncaron" xMin="69" yMin="-37" xMax="1646" yMax="2090">
      <component glyphName="caron" x="426" y="465" flags="0x1004"/>
      <component glyphName="N" x="0" y="0" flags="0x1204"/>
    </TTGlyph>
    <TTGlyph name="Ncommaaccent" xMin="69" yMin="-646" xMax="1646" yMax="1503">
      <component glyphName="uni0326" x="628" y="-27" flags="0x1004"/>
      <component glyphName="N" x="0" y="0" flags="0x1204"/>
    </TTGlyph>
    <TTGlyph name="Ntilde" xMin="69" yMin="-37" xMax="1646" yMax="1873">
      <component glyphName="tilde" x="372" y="389" flags="0x1004"/>
      <component glyphName="N" x="0" y="0" flags="0x1204"/>
    </TTGlyph>
    <TTGlyph name="O" xMin="57" yMin="-27" xMax="1577" yMax="1512">
      <contour>
        <pt x="964" y="-27" on="0"/>
        <pt x="670" y="-27" on="0"/>
        <pt x="420" y="60" on="0"/>
        <pt x="243" y="209" on="0"/>
        <pt x="117" y="407" on="0"/>
        <pt x="57" y="630" on="0"/>
        <pt x="57" y="864" on="0"/>
        <pt x="117" y="1085" on="0"/>
        <pt x="242" y="1280" on="0"/>
        <pt x="419" y="1427" on="0"/>
        <pt x="670" y="1512" on="0"/>
        <pt x="964" y="1512" on="0"/>
        <pt x="1215" y="1427" on="0"/>
        <pt x="1392" y="1280" on="0"/>
        <pt x="1517" y="1085" on="0"/>
        <pt x="1577" y="864" on="0"/>
        <pt x="1577" y="630" on="0"/>
        <pt x="1517" y="407" on="0"/>
        <pt x="1391" y="209" on="0"/>
        <pt x="1214" y="60" on="0"/>
      </contour>
      <contour>
        <pt x="719" y="153" on="0"/>
        <pt x="915" y="153" on="0"/>
        <pt x="1081" y="220" on="0"/>
        <pt x="1199" y="333" on="0"/>
        <pt x="1282" y="484" on="0"/>
        <pt x="1322" y="653" on="0"/>
        <pt x="1322" y="743" on="1"/>
        <pt x="1322" y="856" on="0"/>
        <pt x="1257" y="1064" on="0"/>
        <pt x="1135" y="1232" on="0"/>
        <pt x="938" y="1333" on="0"/>
        <pt x="696" y="1333" on="0"/>
        <pt x="499" y="1232" on="0"/>
        <pt x="377" y="1064" on="0"/>
        <pt x="312" y="856" on="0"/>
        <pt x="312" y="743" on="1"/>
        <pt x="312" y="653" on="0"/>
        <pt x="352" y="484" on="0"/>
        <pt x="435" y="333" on="0"/>
        <pt x="553" y="220" on="0"/>
      </contour>
    </TTGlyph>
    <TTGlyph name="OE" xMin="116" yMin="-27" xMax="2463" yMax="1512">
      <contour>
        <pt x="1757" y="1490" on="1"/>
        <pt x="1852" y="1490" on="0"/>
        <pt x="2058" y="1495" on="0"/>
        <pt x="2240" y="1503" on="0"/>
        <pt x="2259" y="1503" on="1"/>
        <pt x="2280" y="1488" on="0"/>
        <pt x="2393" y="1110" on="0"/>
        <pt x="2393" y="1073" on="1"/>
        <pt x="2393" y="1066" on="0"/>
        <pt x="2378" y="1041" on="0"/>
        <pt x="2347" y="1012" on="0"/>
        <pt x="2288" y="992" on="0"/>
        <pt x="2250" y="992" on="1"/>
        <pt x="2232" y="992" on="0"/>
        <pt x="2186" y="1120" on="0"/>
        <pt x="2140" y="1290" on="0"/>
        <pt x="2131" y="1311" on="1"/>
        <pt x="2061" y="1311" on="0"/>
        <pt x="1732" y="1310" on="0"/>
        <pt x="1636" y="1310" on="1"/>
        <pt x="1621" y="1310" on="0"/>
        <pt x="1605" y="1288" on="0"/>
        <pt x="1602" y="1265" on="0"/>
        <pt x="1602" y="1246" on="1"/>
        <pt x="1602" y="869" on="1"/>
        <pt x="1660" y="889" on="0"/>
        <pt x="1831" y="921" on="0"/>
        <pt x="1902" y="921" on="1"/>
        <pt x="1962" y="921" on="0"/>
        <pt x="2034" y="860" on="0"/>
        <pt x="2034" y="793" on="1"/>
        <pt x="2034" y="737" on="0"/>
        <pt x="1957" y="662" on="0"/>
        <pt x="1905" y="662" on="1"/>
        <pt x="1833" y="753" on="0"/>
        <pt x="1699" y="753" on="1"/>
        <pt x="1660" y="753" on="0"/>
        <pt x="1602" y="746" on="1"/>
        <pt x="1602" y="244" on="1"/>
        <pt x="1602" y="224" on="0"/>
        <pt x="1605" y="201" on="0"/>
        <pt x="1621" y="179" on="0"/>
        <pt x="1636" y="179" on="1"/>
        <pt x="1739" y="179" on="0"/>
        <pt x="2087" y="178" on="0"/>
        <pt x="2161" y="178" on="1"/>
        <pt x="2173" y="201" on="0"/>
        <pt x="2235" y="393" on="0"/>
        <pt x="2297" y="537" on="0"/>
        <pt x="2320" y="537" on="1"/>
        <pt x="2358" y="537" on="0"/>
        <pt x="2417" y="517" on="0"/>
        <pt x="2448" y="488" on="0"/>
        <pt x="2463" y="463" on="0"/>
        <pt x="2463" y="456" on="1"/>
        <pt x="2463" y="415" on="0"/>
        <pt x="2311" y="-11" on="0"/>
        <pt x="2285" y="-26" on="1"/>
        <pt x="2005" y="0" on="0"/>
        <pt x="1757" y="0" on="1"/>
        <pt x="1615" y="0" on="0"/>
        <pt x="1031" y="-27" on="0"/>
        <pt x="876" y="-27" on="1"/>
        <pt x="729" y="-27" on="0"/>
        <pt x="479" y="60" on="0"/>
        <pt x="302" y="209" on="0"/>
        <pt x="176" y="407" on="0"/>
        <pt x="116" y="630" on="0"/>
        <pt x="116" y="864" on="0"/>
        <pt x="176" y="1085" on="0"/>
        <pt x="301" y="1280" on="0"/>
        <pt x="478" y="1427" on="0"/>
        <pt x="729" y="1512" on="0"/>
        <pt x="876" y="1512" on="1"/>
        <pt x="1130" y="1512" on="0"/>
        <pt x="1562" y="1490" on="0"/>
      </contour>
      <contour>
        <pt x="876" y="153" on="1"/>
        <pt x="1364" y="153" on="0"/>
        <pt x="1371" y="163" on="1"/>
        <pt x="1371" y="1323" on="1"/>
        <pt x="1371" y="1333" on="0"/>
        <pt x="876" y="1333" on="1"/>
        <pt x="755" y="1333" on="0"/>
        <pt x="558" y="1232" on="0"/>
        <pt x="436" y="1064" on="0"/>
        <pt x="371" y="856" on="0"/>
        <pt x="371" y="743" on="1"/>
        <pt x="371" y="653" on="0"/>
        <pt x="411" y="484" on="0"/>
        <pt x="494" y="333" on="0"/>
        <pt x="612" y="220" on="0"/>
        <pt x="778" y="153" on="0"/>
      </contour>
    </TTGlyph>
    <TTGlyph name="Oacute" xMin="57" yMin="-27" xMax="1577" yMax="2090">
      <component glyphName="acute" x="718" y="465" flags="0x1004"/>
      <component glyphName="O" x="0" y="0" flags="0x1204"/>
    </TTGlyph>
    <TTGlyph name="Obreve" xMin="57" yMin="-27" xMax="1577" yMax="1895">
      <component glyphName="breve" x="265" y="380" flags="0x1004"/>
      <component glyphName="O" x="0" y="0" flags="0x1204"/>
    </TTGlyph>
    <TTGlyph name="Ocircumflex" xMin="57" yMin="-27" xMax="1577" yMax="2090">
      <component glyphName="circumflex" x="357" y="465" flags="0x1004"/>
      <component glyphName="O" x="0" y="0" flags="0x1204"/>
    </TTGlyph>
    <TTGlyph name="Odieresis" xMin="57" yMin="-27" xMax="1577" yMax="1886">
      <component glyphName="dieresis" x="330" y="378" flags="0x1004"/>
      <component glyphName="O" x="0" y="0" flags="0x1204"/>
    </TTGlyph>
    <TTGlyph name="Ograve" xMin="57" yMin="-27" xMax="1577" yMax="2090">
      <component glyphName="grave" x="260" y="465" flags="0x1004"/>
      <component glyphName="O" x="0" y="0" flags="0x1204"/>
    </TTGlyph>
    <TTGlyph name="Ohungarumlaut" xMin="57" yMin="-27" xMax="1577" yMax="2090">
      <component glyphName="hungarumlaut" x="380" y="465" flags="0x1004"/>
      <component glyphName="O" x="0" y="0" flags="0x1204"/>
    </TTGlyph>
    <TTGlyph name="Omacron" xMin="57" yMin="-27" xMax="1577" yMax="1763">
      <component glyphName="macron" x="434" y="371" flags="0x1004"/>
      <component glyphName="O" x="0" y="0" flags="0x1204"/>
    </TTGlyph>
    <TTGlyph name="Oslash" xMin="116" yMin="-160" xMax="1636" yMax="1648">
      <contour>
        <pt x="876" y="153" on="1"/>
        <pt x="974" y="153" on="0"/>
        <pt x="1140" y="220" on="0"/>
        <pt x="1258" y="333" on="0"/>
        <pt x="1341" y="484" on="0"/>
        <pt x="1381" y="653" on="0"/>
        <pt x="1381" y="743" on="1"/>
        <pt x="1381" y="867" on="0"/>
        <pt x="1304" y="1095" on="0"/>
        <pt x="1230" y="1178" on="1"/>
        <pt x="919" y="669" on="0"/>
        <pt x="637" y="214" on="1"/>
        <pt x="745" y="153" on="0"/>
      </contour>
      <contour>
        <pt x="401" y="126" on="1"/>
        <pt x="263" y="234" on="0"/>
        <pt x="116" y="565" on="0"/>
        <pt x="116" y="747" on="1"/>
        <pt x="116" y="864" on="0"/>
        <pt x="176" y="1085" on="0"/>
        <pt x="301" y="1280" on="0"/>
        <pt x="478" y="1427" on="0"/>
        <pt x="729" y="1512" on="0"/>
        <pt x="876" y="1512" on="1"/>
        <pt x="1071" y="1512" on="0"/>
        <pt x="1227" y="1438" on="1"/>
        <pt x="1330" y="1605" on="0"/>
        <pt x="1339" y="1621" on="1"/>
        <pt x="1348" y="1647" on="0"/>
        <pt x="1387" y="1647" on="1"/>
        <pt x="1388" y="1647" on="0"/>
        <pt x="1402" y="1648" on="0"/>
        <pt x="1407" y="1648" on="1"/>
        <pt x="1475" y="1648" on="0"/>
        <pt x="1475" y="1608" on="1"/>
        <pt x="1475" y="1582" on="0"/>
        <pt x="1460" y="1556" on="1"/>
        <pt x="1443" y="1529" on="0"/>
        <pt x="1345" y="1367" on="1"/>
        <pt x="1487" y="1260" on="0"/>
        <pt x="1636" y="931" on="0"/>
        <pt x="1636" y="747" on="1"/>
        <pt x="1636" y="630" on="0"/>
        <pt x="1576" y="407" on="0"/>
        <pt x="1450" y="209" on="0"/>
        <pt x="1273" y="60" on="0"/>
        <pt x="1023" y="-27" on="0"/>
        <pt x="876" y="-27" on="1"/>
        <pt x="685" y="-27" on="0"/>
        <pt x="532" y="45" on="1"/>
        <pt x="475" y="-47" on="0"/>
        <pt x="431" y="-113" on="1"/>
        <pt x="404" y="-160" on="0"/>
        <pt x="340" y="-160" on="1"/>
        <pt x="297" y="-160" on="0"/>
        <pt x="262" y="-126" on="0"/>
        <pt x="262" y="-91" on="1"/>
        <pt x="262" y="-82" on="0"/>
        <pt x="279" y="-58" on="0"/>
        <pt x="311" y="-20" on="0"/>
        <pt x="321" y="-3" on="1"/>
        <pt x="341" y="30" on="0"/>
      </contour>
      <contour>
        <pt x="1121" y="1269" on="1"/>
        <pt x="1015" y="1333" on="0"/>
        <pt x="876" y="1333" on="1"/>
        <pt x="755" y="1333" on="0"/>
        <pt x="558" y="1232" on="0"/>
        <pt x="436" y="1064" on="0"/>
        <pt x="371" y="856" on="0"/>
        <pt x="371" y="743" on="1"/>
        <pt x="371" y="621" on="0"/>
        <pt x="446" y="396" on="0"/>
        <pt x="518" y="313" on="1"/>
        <pt x="573" y="400" on="0"/>
        <pt x="1018" y="1105" on="0"/>
      </contour>
    </TTGlyph>
    <TTGlyph name="Otilde" xMin="57" yMin="-27" xMax="1577" yMax="1873">
      <component glyphName="tilde" x="317" y="389" flags="0x1004"/>
      <component glyphName="O" x="0" y="0" flags="0x1204"/>
    </TTGlyph>
    <TTGlyph name="P" xMin="69" yMin="-11" xMax="1411" yMax="1506">
      <contour>
        <pt x="244" y="263" on="1"/>
        <pt x="244" y="1229" on="1"/>
        <pt x="244" y="1259" on="0"/>
        <pt x="220" y="1292" on="0"/>
        <pt x="181" y="1292" on="1"/>
        <pt x="69" y="1292" on="0"/>
        <pt x="69" y="1344" on="1"/>
        <pt x="69" y="1393" on="0"/>
        <pt x="95" y="1488" on="0"/>
        <pt x="122" y="1503" on="1"/>
        <pt x="254" y="1490" on="0"/>
        <pt x="490" y="1490" on="1"/>
        <pt x="573" y="1490" on="0"/>
        <pt x="822" y="1506" on="0"/>
        <pt x="861" y="1506" on="1"/>
        <pt x="969" y="1506" on="0"/>
        <pt x="1151" y="1454" on="0"/>
        <pt x="1279" y="1365" on="0"/>
        <pt x="1368" y="1245" on="0"/>
        <pt x="1411" y="1112" on="0"/>
        <pt x="1411" y="1041" on="1"/>
        <pt x="1411" y="953" on="0"/>
        <pt x="1340" y="792" on="0"/>
        <pt x="1207" y="662" on="0"/>
        <pt x="993" y="584" on="0"/>
        <pt x="861" y="584" on="1"/>
        <pt x="475" y="584" on="1"/>
        <pt x="475" y="265" on="1"/>
        <pt x="475" y="250" on="0"/>
        <pt x="478" y="233" on="0"/>
        <pt x="489" y="211" on="0"/>
        <pt x="517" y="200" on="0"/>
        <pt x="539" y="200" on="1"/>
        <pt x="585" y="200" on="0"/>
        <pt x="651" y="176" on="0"/>
        <pt x="651" y="152" on="1"/>
        <pt x="651" y="100" on="0"/>
        <pt x="630" y="5" on="0"/>
        <pt x="608" y="-11" on="1"/>
        <pt x="465" y="0" on="0"/>
        <pt x="361" y="0" on="1"/>
        <pt x="263" y="0" on="0"/>
        <pt x="122" y="-11" on="1"/>
        <pt x="95" y="5" on="0"/>
        <pt x="69" y="101" on="0"/>
        <pt x="69" y="152" on="1"/>
        <pt x="69" y="176" on="0"/>
        <pt x="135" y="200" on="0"/>
        <pt x="181" y="200" on="1"/>
        <pt x="220" y="200" on="0"/>
        <pt x="244" y="233" on="0"/>
      </contour>
      <contour>
        <pt x="475" y="753" on="1"/>
        <pt x="861" y="753" on="1"/>
        <pt x="1010" y="753" on="0"/>
        <pt x="1180" y="920" on="0"/>
        <pt x="1180" y="1034" on="1"/>
        <pt x="1180" y="1151" on="0"/>
        <pt x="1013" y="1322" on="0"/>
        <pt x="861" y="1322" on="1"/>
        <pt x="475" y="1322" on="1"/>
      </contour>
    </TTGlyph>
    <TTGlyph name="Q" xMin="55" yMin="-350" xMax="1575" yMax="1512">
      <contour>
        <pt x="1028" y="14" on="1"/>
        <pt x="1049" y="-97" on="0"/>
        <pt x="1141" y="-203" on="0"/>
        <pt x="1238" y="-203" on="1"/>
        <pt x="1312" y="-203" on="0"/>
        <pt x="1421" y="-172" on="1"/>
        <pt x="1426" y="-219" on="0"/>
        <pt x="1426" y="-243" on="1"/>
        <pt x="1426" y="-277" on="0"/>
        <pt x="1411" y="-287" on="1"/>
        <pt x="1305" y="-350" on="0"/>
        <pt x="1192" y="-350" on="1"/>
        <pt x="1060" y="-350" on="0"/>
        <pt x="883" y="-175" on="0"/>
        <pt x="883" y="-11" on="1"/>
      </contour>
      <contour>
        <pt x="962" y="-27" on="0"/>
        <pt x="668" y="-27" on="0"/>
        <pt x="418" y="60" on="0"/>
        <pt x="241" y="209" on="0"/>
        <pt x="115" y="407" on="0"/>
        <pt x="55" y="630" on="0"/>
        <pt x="55" y="864" on="0"/>
        <pt x="115" y="1085" on="0"/>
        <pt x="240" y="1280" on="0"/>
        <pt x="417" y="1427" on="0"/>
        <pt x="668" y="1512" on="0"/>
        <pt x="962" y="1512" on="0"/>
        <pt x="1213" y="1427" on="0"/>
        <pt x="1390" y="1280" on="0"/>
        <pt x="1515" y="1085" on="0"/>
        <pt x="1575" y="864" on="0"/>
        <pt x="1575" y="630" on="0"/>
        <pt x="1515" y="407" on="0"/>
        <pt x="1389" y="209" on="0"/>
        <pt x="1212" y="60" on="0"/>
      </contour>
      <contour>
        <pt x="717" y="153" on="0"/>
        <pt x="913" y="153" on="0"/>
        <pt x="1079" y="220" on="0"/>
        <pt x="1197" y="333" on="0"/>
        <pt x="1280" y="484" on="0"/>
        <pt x="1320" y="653" on="0"/>
        <pt x="1320" y="743" on="1"/>
        <pt x="1320" y="856" on="0"/>
        <pt x="1255" y="1064" on="0"/>
        <pt x="1133" y="1232" on="0"/>
        <pt x="936" y="1333" on="0"/>
        <pt x="694" y="1333" on="0"/>
        <pt x="497" y="1232" on="0"/>
        <pt x="375" y="1064" on="0"/>
        <pt x="310" y="856" on="0"/>
        <pt x="310" y="743" on="1"/>
        <pt x="310" y="653" on="0"/>
        <pt x="350" y="484" on="0"/>
        <pt x="433" y="333" on="0"/>
        <pt x="551" y="220" on="0"/>
      </contour>
    </TTGlyph>
    <TTGlyph name="R" xMin="60" yMin="-19" xMax="1530" yMax="1506">
      <contour>
        <pt x="466" y="843" on="1"/>
        <pt x="882" y="843" on="1"/>
        <pt x="1007" y="843" on="0"/>
        <pt x="1151" y="981" on="0"/>
        <pt x="1151" y="1074" on="1"/>
        <pt x="1151" y="1175" on="0"/>
        <pt x="1000" y="1322" on="0"/>
        <pt x="862" y="1322" on="1"/>
        <pt x="466" y="1322" on="1"/>
      </contour>
      <contour>
        <pt x="113" y="1503" on="1"/>
        <pt x="245" y="1490" on="0"/>
        <pt x="481" y="1490" on="1"/>
        <pt x="566" y="1490" on="0"/>
        <pt x="821" y="1506" on="0"/>
        <pt x="862" y="1506" on="1"/>
        <pt x="988" y="1506" on="0"/>
        <pt x="1191" y="1433" on="0"/>
        <pt x="1316" y="1312" on="0"/>
        <pt x="1382" y="1162" on="0"/>
        <pt x="1382" y="1081" on="1"/>
        <pt x="1382" y="1030" on="0"/>
        <pt x="1351" y="927" on="0"/>
        <pt x="1285" y="832" on="0"/>
        <pt x="1194" y="757" on="0"/>
        <pt x="1063" y="708" on="0"/>
        <pt x="988" y="705" on="1"/>
        <pt x="1064" y="680" on="0"/>
        <pt x="1172" y="555" on="0"/>
        <pt x="1227" y="414" on="0"/>
        <pt x="1274" y="279" on="0"/>
        <pt x="1340" y="190" on="0"/>
        <pt x="1388" y="190" on="1"/>
        <pt x="1530" y="190" on="0"/>
        <pt x="1530" y="164" on="1"/>
        <pt x="1530" y="127" on="1"/>
        <pt x="1530" y="93" on="0"/>
        <pt x="1520" y="51" on="0"/>
        <pt x="1484" y="4" on="0"/>
        <pt x="1402" y="-19" on="0"/>
        <pt x="1337" y="-19" on="1"/>
        <pt x="1273" y="-19" on="0"/>
        <pt x="1176" y="24" on="0"/>
        <pt x="1113" y="97" on="0"/>
        <pt x="1065" y="193" on="0"/>
        <pt x="1026" y="301" on="0"/>
        <pt x="987" y="411" on="0"/>
        <pt x="932" y="516" on="0"/>
        <pt x="861" y="601" on="0"/>
        <pt x="750" y="663" on="0"/>
        <pt x="678" y="674" on="1"/>
        <pt x="466" y="674" on="1"/>
        <pt x="466" y="265" on="1"/>
        <pt x="466" y="250" on="0"/>
        <pt x="469" y="233" on="0"/>
        <pt x="480" y="211" on="0"/>
        <pt x="508" y="200" on="0"/>
        <pt x="530" y="200" on="1"/>
        <pt x="576" y="200" on="0"/>
        <pt x="642" y="176" on="0"/>
        <pt x="642" y="152" on="1"/>
        <pt x="642" y="19" on="0"/>
        <pt x="609" y="-11" on="1"/>
        <pt x="459" y="0" on="0"/>
        <pt x="352" y="0" on="1"/>
        <pt x="260" y="0" on="0"/>
        <pt x="113" y="-11" on="1"/>
        <pt x="86" y="5" on="0"/>
        <pt x="60" y="101" on="0"/>
        <pt x="60" y="152" on="1"/>
        <pt x="60" y="176" on="0"/>
        <pt x="126" y="200" on="0"/>
        <pt x="172" y="200" on="1"/>
        <pt x="211" y="200" on="0"/>
        <pt x="235" y="233" on="0"/>
        <pt x="235" y="263" on="1"/>
        <pt x="235" y="1229" on="1"/>
        <pt x="235" y="1259" on="0"/>
        <pt x="211" y="1292" on="0"/>
        <pt x="172" y="1292" on="1"/>
        <pt x="60" y="1292" on="0"/>
        <pt x="60" y="1344" on="1"/>
        <pt x="60" y="1393" on="0"/>
        <pt x="86" y="1488" on="0"/>
      </contour>
    </TTGlyph>
    <TTGlyph name="Racute" xMin="60" yMin="-19" xMax="1530" yMax="2090">
      <component glyphName="acute" x="598" y="465" flags="0x1004"/>
      <component glyphName="R" x="0" y="0" flags="0x1204"/>
    </TTGlyph>
    <TTGlyph name="Rcaron" xMin="60" yMin="-19" xMax="1530" yMax="2090">
      <component glyphName="caron" x="267" y="465" flags="0x1004"/>
      <component glyphName="R" x="0" y="0" flags="0x1204"/>
    </TTGlyph>
    <TTGlyph name="Rcommaaccent" xMin="60" yMin="-628" xMax="1530" yMax="1506">
      <component glyphName="uni0326" x="516" y="-9" flags="0x1004"/>
      <component glyphName="R" x="0" y="0" flags="0x1204"/>
    </TTGlyph>
    <TTGlyph name="S" xMin="53" yMin="-27" xMax="1251" yMax="1512">
      <contour>
        <pt x="249" y="-11" on="1"/>
        <pt x="152" y="-11" on="1"/>
        <pt x="87" y="272" on="0"/>
        <pt x="87" y="416" on="1"/>
        <pt x="87" y="439" on="0"/>
        <pt x="177" y="469" on="0"/>
        <pt x="226" y="469" on="1"/>
        <pt x="246" y="469" on="0"/>
        <pt x="258" y="466" on="1"/>
        <pt x="290" y="385" on="0"/>
        <pt x="404" y="259" on="0"/>
        <pt x="539" y="187" on="0"/>
        <pt x="674" y="150" on="0"/>
        <pt x="737" y="150" on="1"/>
        <pt x="852" y="150" on="0"/>
        <pt x="997" y="253" on="0"/>
        <pt x="997" y="353" on="1"/>
        <pt x="997" y="420" on="0"/>
        <pt x="932" y="521" on="0"/>
        <pt x="823" y="584" on="0"/>
        <pt x="682" y="632" on="0"/>
        <pt x="525" y="674" on="0"/>
        <pt x="368" y="720" on="0"/>
        <pt x="227" y="790" on="0"/>
        <pt x="118" y="883" on="0"/>
        <pt x="53" y="1031" on="0"/>
        <pt x="53" y="1127" on="1"/>
        <pt x="53" y="1250" on="0"/>
        <pt x="205" y="1429" on="0"/>
        <pt x="436" y="1512" on="0"/>
        <pt x="572" y="1512" on="1"/>
        <pt x="784" y="1512" on="0"/>
        <pt x="932" y="1406" on="1"/>
        <pt x="942" y="1426" on="0"/>
        <pt x="953" y="1464" on="0"/>
        <pt x="953" y="1478" on="0"/>
        <pt x="970" y="1490" on="0"/>
        <pt x="996" y="1491" on="0"/>
        <pt x="1030" y="1491" on="1"/>
        <pt x="1060" y="1491" on="0"/>
        <pt x="1125" y="1486" on="1"/>
        <pt x="1188" y="1207" on="0"/>
        <pt x="1188" y="1089" on="1"/>
        <pt x="1188" y="1073" on="0"/>
        <pt x="1083" y="1053" on="0"/>
        <pt x="1033" y="1053" on="1"/>
        <pt x="1008" y="1053" on="1"/>
        <pt x="971" y="1184" on="0"/>
        <pt x="751" y="1353" on="0"/>
        <pt x="584" y="1353" on="1"/>
        <pt x="443" y="1353" on="0"/>
        <pt x="301" y="1241" on="0"/>
        <pt x="301" y="1144" on="1"/>
        <pt x="301" y="1087" on="0"/>
        <pt x="366" y="999" on="0"/>
        <pt x="476" y="942" on="0"/>
        <pt x="618" y="896" on="0"/>
        <pt x="776" y="852" on="0"/>
        <pt x="934" y="802" on="0"/>
        <pt x="1076" y="728" on="0"/>
        <pt x="1186" y="632" on="0"/>
        <pt x="1251" y="483" on="0"/>
        <pt x="1251" y="389" on="1"/>
        <pt x="1251" y="282" on="0"/>
        <pt x="1167" y="117" on="0"/>
        <pt x="1022" y="21" on="0"/>
        <pt x="843" y="-27" on="0"/>
        <pt x="740" y="-27" on="1"/>
        <pt x="630" y="-27" on="0"/>
        <pt x="413" y="47" on="0"/>
        <pt x="325" y="113" on="1"/>
        <pt x="308" y="14" on="1"/>
        <pt x="306" y="5" on="0"/>
        <pt x="299" y="-4" on="0"/>
        <pt x="273" y="-11" on="0"/>
      </contour>
    </TTGlyph>
    <TTGlyph name="Sacute" xMin="53" yMin="-27" xMax="1251" yMax="2090">
      <component glyphName="acute" x="474" y="465" flags="0x1004"/>
      <component glyphName="S" x="0" y="0" flags="0x1204"/>
    </TTGlyph>
    <TTGlyph name="Scaron" xMin="53" yMin="-27" xMax="1251" yMax="2090">
      <component glyphName="caron" x="151" y="465" flags="0x1004"/>
      <component glyphName="S" x="0" y="0" flags="0x1204"/>
    </TTGlyph>
    <TTGlyph name="Scedilla" xMin="53" yMin="-516" xMax="1251" yMax="1512">
      <component glyphName="cedilla" x="581" y="-21" flags="0x1004"/>
      <component glyphName="S" x="0" y="0" flags="0x1204"/>
    </TTGlyph>
    <TTGlyph name="T" xMin="6" yMin="-11" xMax="1319" yMax="1506">
      <contour>
        <pt x="547" y="263" on="1"/>
        <pt x="547" y="1296" on="1"/>
        <pt x="547" y="1307" on="0"/>
        <pt x="545" y="1319" on="0"/>
        <pt x="534" y="1331" on="0"/>
        <pt x="523" y="1331" on="1"/>
        <pt x="476" y="1331" on="0"/>
        <pt x="297" y="1332" on="0"/>
        <pt x="258" y="1332" on="1"/>
        <pt x="249" y="1312" on="0"/>
        <pt x="208" y="1153" on="0"/>
        <pt x="166" y="1033" on="0"/>
        <pt x="149" y="1033" on="1"/>
        <pt x="111" y="1033" on="0"/>
        <pt x="52" y="1053" on="0"/>
        <pt x="21" y="1082" on="0"/>
        <pt x="6" y="1107" on="0"/>
        <pt x="6" y="1114" on="1"/>
        <pt x="6" y="1148" on="0"/>
        <pt x="80" y="1492" on="0"/>
        <pt x="94" y="1506" on="1"/>
        <pt x="97" y="1506" on="0"/>
        <pt x="103" y="1505" on="0"/>
        <pt x="106" y="1505" on="1"/>
        <pt x="403" y="1480" on="0"/>
        <pt x="663" y="1480" on="1"/>
        <pt x="922" y="1480" on="0"/>
        <pt x="1219" y="1505" on="1"/>
        <pt x="1222" y="1505" on="0"/>
        <pt x="1228" y="1506" on="0"/>
        <pt x="1231" y="1506" on="1"/>
        <pt x="1245" y="1492" on="0"/>
        <pt x="1319" y="1148" on="0"/>
        <pt x="1319" y="1114" on="1"/>
        <pt x="1319" y="1107" on="0"/>
        <pt x="1304" y="1082" on="0"/>
        <pt x="1273" y="1053" on="0"/>
        <pt x="1214" y="1033" on="0"/>
        <pt x="1176" y="1033" on="1"/>
        <pt x="1159" y="1033" on="0"/>
        <pt x="1117" y="1153" on="0"/>
        <pt x="1076" y="1312" on="0"/>
        <pt x="1067" y="1332" on="1"/>
        <pt x="1028" y="1332" on="0"/>
        <pt x="849" y="1331" on="0"/>
        <pt x="802" y="1331" on="1"/>
        <pt x="786" y="1331" on="0"/>
        <pt x="778" y="1313" on="0"/>
        <pt x="778" y="1296" on="1"/>
        <pt x="778" y="265" on="1"/>
        <pt x="778" y="250" on="0"/>
        <pt x="781" y="233" on="0"/>
        <pt x="792" y="211" on="0"/>
        <pt x="820" y="200" on="0"/>
        <pt x="842" y="200" on="1"/>
        <pt x="888" y="200" on="0"/>
        <pt x="954" y="176" on="0"/>
        <pt x="954" y="152" on="1"/>
        <pt x="954" y="19" on="0"/>
        <pt x="921" y="-11" on="1"/>
        <pt x="771" y="0" on="0"/>
        <pt x="664" y="0" on="1"/>
        <pt x="559" y="0" on="0"/>
        <pt x="405" y="-11" on="1"/>
        <pt x="372" y="19" on="0"/>
        <pt x="372" y="152" on="1"/>
        <pt x="372" y="176" on="0"/>
        <pt x="438" y="200" on="0"/>
        <pt x="484" y="200" on="1"/>
        <pt x="523" y="200" on="0"/>
        <pt x="547" y="233" on="0"/>
      </contour>
    </TTGlyph>
    <TTGlyph name="Tcaron" xMin="6" yMin="-11" xMax="1319" yMax="2090">
      <component glyphName="caron" x="203" y="465" flags="0x1004"/>
      <component glyphName="T" x="0" y="0" flags="0x1204"/>
    </TTGlyph>
    <TTGlyph name="Thorn" xMin="93" yMin="-8" xMax="1395" yMax="1498">
      <contour>
        <pt x="268" y="263" on="1"/>
        <pt x="268" y="1227" on="1"/>
        <pt x="268" y="1257" on="0"/>
        <pt x="244" y="1290" on="0"/>
        <pt x="205" y="1290" on="1"/>
        <pt x="159" y="1290" on="0"/>
        <pt x="93" y="1314" on="0"/>
        <pt x="93" y="1338" on="1"/>
        <pt x="93" y="1389" on="0"/>
        <pt x="119" y="1482" on="0"/>
        <pt x="146" y="1498" on="1"/>
        <pt x="248" y="1490" on="0"/>
        <pt x="385" y="1490" on="1"/>
        <pt x="528" y="1490" on="0"/>
        <pt x="632" y="1498" on="1"/>
        <pt x="675" y="1468" on="0"/>
        <pt x="675" y="1338" on="1"/>
        <pt x="675" y="1314" on="0"/>
        <pt x="609" y="1290" on="0"/>
        <pt x="563" y="1290" on="1"/>
        <pt x="524" y="1290" on="0"/>
        <pt x="499" y="1260" on="0"/>
        <pt x="499" y="1234" on="1"/>
        <pt x="499" y="1210" on="1"/>
        <pt x="915" y="1210" on="1"/>
        <pt x="1031" y="1210" on="0"/>
        <pt x="1218" y="1141" on="0"/>
        <pt x="1334" y="1027" on="0"/>
        <pt x="1395" y="887" on="0"/>
        <pt x="1395" y="735" on="0"/>
        <pt x="1332" y="595" on="0"/>
        <pt x="1216" y="482" on="0"/>
        <pt x="1029" y="414" on="0"/>
        <pt x="915" y="414" on="1"/>
        <pt x="499" y="414" on="1"/>
        <pt x="499" y="265" on="1"/>
        <pt x="499" y="250" on="0"/>
        <pt x="502" y="233" on="0"/>
        <pt x="513" y="211" on="0"/>
        <pt x="541" y="200" on="0"/>
        <pt x="563" y="200" on="1"/>
        <pt x="609" y="200" on="0"/>
        <pt x="675" y="176" on="0"/>
        <pt x="675" y="152" on="1"/>
        <pt x="675" y="22" on="0"/>
        <pt x="632" y="-8" on="1"/>
        <pt x="528" y="0" on="0"/>
        <pt x="385" y="0" on="1"/>
        <pt x="248" y="0" on="0"/>
        <pt x="146" y="-8" on="1"/>
        <pt x="119" y="8" on="0"/>
        <pt x="93" y="101" on="0"/>
        <pt x="93" y="152" on="1"/>
        <pt x="93" y="176" on="0"/>
        <pt x="159" y="200" on="0"/>
        <pt x="205" y="200" on="1"/>
        <pt x="244" y="200" on="0"/>
        <pt x="268" y="233" on="0"/>
      </contour>
      <contour>
        <pt x="499" y="583" on="1"/>
        <pt x="915" y="583" on="1"/>
        <pt x="1030" y="583" on="0"/>
        <pt x="1164" y="715" on="0"/>
        <pt x="1164" y="804" on="1"/>
        <pt x="1164" y="900" on="0"/>
        <pt x="1033" y="1042" on="0"/>
        <pt x="915" y="1042" on="1"/>
        <pt x="499" y="1042" on="1"/>
      </contour>
    </TTGlyph>
    <TTGlyph name="U" xMin="60" yMin="-27" xMax="1776" yMax="1498">
      <contour>
        <pt x="810" y="153" on="0"/>
        <pt x="1026" y="153" on="0"/>
        <pt x="1202" y="214" on="0"/>
        <pt x="1311" y="317" on="0"/>
        <pt x="1369" y="444" on="0"/>
        <pt x="1369" y="513" on="1"/>
        <pt x="1369" y="1227" on="1"/>
        <pt x="1369" y="1257" on="0"/>
        <pt x="1345" y="1290" on="0"/>
        <pt x="1306" y="1290" on="1"/>
        <pt x="1260" y="1290" on="0"/>
        <pt x="1194" y="1314" on="0"/>
        <pt x="1194" y="1338" on="1"/>
        <pt x="1194" y="1389" on="0"/>
        <pt x="1220" y="1482" on="0"/>
        <pt x="1247" y="1498" on="1"/>
        <pt x="1349" y="1490" on="0"/>
        <pt x="1486" y="1490" on="1"/>
        <pt x="1629" y="1490" on="0"/>
        <pt x="1733" y="1498" on="1"/>
        <pt x="1776" y="1468" on="0"/>
        <pt x="1776" y="1338" on="1"/>
        <pt x="1776" y="1314" on="0"/>
        <pt x="1710" y="1290" on="0"/>
        <pt x="1664" y="1290" on="1"/>
        <pt x="1642" y="1290" on="0"/>
        <pt x="1614" y="1279" on="0"/>
        <pt x="1603" y="1257" on="0"/>
        <pt x="1600" y="1240" on="0"/>
        <pt x="1600" y="1225" on="1"/>
        <pt x="1600" y="517" on="1"/>
        <pt x="1600" y="414" on="0"/>
        <pt x="1511" y="221" on="0"/>
        <pt x="1345" y="66" on="0"/>
        <pt x="1080" y="-27" on="0"/>
        <pt x="756" y="-27" on="0"/>
        <pt x="491" y="66" on="0"/>
        <pt x="325" y="221" on="0"/>
        <pt x="236" y="414" on="0"/>
        <pt x="236" y="517" on="1"/>
        <pt x="236" y="1225" on="1"/>
        <pt x="236" y="1240" on="0"/>
        <pt x="233" y="1257" on="0"/>
        <pt x="222" y="1279" on="0"/>
        <pt x="194" y="1290" on="0"/>
        <pt x="172" y="1290" on="1"/>
        <pt x="126" y="1290" on="0"/>
        <pt x="60" y="1314" on="0"/>
        <pt x="60" y="1338" on="1"/>
        <pt x="60" y="1468" on="0"/>
        <pt x="103" y="1498" on="1"/>
        <pt x="207" y="1490" on="0"/>
        <pt x="350" y="1490" on="1"/>
        <pt x="487" y="1490" on="0"/>
        <pt x="589" y="1498" on="1"/>
        <pt x="616" y="1482" on="0"/>
        <pt x="642" y="1389" on="0"/>
        <pt x="642" y="1338" on="1"/>
        <pt x="642" y="1314" on="0"/>
        <pt x="576" y="1290" on="0"/>
        <pt x="530" y="1290" on="1"/>
        <pt x="491" y="1290" on="0"/>
        <pt x="467" y="1257" on="0"/>
        <pt x="467" y="1227" on="1"/>
        <pt x="467" y="513" on="1"/>
        <pt x="467" y="444" on="0"/>
        <pt x="525" y="317" on="0"/>
        <pt x="634" y="214" on="0"/>
      </contour>
    </TTGlyph>
    <TTGlyph name="Uacute" xMin="60" yMin="-27" xMax="1776" yMax="2090">
      <component glyphName="acute" x="819" y="465" flags="0x1004"/>
      <component glyphName="U" x="0" y="0" flags="0x1204"/>
    </TTGlyph>
    <TTGlyph name="Ubreve" xMin="60" yMin="-27" xMax="1776" yMax="1895">
      <component glyphName="breve" x="366" y="380" flags="0x1004"/>
      <component glyphName="U" x="0" y="0" flags="0x1204"/>
    </TTGlyph>
    <TTGlyph name="Ucircumflex" xMin="60" yMin="-27" xMax="1776" yMax="2090">
      <component glyphName="circumflex" x="458" y="465" flags="0x1004"/>
      <component glyphName="U" x="0" y="0" flags="0x1204"/>
    </TTGlyph>
    <TTGlyph name="Udieresis" xMin="60" yMin="-27" xMax="1776" yMax="1886">
      <component glyphName="dieresis" x="431" y="378" flags="0x1004"/>
      <component glyphName="U" x="0" y="0" flags="0x1204"/>
    </TTGlyph>
    <TTGlyph name="Ugrave" xMin="60" yMin="-27" xMax="1776" yMax="2090">
      <component glyphName="grave" x="361" y="465" flags="0x1004"/>
      <component glyphName="U" x="0" y="0" flags="0x1204"/>
    </TTGlyph>
    <TTGlyph name="Uhungarumlaut" xMin="60" yMin="-27" xMax="1776" yMax="2090">
      <component glyphName="hungarumlaut" x="481" y="465" flags="0x1004"/>
      <component glyphName="U" x="0" y="0" flags="0x1204"/>
    </TTGlyph>
    <TTGlyph name="Umacron" xMin="60" yMin="-27" xMax="1776" yMax="1763">
      <component glyphName="macron" x="535" y="371" flags="0x1004"/>
      <component glyphName="U" x="0" y="0" flags="0x1204"/>
    </TTGlyph>
    <TTGlyph name="Uogonek" xMin="60" yMin="-465" xMax="1776" yMax="1498">
      <component glyphName="ogonek" x="670" y="-16" flags="0x1004"/>
      <component glyphName="U" x="0" y="0" flags="0x1204"/>
    </TTGlyph>
    <TTGlyph name="Uring" xMin="60" yMin="-27" xMax="1776" yMax="2064">
      <component glyphName="ring" x="596" y="428" flags="0x1004"/>
      <component glyphName="U" x="0" y="0" flags="0x1204"/>
    </TTGlyph>
    <TTGlyph name="V" xMin="8" yMin="-11" xMax="1631" yMax="1505">
      <contour>
        <pt x="464" y="1232" on="1"/>
        <pt x="717" y="515" on="0"/>
        <pt x="821" y="249" on="1"/>
        <pt x="930" y="519" on="0"/>
        <pt x="1185" y="1232" on="1"/>
        <pt x="1194" y="1245" on="0"/>
        <pt x="1194" y="1269" on="1"/>
        <pt x="1194" y="1289" on="0"/>
        <pt x="1122" y="1299" on="0"/>
        <pt x="1050" y="1313" on="0"/>
        <pt x="1050" y="1337" on="1"/>
        <pt x="1062" y="1471" on="0"/>
        <pt x="1077" y="1505" on="1"/>
        <pt x="1183" y="1497" on="0"/>
        <pt x="1334" y="1497" on="1"/>
        <pt x="1491" y="1497" on="0"/>
        <pt x="1614" y="1505" on="1"/>
        <pt x="1631" y="1494" on="0"/>
        <pt x="1631" y="1459" on="1"/>
        <pt x="1631" y="1415" on="0"/>
        <pt x="1615" y="1345" on="1"/>
        <pt x="1607" y="1321" on="0"/>
        <pt x="1539" y="1297" on="0"/>
        <pt x="1497" y="1297" on="1"/>
        <pt x="1459" y="1297" on="0"/>
        <pt x="1422" y="1264" on="0"/>
        <pt x="1410" y="1234" on="1"/>
        <pt x="1018" y="243" on="1"/>
        <pt x="1005" y="210" on="0"/>
        <pt x="975" y="132" on="0"/>
        <pt x="961" y="93" on="0"/>
        <pt x="940" y="46" on="0"/>
        <pt x="930" y="27" on="0"/>
        <pt x="907" y="3" on="0"/>
        <pt x="892" y="-3" on="0"/>
        <pt x="859" y="-10" on="0"/>
        <pt x="829" y="-11" on="0"/>
        <pt x="802" y="-11" on="1"/>
        <pt x="768" y="-11" on="0"/>
        <pt x="733" y="-10" on="0"/>
        <pt x="696" y="6" on="0"/>
        <pt x="683" y="18" on="0"/>
        <pt x="656" y="68" on="0"/>
        <pt x="644" y="106" on="0"/>
        <pt x="608" y="205" on="0"/>
        <pt x="593" y="245" on="1"/>
        <pt x="215" y="1234" on="1"/>
        <pt x="203" y="1264" on="0"/>
        <pt x="167" y="1297" on="0"/>
        <pt x="128" y="1297" on="1"/>
        <pt x="86" y="1297" on="0"/>
        <pt x="16" y="1321" on="0"/>
        <pt x="8" y="1345" on="1"/>
        <pt x="12" y="1415" on="0"/>
        <pt x="12" y="1459" on="1"/>
        <pt x="12" y="1494" on="0"/>
        <pt x="29" y="1505" on="1"/>
        <pt x="147" y="1497" on="0"/>
        <pt x="455" y="1497" on="0"/>
        <pt x="570" y="1505" on="1"/>
        <pt x="588" y="1465" on="0"/>
        <pt x="597" y="1337" on="1"/>
        <pt x="597" y="1313" on="0"/>
        <pt x="526" y="1299" on="0"/>
        <pt x="455" y="1289" on="0"/>
        <pt x="455" y="1269" on="1"/>
        <pt x="455" y="1255" on="0"/>
      </contour>
    </TTGlyph>
    <TTGlyph name="W" xMin="8" yMin="-11" xMax="2323" yMax="1505">
      <contour>
        <pt x="464" y="1232" on="1"/>
        <pt x="675" y="481" on="0"/>
        <pt x="741" y="282" on="1"/>
        <pt x="767" y="361" on="0"/>
        <pt x="1001" y="1168" on="0"/>
        <pt x="1015" y="1223" on="1"/>
        <pt x="1031" y="1269" on="0"/>
        <pt x="1039" y="1363" on="0"/>
        <pt x="1037" y="1409" on="0"/>
        <pt x="1060" y="1449" on="0"/>
        <pt x="1129" y="1462" on="0"/>
        <pt x="1201" y="1462" on="1"/>
        <pt x="1256" y="1462" on="0"/>
        <pt x="1310" y="1447" on="0"/>
        <pt x="1328" y="1406" on="0"/>
        <pt x="1328" y="1360" on="0"/>
        <pt x="1339" y="1271" on="0"/>
        <pt x="1355" y="1229" on="1"/>
        <pt x="1374" y="1164" on="0"/>
        <pt x="1635" y="309" on="0"/>
        <pt x="1643" y="282" on="1"/>
        <pt x="1666" y="365" on="0"/>
        <pt x="1877" y="1175" on="0"/>
        <pt x="1880" y="1192" on="1"/>
        <pt x="1881" y="1196" on="0"/>
        <pt x="1890" y="1233" on="0"/>
        <pt x="1896" y="1264" on="0"/>
        <pt x="1896" y="1269" on="1"/>
        <pt x="1896" y="1289" on="0"/>
        <pt x="1824" y="1299" on="0"/>
        <pt x="1752" y="1313" on="0"/>
        <pt x="1752" y="1337" on="1"/>
        <pt x="1764" y="1471" on="0"/>
        <pt x="1779" y="1505" on="1"/>
        <pt x="1880" y="1497" on="0"/>
        <pt x="2026" y="1497" on="1"/>
        <pt x="2183" y="1497" on="0"/>
        <pt x="2306" y="1505" on="1"/>
        <pt x="2323" y="1494" on="0"/>
        <pt x="2323" y="1459" on="1"/>
        <pt x="2323" y="1415" on="0"/>
        <pt x="2307" y="1345" on="1"/>
        <pt x="2299" y="1321" on="0"/>
        <pt x="2231" y="1297" on="0"/>
        <pt x="2189" y="1297" on="1"/>
        <pt x="2151" y="1297" on="0"/>
        <pt x="2114" y="1264" on="0"/>
        <pt x="2102" y="1234" on="1"/>
        <pt x="1840" y="243" on="1"/>
        <pt x="1826" y="189" on="0"/>
        <pt x="1810" y="129" on="0"/>
        <pt x="1786" y="65" on="0"/>
        <pt x="1774" y="37" on="0"/>
        <pt x="1745" y="6" on="0"/>
        <pt x="1730" y="-2" on="0"/>
        <pt x="1686" y="-11" on="0"/>
        <pt x="1657" y="-11" on="0"/>
        <pt x="1624" y="-11" on="1"/>
        <pt x="1594" y="-11" on="0"/>
        <pt x="1565" y="-11" on="0"/>
        <pt x="1526" y="-1" on="0"/>
        <pt x="1512" y="3" on="0"/>
        <pt x="1486" y="34" on="0"/>
        <pt x="1477" y="52" on="0"/>
        <pt x="1454" y="113" on="0"/>
        <pt x="1442" y="154" on="0"/>
        <pt x="1427" y="204" on="1"/>
        <pt x="1169" y="1080" on="1"/>
        <pt x="911" y="193" on="1"/>
        <pt x="894" y="136" on="0"/>
        <pt x="876" y="78" on="0"/>
        <pt x="848" y="24" on="0"/>
        <pt x="831" y="5" on="0"/>
        <pt x="786" y="-10" on="0"/>
        <pt x="752" y="-11" on="0"/>
        <pt x="712" y="-11" on="1"/>
        <pt x="685" y="-11" on="0"/>
        <pt x="657" y="-11" on="0"/>
        <pt x="623" y="-2" on="0"/>
        <pt x="608" y="3" on="0"/>
        <pt x="585" y="31" on="0"/>
        <pt x="576" y="48" on="0"/>
        <pt x="555" y="103" on="0"/>
        <pt x="544" y="141" on="0"/>
        <pt x="531" y="186" on="1"/>
        <pt x="527" y="196" on="0"/>
        <pt x="516" y="239" on="0"/>
        <pt x="513" y="248" on="1"/>
        <pt x="215" y="1234" on="1"/>
        <pt x="202" y="1265" on="0"/>
        <pt x="166" y="1297" on="0"/>
        <pt x="128" y="1297" on="1"/>
        <pt x="86" y="1297" on="0"/>
        <pt x="16" y="1321" on="0"/>
        <pt x="8" y="1345" on="1"/>
        <pt x="9" y="1358" on="0"/>
        <pt x="9" y="1421" on="0"/>
        <pt x="11" y="1459" on="0"/>
        <pt x="20" y="1499" on="0"/>
        <pt x="29" y="1505" on="1"/>
        <pt x="147" y="1497" on="0"/>
        <pt x="455" y="1497" on="0"/>
        <pt x="570" y="1505" on="1"/>
        <pt x="588" y="1465" on="0"/>
        <pt x="597" y="1337" on="1"/>
        <pt x="597" y="1313" on="0"/>
        <pt x="526" y="1299" on="0"/>
        <pt x="455" y="1289" on="0"/>
        <pt x="455" y="1269" on="1"/>
        <pt x="455" y="1255" on="0"/>
      </contour>
    </TTGlyph>
    <TTGlyph name="X" xMin="7" yMin="-11" xMax="1500" yMax="1505">
      <contour>
        <pt x="1024" y="265" on="1"/>
        <pt x="1012" y="282" on="0"/>
        <pt x="870" y="461" on="0"/>
        <pt x="805" y="542" on="1"/>
        <pt x="740" y="623" on="1"/>
        <pt x="609" y="462" on="0"/>
        <pt x="453" y="265" on="1"/>
        <pt x="444" y="252" on="0"/>
        <pt x="444" y="228" on="1"/>
        <pt x="444" y="208" on="0"/>
        <pt x="511" y="198" on="0"/>
        <pt x="578" y="184" on="0"/>
        <pt x="578" y="160" on="1"/>
        <pt x="566" y="22" on="0"/>
        <pt x="551" y="-11" on="1"/>
        <pt x="399" y="0" on="0"/>
        <pt x="294" y="0" on="1"/>
        <pt x="187" y="0" on="0"/>
        <pt x="24" y="-11" on="1"/>
        <pt x="7" y="0" on="0"/>
        <pt x="7" y="38" on="1"/>
        <pt x="7" y="82" on="0"/>
        <pt x="23" y="152" on="1"/>
        <pt x="29" y="176" on="0"/>
        <pt x="80" y="200" on="0"/>
        <pt x="111" y="200" on="1"/>
        <pt x="140" y="200" on="0"/>
        <pt x="182" y="215" on="0"/>
        <pt x="201" y="231" on="0"/>
        <pt x="216" y="248" on="1"/>
        <pt x="640" y="745" on="1"/>
        <pt x="224" y="1234" on="1"/>
        <pt x="171" y="1297" on="0"/>
        <pt x="87" y="1297" on="1"/>
        <pt x="56" y="1297" on="0"/>
        <pt x="24" y="1319" on="0"/>
        <pt x="17" y="1345" on="1"/>
        <pt x="21" y="1415" on="0"/>
        <pt x="21" y="1459" on="1"/>
        <pt x="21" y="1494" on="0"/>
        <pt x="38" y="1505" on="1"/>
        <pt x="166" y="1497" on="0"/>
        <pt x="330" y="1497" on="1"/>
        <pt x="479" y="1497" on="0"/>
        <pt x="589" y="1505" on="1"/>
        <pt x="598" y="1486" on="0"/>
        <pt x="616" y="1378" on="0"/>
        <pt x="616" y="1337" on="1"/>
        <pt x="616" y="1313" on="0"/>
        <pt x="542" y="1300" on="0"/>
        <pt x="468" y="1291" on="0"/>
        <pt x="468" y="1271" on="1"/>
        <pt x="468" y="1252" on="0"/>
        <pt x="483" y="1232" on="1"/>
        <pt x="496" y="1214" on="0"/>
        <pt x="637" y="1040" on="0"/>
        <pt x="702" y="962" on="1"/>
        <pt x="766" y="883" on="1"/>
        <pt x="897" y="1040" on="0"/>
        <pt x="1053" y="1231" on="1"/>
        <pt x="1062" y="1243" on="0"/>
        <pt x="1062" y="1268" on="1"/>
        <pt x="1062" y="1288" on="0"/>
        <pt x="995" y="1298" on="0"/>
        <pt x="928" y="1312" on="0"/>
        <pt x="928" y="1336" on="1"/>
        <pt x="940" y="1470" on="0"/>
        <pt x="955" y="1504" on="1"/>
        <pt x="1056" y="1496" on="0"/>
        <pt x="1192" y="1496" on="1"/>
        <pt x="1314" y="1496" on="0"/>
        <pt x="1462" y="1504" on="1"/>
        <pt x="1479" y="1493" on="0"/>
        <pt x="1479" y="1447" on="1"/>
        <pt x="1479" y="1376" on="0"/>
        <pt x="1471" y="1344" on="1"/>
        <pt x="1465" y="1318" on="0"/>
        <pt x="1426" y="1296" on="0"/>
        <pt x="1384" y="1296" on="1"/>
        <pt x="1312" y="1296" on="0"/>
        <pt x="1270" y="1248" on="1"/>
        <pt x="865" y="770" on="1"/>
        <pt x="1293" y="263" on="1"/>
        <pt x="1346" y="200" on="0"/>
        <pt x="1430" y="200" on="1"/>
        <pt x="1461" y="200" on="0"/>
        <pt x="1493" y="178" on="0"/>
        <pt x="1500" y="152" on="1"/>
        <pt x="1496" y="82" on="0"/>
        <pt x="1496" y="38" on="1"/>
        <pt x="1496" y="0" on="0"/>
        <pt x="1479" y="-11" on="1"/>
        <pt x="1316" y="0" on="0"/>
        <pt x="1207" y="0" on="1"/>
        <pt x="1090" y="0" on="0"/>
        <pt x="918" y="-11" on="1"/>
        <pt x="909" y="8" on="0"/>
        <pt x="891" y="118" on="0"/>
        <pt x="891" y="160" on="1"/>
        <pt x="891" y="184" on="0"/>
        <pt x="965" y="197" on="0"/>
        <pt x="1039" y="206" on="0"/>
        <pt x="1039" y="226" on="1"/>
        <pt x="1039" y="245" on="0"/>
      </contour>
    </TTGlyph>
    <TTGlyph name="Y" xMin="11" yMin="-11" xMax="1463" yMax="1505">
      <contour>
        <pt x="853" y="592" on="1"/>
        <pt x="852" y="265" on="1"/>
        <pt x="852" y="250" on="0"/>
        <pt x="855" y="233" on="0"/>
        <pt x="866" y="211" on="0"/>
        <pt x="894" y="200" on="0"/>
        <pt x="916" y="200" on="1"/>
        <pt x="962" y="200" on="0"/>
        <pt x="1028" y="176" on="0"/>
        <pt x="1028" y="152" on="1"/>
        <pt x="1028" y="19" on="0"/>
        <pt x="995" y="-11" on="1"/>
        <pt x="845" y="0" on="0"/>
        <pt x="738" y="0" on="1"/>
        <pt x="636" y="0" on="0"/>
        <pt x="489" y="-11" on="1"/>
        <pt x="467" y="5" on="0"/>
        <pt x="446" y="101" on="0"/>
        <pt x="446" y="152" on="1"/>
        <pt x="446" y="176" on="0"/>
        <pt x="512" y="200" on="0"/>
        <pt x="558" y="200" on="1"/>
        <pt x="597" y="200" on="0"/>
        <pt x="621" y="233" on="0"/>
        <pt x="621" y="263" on="1"/>
        <pt x="621" y="592" on="1"/>
        <pt x="244" y="1234" on="1"/>
        <pt x="206" y="1297" on="0"/>
        <pt x="143" y="1297" on="1"/>
        <pt x="101" y="1297" on="0"/>
        <pt x="29" y="1321" on="0"/>
        <pt x="15" y="1345" on="1"/>
        <pt x="15" y="1366" on="0"/>
        <pt x="11" y="1462" on="0"/>
        <pt x="11" y="1500" on="0"/>
        <pt x="20" y="1505" on="1"/>
        <pt x="146" y="1497" on="0"/>
        <pt x="302" y="1497" on="1"/>
        <pt x="456" y="1497" on="0"/>
        <pt x="557" y="1505" on="1"/>
        <pt x="560" y="1496" on="0"/>
        <pt x="582" y="1337" on="1"/>
        <pt x="582" y="1336" on="0"/>
        <pt x="583" y="1332" on="0"/>
        <pt x="583" y="1331" on="1"/>
        <pt x="583" y="1312" on="0"/>
        <pt x="518" y="1299" on="0"/>
        <pt x="452" y="1290" on="0"/>
        <pt x="452" y="1274" on="1"/>
        <pt x="452" y="1264" on="0"/>
        <pt x="470" y="1232" on="1"/>
        <pt x="714" y="807" on="1"/>
        <pt x="742" y="761" on="0"/>
        <pt x="747" y="758" on="1"/>
        <pt x="754" y="760" on="0"/>
        <pt x="779" y="807" on="1"/>
        <pt x="947" y="1103" on="0"/>
        <pt x="1024" y="1232" on="1"/>
        <pt x="1042" y="1262" on="0"/>
        <pt x="1042" y="1274" on="1"/>
        <pt x="1042" y="1290" on="0"/>
        <pt x="976" y="1299" on="0"/>
        <pt x="911" y="1312" on="0"/>
        <pt x="911" y="1331" on="1"/>
        <pt x="911" y="1332" on="0"/>
        <pt x="912" y="1336" on="0"/>
        <pt x="912" y="1337" on="1"/>
        <pt x="934" y="1496" on="0"/>
        <pt x="937" y="1505" on="1"/>
        <pt x="1031" y="1497" on="0"/>
        <pt x="1172" y="1497" on="1"/>
        <pt x="1328" y="1497" on="0"/>
        <pt x="1454" y="1505" on="1"/>
        <pt x="1463" y="1500" on="0"/>
        <pt x="1463" y="1481" on="1"/>
        <pt x="1463" y="1471" on="0"/>
        <pt x="1460" y="1459" on="1"/>
        <pt x="1460" y="1444" on="1"/>
        <pt x="1460" y="1434" on="0"/>
        <pt x="1461" y="1390" on="0"/>
        <pt x="1461" y="1379" on="1"/>
        <pt x="1461" y="1367" on="0"/>
        <pt x="1459" y="1345" on="1"/>
        <pt x="1445" y="1321" on="0"/>
        <pt x="1373" y="1297" on="0"/>
        <pt x="1331" y="1297" on="1"/>
        <pt x="1266" y="1297" on="0"/>
        <pt x="1230" y="1234" on="1"/>
      </contour>
    </TTGlyph>
    <TTGlyph name="Yacute" xMin="11" yMin="-11" xMax="1463" yMax="2090">
      <component glyphName="acute" x="638" y="465" flags="0x1004"/>
      <component glyphName="Y" x="0" y="0" flags="0x1204"/>
    </TTGlyph>
    <TTGlyph name="Ydieresis" xMin="11" yMin="-11" xMax="1463" yMax="1886">
      <component glyphName="dieresis" x="250" y="378" flags="0x1004"/>
      <component glyphName="Y" x="0" y="0" flags="0x1204"/>
    </TTGlyph>
    <TTGlyph name="Z" xMin="57" yMin="-11" xMax="1284" yMax="1503">
      <contour>
        <pt x="118" y="-11" on="1"/>
        <pt x="112" y="-9" on="0"/>
        <pt x="83" y="61" on="0"/>
        <pt x="57" y="165" on="0"/>
        <pt x="57" y="205" on="1"/>
        <pt x="57" y="215" on="0"/>
        <pt x="62" y="225" on="1"/>
        <pt x="154" y="348" on="0"/>
        <pt x="174" y="373" on="1"/>
        <pt x="914" y="1266" on="1"/>
        <pt x="940" y="1296" on="0"/>
        <pt x="940" y="1305" on="1"/>
        <pt x="940" y="1301" on="0"/>
        <pt x="334" y="1301" on="1"/>
        <pt x="328" y="1284" on="0"/>
        <pt x="291" y="1130" on="0"/>
        <pt x="255" y="1015" on="0"/>
        <pt x="243" y="1015" on="1"/>
        <pt x="189" y="1015" on="0"/>
        <pt x="71" y="1060" on="0"/>
        <pt x="71" y="1083" on="1"/>
        <pt x="71" y="1092" on="0"/>
        <pt x="72" y="1092" on="1"/>
        <pt x="85" y="1178" on="0"/>
        <pt x="147" y="1416" on="0"/>
        <pt x="181" y="1503" on="1"/>
        <pt x="437" y="1488" on="0"/>
        <pt x="821" y="1488" on="1"/>
        <pt x="957" y="1488" on="0"/>
        <pt x="1190" y="1503" on="1"/>
        <pt x="1206" y="1474" on="0"/>
        <pt x="1215" y="1408" on="0"/>
        <pt x="1215" y="1314" on="1"/>
        <pt x="1215" y="1305" on="0"/>
        <pt x="1201" y="1272" on="0"/>
        <pt x="1171" y="1225" on="0"/>
        <pt x="1142" y="1182" on="0"/>
        <pt x="1097" y="1121" on="0"/>
        <pt x="1067" y="1082" on="0"/>
        <pt x="1020" y="1021" on="0"/>
        <pt x="1012" y="1010" on="1"/>
        <pt x="890" y="856" on="0"/>
        <pt x="329" y="184" on="1"/>
        <pt x="363" y="191" on="0"/>
        <pt x="986" y="191" on="1"/>
        <pt x="989" y="200" on="0"/>
        <pt x="1039" y="393" on="0"/>
        <pt x="1076" y="503" on="0"/>
        <pt x="1087" y="503" on="1"/>
        <pt x="1144" y="503" on="0"/>
        <pt x="1284" y="463" on="0"/>
        <pt x="1284" y="433" on="1"/>
        <pt x="1281" y="386" on="0"/>
        <pt x="1175" y="38" on="0"/>
        <pt x="1150" y="-11" on="1"/>
        <pt x="952" y="0" on="0"/>
        <pt x="627" y="0" on="1"/>
        <pt x="298" y="0" on="0"/>
      </contour>
    </TTGlyph>
    <TTGlyph name="Zacute" xMin="57" yMin="-11" xMax="1284" yMax="2090">
      <component glyphName="acute" x="488" y="465" flags="0x1004"/>
      <component glyphName="Z" x="0" y="0" flags="0x1204"/>
    </TTGlyph>
    <TTGlyph name="Zcaron" xMin="57" yMin="-11" xMax="1284" yMax="2090">
      <component glyphName="caron" x="225" y="465" flags="0x1004"/>
      <component glyphName="Z" x="0" y="0" flags="0x1204"/>
    </TTGlyph>
    <TTGlyph name="Zdotaccent" xMin="57" yMin="-11" xMax="1284" yMax="1940">
      <component glyphName="dotaccent" x="395" y="414" flags="0x1004"/>
      <component glyphName="Z" x="0" y="0" flags="0x1204"/>
    </TTGlyph>
    <TTGlyph name="a" xMin="32" yMin="-27" xMax="1124" yMax="1095">
      <contour>
        <pt x="772" y="136" on="1"/>
        <pt x="699" y="59" on="0"/>
        <pt x="476" y="-27" on="0"/>
        <pt x="361" y="-27" on="1"/>
        <pt x="218" y="-27" on="0"/>
        <pt x="32" y="125" on="0"/>
        <pt x="32" y="269" on="1"/>
        <pt x="32" y="423" on="0"/>
        <pt x="181" y="501" on="1"/>
        <pt x="293" y="561" on="0"/>
        <pt x="565" y="605" on="1"/>
        <pt x="616" y="614" on="0"/>
        <pt x="731" y="631" on="1"/>
        <pt x="731" y="801" on="0"/>
        <pt x="645" y="929" on="0"/>
        <pt x="523" y="929" on="1"/>
        <pt x="434" y="929" on="0"/>
        <pt x="216" y="849" on="0"/>
        <pt x="151" y="778" on="1"/>
        <pt x="70" y="846" on="0"/>
        <pt x="70" y="911" on="1"/>
        <pt x="70" y="967" on="0"/>
        <pt x="224" y="1054" on="0"/>
        <pt x="433" y="1095" on="0"/>
        <pt x="538" y="1095" on="1"/>
        <pt x="637" y="1095" on="0"/>
        <pt x="786" y="1046" on="0"/>
        <pt x="900" y="934" on="0"/>
        <pt x="959" y="738" on="0"/>
        <pt x="959" y="598" on="1"/>
        <pt x="959" y="278" on="1"/>
        <pt x="959" y="237" on="0"/>
        <pt x="972" y="196" on="0"/>
        <pt x="988" y="187" on="0"/>
        <pt x="1006" y="185" on="1"/>
        <pt x="1037" y="182" on="0"/>
        <pt x="1067" y="177" on="0"/>
        <pt x="1107" y="167" on="0"/>
        <pt x="1124" y="151" on="0"/>
        <pt x="1124" y="139" on="1"/>
        <pt x="1124" y="21" on="0"/>
        <pt x="1091" y="-8" on="1"/>
        <pt x="1043" y="0" on="0"/>
        <pt x="966" y="0" on="1"/>
        <pt x="896" y="0" on="0"/>
        <pt x="836" y="-7" on="1"/>
        <pt x="829" y="-2" on="0"/>
        <pt x="808" y="16" on="0"/>
        <pt x="772" y="90" on="0"/>
      </contour>
      <contour>
        <pt x="407" y="151" on="1"/>
        <pt x="498" y="151" on="0"/>
        <pt x="710" y="252" on="0"/>
        <pt x="732" y="293" on="1"/>
        <pt x="732" y="470" on="1"/>
        <pt x="459" y="421" on="0"/>
        <pt x="268" y="343" on="0"/>
        <pt x="268" y="272" on="1"/>
        <pt x="268" y="151" on="0"/>
      </contour>
    </TTGlyph>
    <TTGlyph name="aacute" xMin="32" yMin="-27" xMax="1124" yMax="1673">
      <component glyphName="acute" x="370" y="48" flags="0x1004"/>
      <component glyphName="a" x="0" y="0" flags="0x1204"/>
    </TTGlyph>
    <TTGlyph name="abreve" xMin="32" yMin="-27" xMax="1124" yMax="1478">
      <component glyphName="breve" x="-32" y="-37" flags="0x1004"/>
      <component glyphName="a" x="0" y="0" flags="0x1204"/>
    </TTGlyph>
    <TTGlyph name="acircumflex" xMin="32" yMin="-27" xMax="1124" yMax="1673">
      <component glyphName="circumflex" x="35" y="48" flags="0x1004"/>
      <component glyphName="a" x="0" y="0" flags="0x1204"/>
    </TTGlyph>
    <TTGlyph name="acute" xMin="43" yMin="1149" xMax="613" yMax="1625">
      <contour>
        <pt x="43" y="1149" on="1"/>
        <pt x="186" y="1359" on="0"/>
        <pt x="295" y="1532" on="1"/>
        <pt x="329" y="1586" on="0"/>
        <pt x="397" y="1625" on="0"/>
        <pt x="466" y="1625" on="1"/>
        <pt x="546" y="1625" on="0"/>
        <pt x="613" y="1596" on="0"/>
        <pt x="613" y="1564" on="1"/>
        <pt x="613" y="1550" on="0"/>
        <pt x="586" y="1520" on="0"/>
        <pt x="516" y="1458" on="0"/>
        <pt x="495" y="1438" on="1"/>
        <pt x="460" y="1404" on="0"/>
        <pt x="233" y="1209" on="0"/>
        <pt x="154" y="1149" on="1"/>
      </contour>
    </TTGlyph>
    <TTGlyph name="adieresis" xMin="23" yMin="-27" xMax="1124" yMax="1469">
      <component glyphName="dieresis" x="-20" y="-39" flags="0x1004"/>
      <component glyphName="a" x="0" y="0" flags="0x1204"/>
    </TTGlyph>
    <TTGlyph name="ae" xMin="111" yMin="-27" xMax="1849" yMax="1096">
      <contour>
        <pt x="1849" y="591" on="1"/>
        <pt x="1849" y="545" on="0"/>
        <pt x="1802" y="496" on="0"/>
        <pt x="1737" y="496" on="1"/>
        <pt x="1077" y="496" on="1"/>
        <pt x="1081" y="405" on="0"/>
        <pt x="1134" y="273" on="0"/>
        <pt x="1220" y="198" on="0"/>
        <pt x="1323" y="163" on="0"/>
        <pt x="1384" y="163" on="1"/>
        <pt x="1472" y="163" on="0"/>
        <pt x="1662" y="229" on="0"/>
        <pt x="1742" y="285" on="1"/>
        <pt x="1823" y="215" on="0"/>
        <pt x="1823" y="158" on="1"/>
        <pt x="1823" y="126" on="0"/>
        <pt x="1749" y="60" on="0"/>
        <pt x="1631" y="7" on="0"/>
        <pt x="1468" y="-27" on="0"/>
        <pt x="1386" y="-27" on="1"/>
        <pt x="1262" y="-27" on="0"/>
        <pt x="1044" y="66" on="0"/>
        <pt x="971" y="167" on="1"/>
        <pt x="867" y="74" on="0"/>
        <pt x="553" y="-27" on="0"/>
        <pt x="440" y="-27" on="1"/>
        <pt x="298" y="-27" on="0"/>
        <pt x="111" y="128" on="0"/>
        <pt x="111" y="273" on="1"/>
        <pt x="111" y="326" on="0"/>
        <pt x="146" y="412" on="0"/>
        <pt x="214" y="476" on="0"/>
        <pt x="308" y="525" on="0"/>
        <pt x="432" y="561" on="0"/>
        <pt x="573" y="590" on="0"/>
        <pt x="740" y="616" on="0"/>
        <pt x="827" y="628" on="1"/>
        <pt x="843" y="630" on="0"/>
        <pt x="851" y="631" on="1"/>
        <pt x="851" y="801" on="0"/>
        <pt x="753" y="929" on="0"/>
        <pt x="613" y="929" on="1"/>
        <pt x="519" y="929" on="0"/>
        <pt x="288" y="849" on="0"/>
        <pt x="220" y="778" on="1"/>
        <pt x="139" y="846" on="0"/>
        <pt x="139" y="911" on="1"/>
        <pt x="139" y="967" on="0"/>
        <pt x="299" y="1054" on="0"/>
        <pt x="519" y="1095" on="0"/>
        <pt x="628" y="1095" on="1"/>
        <pt x="895" y="1095" on="0"/>
        <pt x="994" y="920" on="1"/>
        <pt x="1066" y="1005" on="0"/>
        <pt x="1268" y="1096" on="0"/>
        <pt x="1374" y="1096" on="1"/>
        <pt x="1448" y="1096" on="0"/>
        <pt x="1585" y="1058" on="0"/>
        <pt x="1707" y="977" on="0"/>
        <pt x="1797" y="860" on="0"/>
        <pt x="1849" y="692" on="0"/>
      </contour>
      <contour>
        <pt x="1647" y="651" on="1"/>
        <pt x="1638" y="790" on="0"/>
        <pt x="1487" y="935" on="0"/>
        <pt x="1382" y="935" on="1"/>
        <pt x="1274" y="935" on="0"/>
        <pt x="1095" y="780" on="0"/>
        <pt x="1083" y="651" on="1"/>
      </contour>
      <contour>
        <pt x="486" y="151" on="1"/>
        <pt x="588" y="151" on="0"/>
        <pt x="827" y="251" on="0"/>
        <pt x="852" y="293" on="1"/>
        <pt x="852" y="470" on="1"/>
        <pt x="551" y="421" on="0"/>
        <pt x="347" y="346" on="0"/>
        <pt x="347" y="276" on="1"/>
        <pt x="347" y="151" on="0"/>
      </contour>
    </TTGlyph>
    <TTGlyph name="agrave" xMin="-47" yMin="-27" xMax="1124" yMax="1673">
      <component glyphName="grave" x="-90" y="48" flags="0x1004"/>
      <component glyphName="a" x="0" y="0" flags="0x1204"/>
    </TTGlyph>
    <TTGlyph name="amacron" xMin="32" yMin="-27" xMax="1124" yMax="1346">
      <component glyphName="macron" x="84" y="-46" flags="0x1004"/>
      <component glyphName="a" x="0" y="0" flags="0x1204"/>
    </TTGlyph>
    <TTGlyph name="ampersand" xMin="37" yMin="-28" xMax="1546" yMax="1515">
      <contour>
        <pt x="1406" y="583" on="1"/>
        <pt x="1331" y="288" on="0"/>
        <pt x="878" y="-28" on="0"/>
        <pt x="544" y="-28" on="1"/>
        <pt x="439" y="-28" on="0"/>
        <pt x="255" y="23" on="0"/>
        <pt x="117" y="118" on="0"/>
        <pt x="37" y="266" on="0"/>
        <pt x="37" y="357" on="1"/>
        <pt x="37" y="443" on="0"/>
        <pt x="128" y="596" on="0"/>
        <pt x="274" y="712" on="0"/>
        <pt x="450" y="818" on="0"/>
        <pt x="626" y="915" on="0"/>
        <pt x="772" y="1011" on="0"/>
        <pt x="863" y="1127" on="0"/>
        <pt x="863" y="1189" on="1"/>
        <pt x="863" y="1258" on="0"/>
        <pt x="710" y="1348" on="0"/>
        <pt x="613" y="1348" on="1"/>
        <pt x="513" y="1348" on="0"/>
        <pt x="375" y="1251" on="0"/>
        <pt x="375" y="1153" on="1"/>
        <pt x="375" y="1058" on="0"/>
        <pt x="562" y="870" on="1"/>
        <pt x="609" y="823" on="0"/>
        <pt x="923" y="498" on="0"/>
        <pt x="1032" y="389" on="1"/>
        <pt x="1036" y="385" on="0"/>
        <pt x="1113" y="305" on="0"/>
        <pt x="1134" y="287" on="0"/>
        <pt x="1204" y="224" on="0"/>
        <pt x="1243" y="203" on="0"/>
        <pt x="1309" y="168" on="0"/>
        <pt x="1371" y="156" on="0"/>
        <pt x="1405" y="156" on="1"/>
        <pt x="1491" y="156" on="0"/>
        <pt x="1543" y="175" on="1"/>
        <pt x="1546" y="23" on="0"/>
        <pt x="1546" y="-2" on="1"/>
        <pt x="1447" y="-27" on="0"/>
        <pt x="1336" y="-27" on="1"/>
        <pt x="1227" y="-27" on="0"/>
        <pt x="1081" y="45" on="0"/>
        <pt x="947" y="172" on="1"/>
        <pt x="873" y="244" on="0"/>
        <pt x="739" y="378" on="0"/>
        <pt x="598" y="526" on="0"/>
        <pt x="536" y="590" on="0"/>
        <pt x="384" y="754" on="0"/>
        <pt x="381" y="757" on="1"/>
        <pt x="264" y="875" on="0"/>
        <pt x="152" y="1068" on="0"/>
        <pt x="152" y="1157" on="1"/>
        <pt x="152" y="1224" on="0"/>
        <pt x="196" y="1334" on="0"/>
        <pt x="265" y="1406" on="0"/>
        <pt x="358" y="1462" on="0"/>
        <pt x="445" y="1491" on="0"/>
        <pt x="538" y="1510" on="0"/>
        <pt x="596" y="1515" on="0"/>
        <pt x="618" y="1515" on="1"/>
        <pt x="711" y="1515" on="0"/>
        <pt x="878" y="1473" on="0"/>
        <pt x="1011" y="1393" on="0"/>
        <pt x="1090" y="1264" on="0"/>
        <pt x="1090" y="1185" on="1"/>
        <pt x="1090" y="1111" on="0"/>
        <pt x="1035" y="981" on="0"/>
        <pt x="943" y="881" on="0"/>
        <pt x="823" y="791" on="0"/>
        <pt x="690" y="716" on="0"/>
        <pt x="558" y="644" on="0"/>
        <pt x="438" y="571" on="0"/>
        <pt x="346" y="495" on="0"/>
        <pt x="291" y="400" on="0"/>
        <pt x="291" y="348" on="1"/>
        <pt x="291" y="257" on="0"/>
        <pt x="447" y="157" on="0"/>
        <pt x="562" y="157" on="1"/>
        <pt x="691" y="157" on="0"/>
        <pt x="918" y="231" on="0"/>
        <pt x="1081" y="358" on="0"/>
        <pt x="1195" y="517" on="0"/>
        <pt x="1223" y="608" on="1"/>
        <pt x="1142" y="620" on="1"/>
        <pt x="1127" y="622" on="0"/>
        <pt x="1112" y="626" on="0"/>
        <pt x="1093" y="638" on="0"/>
        <pt x="1085" y="661" on="0"/>
        <pt x="1085" y="680" on="1"/>
        <pt x="1085" y="719" on="0"/>
        <pt x="1091" y="791" on="1"/>
        <pt x="1095" y="791" on="1"/>
        <pt x="1092" y="791" on="0"/>
        <pt x="1281" y="794" on="0"/>
        <pt x="1492" y="797" on="0"/>
        <pt x="1517" y="797" on="1"/>
        <pt x="1528" y="797" on="0"/>
        <pt x="1528" y="696" on="1"/>
        <pt x="1528" y="651" on="0"/>
        <pt x="1521" y="643" on="1"/>
        <pt x="1508" y="627" on="0"/>
        <pt x="1430" y="604" on="0"/>
        <pt x="1424" y="601" on="1"/>
      </contour>
    </TTGlyph>
    <TTGlyph name="aogonek" xMin="32" yMin="-447" xMax="1124" yMax="1095">
      <component glyphName="ogonek" x="578" y="2" flags="0x1004"/>
      <component glyphName="a" x="0" y="0" flags="0x1004"/>
    </TTGlyph>
    <TTGlyph name="aring" xMin="32" yMin="-27" xMax="1124" yMax="1647">
      <component glyphName="ring" x="146" y="11" flags="0x1004"/>
      <component glyphName="a" x="0" y="0" flags="0x1204"/>
    </TTGlyph>
    <TTGlyph name="asciicircum" xMin="43" yMin="999" xMax="821" yMax="1475">
      <contour>
        <pt x="382" y="1475" on="1"/>
        <pt x="482" y="1475" on="1"/>
        <pt x="539" y="1416" on="0"/>
        <pt x="703" y="1226" on="0"/>
        <pt x="734" y="1187" on="1"/>
        <pt x="746" y="1172" on="0"/>
        <pt x="777" y="1134" on="0"/>
        <pt x="795" y="1113" on="0"/>
        <pt x="813" y="1088" on="0"/>
        <pt x="821" y="1069" on="0"/>
        <pt x="821" y="1060" on="1"/>
        <pt x="821" y="1028" on="0"/>
        <pt x="787" y="999" on="0"/>
        <pt x="744" y="999" on="1"/>
        <pt x="711" y="999" on="0"/>
        <pt x="665" y="1018" on="0"/>
        <pt x="642" y="1042" on="0"/>
        <pt x="618" y="1072" on="1"/>
        <pt x="437" y="1303" on="1"/>
        <pt x="256" y="1072" on="1"/>
        <pt x="232" y="1042" on="0"/>
        <pt x="209" y="1018" on="0"/>
        <pt x="163" y="999" on="0"/>
        <pt x="130" y="999" on="1"/>
        <pt x="82" y="999" on="0"/>
        <pt x="43" y="1028" on="0"/>
        <pt x="43" y="1060" on="1"/>
        <pt x="43" y="1069" on="0"/>
        <pt x="51" y="1088" on="0"/>
        <pt x="69" y="1113" on="0"/>
        <pt x="87" y="1134" on="0"/>
        <pt x="118" y="1172" on="0"/>
        <pt x="130" y="1187" on="1"/>
        <pt x="163" y="1229" on="0"/>
        <pt x="324" y="1417" on="0"/>
      </contour>
    </TTGlyph>
    <TTGlyph name="asciitilde" xMin="43" yMin="724" xMax="921" yMax="983">
      <contour>
        <pt x="921" y="945" on="1"/>
        <pt x="919" y="920" on="1"/>
        <pt x="912" y="831" on="0"/>
        <pt x="832" y="724" on="0"/>
        <pt x="762" y="724" on="1"/>
        <pt x="671" y="724" on="0"/>
        <pt x="297" y="815" on="0"/>
        <pt x="256" y="815" on="1"/>
        <pt x="233" y="815" on="0"/>
        <pt x="213" y="779" on="0"/>
        <pt x="208" y="739" on="1"/>
        <pt x="203" y="731" on="0"/>
        <pt x="161" y="731" on="1"/>
        <pt x="125" y="731" on="0"/>
        <pt x="43" y="748" on="0"/>
        <pt x="43" y="758" on="1"/>
        <pt x="46" y="786" on="1"/>
        <pt x="55" y="873" on="0"/>
        <pt x="139" y="983" on="0"/>
        <pt x="221" y="983" on="1"/>
        <pt x="298" y="983" on="0"/>
        <pt x="506" y="935" on="0"/>
        <pt x="677" y="887" on="0"/>
        <pt x="710" y="887" on="1"/>
        <pt x="752" y="887" on="0"/>
        <pt x="758" y="960" on="1"/>
        <pt x="779" y="963" on="0"/>
        <pt x="803" y="963" on="1"/>
        <pt x="849" y="963" on="0"/>
      </contour>
    </TTGlyph>
    <TTGlyph name="asterisk" xMin="32" yMin="448" xMax="1126" yMax="1512">
      <contour>
        <pt x="211" y="1205" on="1"/>
        <pt x="510" y="1041" on="1"/>
        <pt x="417" y="1364" on="1"/>
        <pt x="415" y="1376" on="0"/>
        <pt x="415" y="1381" on="1"/>
        <pt x="415" y="1432" on="0"/>
        <pt x="506" y="1512" on="0"/>
        <pt x="566" y="1512" on="1"/>
        <pt x="627" y="1512" on="0"/>
        <pt x="723" y="1442" on="0"/>
        <pt x="724" y="1390" on="1"/>
        <pt x="724" y="1389" on="0"/>
        <pt x="723" y="1376" on="0"/>
        <pt x="723" y="1371" on="1"/>
        <pt x="724" y="1374" on="1"/>
        <pt x="651" y="1045" on="1"/>
        <pt x="937" y="1226" on="1"/>
        <pt x="967" y="1239" on="0"/>
        <pt x="984" y="1239" on="1"/>
        <pt x="1038" y="1239" on="0"/>
        <pt x="1126" y="1151" on="0"/>
        <pt x="1126" y="1090" on="1"/>
        <pt x="1126" y="1045" on="0"/>
        <pt x="1077" y="969" on="0"/>
        <pt x="1036" y="960" on="1"/>
        <pt x="678" y="921" on="1"/>
        <pt x="712" y="898" on="0"/>
        <pt x="928" y="746" on="0"/>
        <pt x="974" y="714" on="1"/>
        <pt x="1010" y="664" on="0"/>
        <pt x="1010" y="633" on="1"/>
        <pt x="1010" y="563" on="0"/>
        <pt x="913" y="463" on="0"/>
        <pt x="839" y="463" on="1"/>
        <pt x="810" y="463" on="0"/>
        <pt x="758" y="486" on="0"/>
        <pt x="747" y="508" on="1"/>
        <pt x="585" y="827" on="1"/>
        <pt x="443" y="499" on="1"/>
        <pt x="433" y="476" on="0"/>
        <pt x="375" y="448" on="0"/>
        <pt x="345" y="448" on="1"/>
        <pt x="275" y="448" on="0"/>
        <pt x="171" y="542" on="0"/>
        <pt x="171" y="609" on="1"/>
        <pt x="171" y="645" on="0"/>
        <pt x="194" y="681" on="1"/>
        <pt x="203" y="692" on="1"/>
        <pt x="488" y="915" on="1"/>
        <pt x="131" y="934" on="1"/>
        <pt x="89" y="941" on="0"/>
        <pt x="32" y="1014" on="0"/>
        <pt x="32" y="1058" on="1"/>
        <pt x="32" y="1120" on="0"/>
        <pt x="110" y="1215" on="0"/>
        <pt x="165" y="1215" on="1"/>
        <pt x="189" y="1215" on="0"/>
      </contour>
    </TTGlyph>
    <TTGlyph name="at" xMin="53" yMin="-206" xMax="1628" yMax="1339">
      <contour>
        <pt x="1279" y="171" on="1"/>
        <pt x="1217" y="171" on="0"/>
        <pt x="1136" y="198" on="0"/>
        <pt x="1093" y="238" on="0"/>
        <pt x="1069" y="276" on="1"/>
        <pt x="1010" y="207" on="0"/>
        <pt x="833" y="130" on="0"/>
        <pt x="742" y="130" on="1"/>
        <pt x="632" y="130" on="0"/>
        <pt x="488" y="247" on="0"/>
        <pt x="488" y="359" on="1"/>
        <pt x="488" y="483" on="0"/>
        <pt x="617" y="545" on="1"/>
        <pt x="710" y="589" on="0"/>
        <pt x="948" y="626" on="1"/>
        <pt x="975" y="630" on="0"/>
        <pt x="1037" y="639" on="1"/>
        <pt x="1037" y="770" on="0"/>
        <pt x="970" y="870" on="0"/>
        <pt x="876" y="870" on="1"/>
        <pt x="806" y="870" on="0"/>
        <pt x="632" y="807" on="0"/>
        <pt x="580" y="753" on="1"/>
        <pt x="517" y="806" on="0"/>
        <pt x="517" y="856" on="1"/>
        <pt x="517" y="899" on="0"/>
        <pt x="639" y="966" on="0"/>
        <pt x="805" y="998" on="0"/>
        <pt x="888" y="998" on="1"/>
        <pt x="1046" y="998" on="0"/>
        <pt x="1213" y="823" on="0"/>
        <pt x="1213" y="614" on="1"/>
        <pt x="1213" y="386" on="1"/>
        <pt x="1213" y="354" on="0"/>
        <pt x="1226" y="323" on="0"/>
        <pt x="1242" y="316" on="0"/>
        <pt x="1260" y="314" on="1"/>
        <pt x="1322" y="314" on="0"/>
        <pt x="1406" y="366" on="0"/>
        <pt x="1449" y="467" on="0"/>
        <pt x="1466" y="585" on="0"/>
        <pt x="1466" y="666" on="1"/>
        <pt x="1466" y="791" on="0"/>
        <pt x="1369" y="994" on="0"/>
        <pt x="1207" y="1122" on="0"/>
        <pt x="1003" y="1191" on="0"/>
        <pt x="892" y="1191" on="1"/>
        <pt x="686" y="1191" on="0"/>
        <pt x="385" y="1023" on="0"/>
        <pt x="234" y="733" on="0"/>
        <pt x="234" y="544" on="1"/>
        <pt x="234" y="426" on="0"/>
        <pt x="308" y="219" on="0"/>
        <pt x="457" y="49" on="0"/>
        <pt x="711" y="-51" on="0"/>
        <pt x="877" y="-51" on="1"/>
        <pt x="1137" y="-51" on="0"/>
        <pt x="1372" y="61" on="1"/>
        <pt x="1404" y="32" on="0"/>
        <pt x="1404" y="-25" on="1"/>
        <pt x="1404" y="-53" on="0"/>
        <pt x="1321" y="-117" on="0"/>
        <pt x="1187" y="-170" on="0"/>
        <pt x="995" y="-206" on="0"/>
        <pt x="897" y="-206" on="1"/>
        <pt x="703" y="-206" on="0"/>
        <pt x="383" y="-90" on="0"/>
        <pt x="170" y="113" on="0"/>
        <pt x="53" y="388" on="0"/>
        <pt x="53" y="547" on="1"/>
        <pt x="53" y="667" on="0"/>
        <pt x="119" y="895" on="0"/>
        <pt x="258" y="1097" on="0"/>
        <pt x="453" y="1250" on="0"/>
        <pt x="728" y="1339" on="0"/>
        <pt x="889" y="1339" on="1"/>
        <pt x="1092" y="1339" on="0"/>
        <pt x="1427" y="1177" on="0"/>
        <pt x="1628" y="871" on="0"/>
        <pt x="1628" y="674" on="1"/>
        <pt x="1628" y="563" on="0"/>
        <pt x="1569" y="372" on="0"/>
        <pt x="1471" y="244" on="0"/>
        <pt x="1346" y="171" on="0"/>
      </contour>
      <contour>
        <pt x="778" y="268" on="1"/>
        <pt x="851" y="268" on="0"/>
        <pt x="1021" y="346" on="0"/>
        <pt x="1038" y="378" on="1"/>
        <pt x="1038" y="515" on="1"/>
        <pt x="822" y="477" on="0"/>
        <pt x="670" y="416" on="0"/>
        <pt x="670" y="361" on="1"/>
        <pt x="670" y="268" on="0"/>
      </contour>
    </TTGlyph>
    <TTGlyph name="atilde" xMin="32" yMin="-27" xMax="1124" yMax="1456">
      <component glyphName="tilde" x="-32" y="-28" flags="0x1004"/>
      <component glyphName="a" x="0" y="0" flags="0x1204"/>
    </TTGlyph>
    <TTGlyph name="b" xMin="28" yMin="-27" xMax="1281" yMax="1501">
      <contour>
        <pt x="423" y="604" on="1"/>
        <pt x="423" y="343" on="1"/>
        <pt x="455" y="259" on="0"/>
        <pt x="635" y="144" on="0"/>
        <pt x="749" y="144" on="1"/>
        <pt x="870" y="144" on="0"/>
        <pt x="1046" y="351" on="0"/>
        <pt x="1046" y="719" on="0"/>
        <pt x="858" y="925" on="0"/>
        <pt x="729" y="925" on="1"/>
        <pt x="673" y="925" on="0"/>
        <pt x="565" y="884" on="0"/>
        <pt x="477" y="806" on="0"/>
        <pt x="423" y="681" on="0"/>
      </contour>
      <contour>
        <pt x="423" y="1348" on="1"/>
        <pt x="423" y="928" on="1"/>
        <pt x="472" y="1008" on="0"/>
        <pt x="655" y="1095" on="0"/>
        <pt x="750" y="1095" on="1"/>
        <pt x="851" y="1095" on="0"/>
        <pt x="1039" y="1023" on="0"/>
        <pt x="1190" y="888" on="0"/>
        <pt x="1281" y="670" on="0"/>
        <pt x="1281" y="400" on="0"/>
        <pt x="1191" y="181" on="0"/>
        <pt x="1040" y="45" on="0"/>
        <pt x="854" y="-27" on="0"/>
        <pt x="753" y="-27" on="1"/>
        <pt x="528" y="-27" on="0"/>
        <pt x="351" y="141" on="1"/>
        <pt x="251" y="41" on="1"/>
        <pt x="197" y="-7" on="0"/>
        <pt x="147" y="-7" on="1"/>
        <pt x="107" y="-7" on="0"/>
        <pt x="55" y="45" on="0"/>
        <pt x="55" y="84" on="1"/>
        <pt x="55" y="144" on="0"/>
        <pt x="111" y="196" on="1"/>
        <pt x="196" y="274" on="1"/>
        <pt x="196" y="1209" on="1"/>
        <pt x="196" y="1262" on="0"/>
        <pt x="135" y="1306" on="0"/>
        <pt x="48" y="1310" on="1"/>
        <pt x="35" y="1313" on="0"/>
        <pt x="28" y="1333" on="0"/>
        <pt x="28" y="1366" on="1"/>
        <pt x="28" y="1417" on="0"/>
        <pt x="50" y="1495" on="0"/>
        <pt x="61" y="1501" on="1"/>
        <pt x="144" y="1490" on="0"/>
        <pt x="220" y="1490" on="1"/>
        <pt x="265" y="1490" on="0"/>
        <pt x="365" y="1501" on="0"/>
        <pt x="368" y="1501" on="1"/>
        <pt x="403" y="1501" on="0"/>
        <pt x="424" y="1466" on="0"/>
        <pt x="424" y="1403" on="1"/>
        <pt x="424" y="1396" on="0"/>
        <pt x="423" y="1359" on="0"/>
      </contour>
    </TTGlyph>
    <TTGlyph name="backslash" xMin="28" yMin="-47" xMax="1009" yMax="1573">
      <contour>
        <pt x="990" y="107" on="1"/>
        <pt x="1009" y="73" on="0"/>
        <pt x="1009" y="43" on="1"/>
        <pt x="1009" y="2" on="0"/>
        <pt x="962" y="-47" on="0"/>
        <pt x="923" y="-47" on="1"/>
        <pt x="854" y="-47" on="0"/>
        <pt x="815" y="26" on="1"/>
        <pt x="223" y="1115" on="0"/>
        <pt x="48" y="1425" on="1"/>
        <pt x="28" y="1459" on="0"/>
        <pt x="28" y="1491" on="1"/>
        <pt x="28" y="1528" on="0"/>
        <pt x="80" y="1573" on="0"/>
        <pt x="116" y="1573" on="1"/>
        <pt x="188" y="1573" on="0"/>
        <pt x="225" y="1505" on="1"/>
        <pt x="256" y="1448" on="0"/>
        <pt x="612" y="789" on="0"/>
        <pt x="916" y="234" on="0"/>
      </contour>
    </TTGlyph>
    <TTGlyph name="bar" xMin="94" yMin="-160" xMax="325" yMax="1636">
      <contour>
        <pt x="94" y="-85" on="1"/>
        <pt x="94" y="1568" on="1"/>
        <pt x="94" y="1608" on="0"/>
        <pt x="155" y="1636" on="0"/>
        <pt x="229" y="1636" on="1"/>
        <pt x="283" y="1636" on="0"/>
        <pt x="325" y="1617" on="0"/>
        <pt x="325" y="1585" on="1"/>
        <pt x="325" y="-63" on="1"/>
        <pt x="325" y="-96" on="0"/>
        <pt x="308" y="-138" on="0"/>
        <pt x="271" y="-155" on="0"/>
        <pt x="238" y="-160" on="0"/>
        <pt x="209" y="-160" on="1"/>
        <pt x="189" y="-160" on="0"/>
        <pt x="164" y="-159" on="0"/>
        <pt x="129" y="-151" on="0"/>
        <pt x="109" y="-135" on="0"/>
        <pt x="94" y="-106" on="0"/>
      </contour>
    </TTGlyph>
    <TTGlyph name="braceleft" xMin="35" yMin="-218" xMax="728" yMax="1586">
      <contour>
        <pt x="118" y="583" on="0"/>
        <pt x="66" y="583" on="0"/>
        <pt x="35" y="644" on="0"/>
        <pt x="35" y="685" on="1"/>
        <pt x="35" y="725" on="0"/>
        <pt x="66" y="785" on="0"/>
        <pt x="118" y="785" on="0"/>
        <pt x="156" y="794" on="0"/>
        <pt x="183" y="805" on="0"/>
        <pt x="200" y="834" on="0"/>
        <pt x="209" y="856" on="0"/>
        <pt x="213" y="908" on="0"/>
        <pt x="214" y="942" on="0"/>
        <pt x="214" y="979" on="1"/>
        <pt x="214" y="1107" on="0"/>
        <pt x="249" y="1316" on="0"/>
        <pt x="306" y="1453" on="0"/>
        <pt x="381" y="1546" on="0"/>
        <pt x="459" y="1586" on="0"/>
        <pt x="499" y="1586" on="1"/>
        <pt x="594" y="1586" on="0"/>
        <pt x="728" y="1523" on="0"/>
        <pt x="728" y="1476" on="1"/>
        <pt x="728" y="1434" on="0"/>
        <pt x="682" y="1402" on="0"/>
        <pt x="642" y="1402" on="1"/>
        <pt x="626" y="1402" on="0"/>
        <pt x="568" y="1416" on="0"/>
        <pt x="559" y="1416" on="1"/>
        <pt x="513" y="1416" on="0"/>
        <pt x="469" y="1362" on="0"/>
        <pt x="447" y="1198" on="0"/>
        <pt x="447" y="1029" on="1"/>
        <pt x="447" y="965" on="0"/>
        <pt x="435" y="864" on="0"/>
        <pt x="402" y="764" on="0"/>
        <pt x="336" y="697" on="0"/>
        <pt x="288" y="684" on="1"/>
        <pt x="336" y="671" on="0"/>
        <pt x="402" y="603" on="0"/>
        <pt x="435" y="503" on="0"/>
        <pt x="447" y="402" on="0"/>
        <pt x="447" y="339" on="1"/>
        <pt x="447" y="170" on="0"/>
        <pt x="469" y="6" on="0"/>
        <pt x="513" y="-48" on="0"/>
        <pt x="559" y="-48" on="1"/>
        <pt x="568" y="-48" on="0"/>
        <pt x="626" y="-35" on="0"/>
        <pt x="642" y="-35" on="1"/>
        <pt x="683" y="-35" on="0"/>
        <pt x="728" y="-66" on="0"/>
        <pt x="728" y="-108" on="1"/>
        <pt x="728" y="-155" on="0"/>
        <pt x="595" y="-218" on="0"/>
        <pt x="499" y="-218" on="1"/>
        <pt x="459" y="-218" on="0"/>
        <pt x="381" y="-178" on="0"/>
        <pt x="306" y="-85" on="0"/>
        <pt x="249" y="52" on="0"/>
        <pt x="214" y="261" on="0"/>
        <pt x="214" y="389" on="1"/>
        <pt x="214" y="426" on="0"/>
        <pt x="213" y="460" on="0"/>
        <pt x="209" y="512" on="0"/>
        <pt x="200" y="534" on="0"/>
        <pt x="183" y="563" on="0"/>
        <pt x="156" y="574" on="0"/>
      </contour>
    </TTGlyph>
    <TTGlyph name="braceright" xMin="28" yMin="-218" xMax="721" yMax="1586">
      <contour>
        <pt x="690" y="583" on="0"/>
        <pt x="638" y="583" on="0"/>
        <pt x="600" y="574" on="0"/>
        <pt x="573" y="563" on="0"/>
        <pt x="556" y="534" on="0"/>
        <pt x="547" y="512" on="0"/>
        <pt x="543" y="460" on="0"/>
        <pt x="542" y="426" on="0"/>
        <pt x="542" y="389" on="1"/>
        <pt x="542" y="261" on="0"/>
        <pt x="507" y="52" on="0"/>
        <pt x="450" y="-85" on="0"/>
        <pt x="375" y="-178" on="0"/>
        <pt x="297" y="-218" on="0"/>
        <pt x="257" y="-218" on="1"/>
        <pt x="161" y="-218" on="0"/>
        <pt x="28" y="-155" on="0"/>
        <pt x="28" y="-108" on="1"/>
        <pt x="28" y="-66" on="0"/>
        <pt x="73" y="-35" on="0"/>
        <pt x="114" y="-35" on="1"/>
        <pt x="130" y="-35" on="0"/>
        <pt x="188" y="-48" on="0"/>
        <pt x="197" y="-48" on="1"/>
        <pt x="243" y="-48" on="0"/>
        <pt x="287" y="6" on="0"/>
        <pt x="309" y="170" on="0"/>
        <pt x="309" y="339" on="1"/>
        <pt x="309" y="402" on="0"/>
        <pt x="321" y="503" on="0"/>
        <pt x="354" y="603" on="0"/>
        <pt x="420" y="671" on="0"/>
        <pt x="468" y="684" on="1"/>
        <pt x="420" y="697" on="0"/>
        <pt x="354" y="764" on="0"/>
        <pt x="321" y="864" on="0"/>
        <pt x="309" y="965" on="0"/>
        <pt x="309" y="1029" on="1"/>
        <pt x="309" y="1198" on="0"/>
        <pt x="287" y="1362" on="0"/>
        <pt x="243" y="1416" on="0"/>
        <pt x="197" y="1416" on="1"/>
        <pt x="188" y="1416" on="0"/>
        <pt x="130" y="1402" on="0"/>
        <pt x="114" y="1402" on="1"/>
        <pt x="74" y="1402" on="0"/>
        <pt x="28" y="1434" on="0"/>
        <pt x="28" y="1476" on="1"/>
        <pt x="28" y="1523" on="0"/>
        <pt x="162" y="1586" on="0"/>
        <pt x="257" y="1586" on="1"/>
        <pt x="297" y="1586" on="0"/>
        <pt x="375" y="1546" on="0"/>
        <pt x="450" y="1453" on="0"/>
        <pt x="507" y="1316" on="0"/>
        <pt x="542" y="1107" on="0"/>
        <pt x="542" y="979" on="1"/>
        <pt x="542" y="942" on="0"/>
        <pt x="543" y="908" on="0"/>
        <pt x="547" y="856" on="0"/>
        <pt x="556" y="834" on="0"/>
        <pt x="573" y="805" on="0"/>
        <pt x="600" y="794" on="0"/>
        <pt x="638" y="785" on="0"/>
        <pt x="690" y="785" on="0"/>
        <pt x="721" y="725" on="0"/>
        <pt x="721" y="685" on="1"/>
        <pt x="721" y="644" on="0"/>
      </contour>
    </TTGlyph>
    <TTGlyph name="bracketleft" xMin="93" yMin="-105" xMax="580" yMax="1498">
      <contour>
        <pt x="324" y="1255" on="1"/>
        <pt x="324" y="138" on="1"/>
        <pt x="324" y="128" on="0"/>
        <pt x="327" y="116" on="0"/>
        <pt x="348" y="103" on="0"/>
        <pt x="368" y="103" on="1"/>
        <pt x="457" y="103" on="0"/>
        <pt x="549" y="93" on="0"/>
        <pt x="580" y="74" on="0"/>
        <pt x="580" y="55" on="1"/>
        <pt x="580" y="-74" on="0"/>
        <pt x="557" y="-105" on="1"/>
        <pt x="447" y="-98" on="0"/>
        <pt x="324" y="-98" on="1"/>
        <pt x="206" y="-98" on="0"/>
        <pt x="123" y="-105" on="1"/>
        <pt x="93" y="-105" on="0"/>
        <pt x="93" y="-74" on="1"/>
        <pt x="93" y="1467" on="1"/>
        <pt x="93" y="1498" on="0"/>
        <pt x="123" y="1498" on="1"/>
        <pt x="202" y="1490" on="0"/>
        <pt x="324" y="1490" on="1"/>
        <pt x="456" y="1490" on="0"/>
        <pt x="557" y="1498" on="1"/>
        <pt x="580" y="1467" on="0"/>
        <pt x="580" y="1338" on="1"/>
        <pt x="580" y="1319" on="0"/>
        <pt x="549" y="1300" on="0"/>
        <pt x="457" y="1290" on="0"/>
        <pt x="368" y="1290" on="1"/>
        <pt x="348" y="1290" on="0"/>
        <pt x="327" y="1278" on="0"/>
        <pt x="324" y="1266" on="0"/>
      </contour>
    </TTGlyph>
    <TTGlyph name="bracketright" xMin="41" yMin="-105" xMax="528" yMax="1498">
      <contour>
        <pt x="297" y="138" on="1"/>
        <pt x="297" y="1255" on="1"/>
        <pt x="297" y="1266" on="0"/>
        <pt x="294" y="1278" on="0"/>
        <pt x="273" y="1290" on="0"/>
        <pt x="253" y="1290" on="1"/>
        <pt x="164" y="1290" on="0"/>
        <pt x="72" y="1300" on="0"/>
        <pt x="41" y="1319" on="0"/>
        <pt x="41" y="1338" on="1"/>
        <pt x="41" y="1467" on="0"/>
        <pt x="64" y="1498" on="1"/>
        <pt x="165" y="1490" on="0"/>
        <pt x="297" y="1490" on="1"/>
        <pt x="419" y="1490" on="0"/>
        <pt x="498" y="1498" on="1"/>
        <pt x="528" y="1498" on="0"/>
        <pt x="528" y="1467" on="1"/>
        <pt x="528" y="-74" on="1"/>
        <pt x="528" y="-105" on="0"/>
        <pt x="498" y="-105" on="1"/>
        <pt x="415" y="-98" on="0"/>
        <pt x="297" y="-98" on="1"/>
        <pt x="174" y="-98" on="0"/>
        <pt x="64" y="-105" on="1"/>
        <pt x="41" y="-74" on="0"/>
        <pt x="41" y="55" on="1"/>
        <pt x="41" y="74" on="0"/>
        <pt x="72" y="93" on="0"/>
        <pt x="164" y="103" on="0"/>
        <pt x="253" y="103" on="1"/>
        <pt x="273" y="103" on="0"/>
        <pt x="294" y="116" on="0"/>
        <pt x="297" y="128" on="0"/>
      </contour>
    </TTGlyph>
    <TTGlyph name="breve" xMin="234" yMin="1234" xMax="870" yMax="1515">
      <contour>
        <pt x="554" y="1234" on="1"/>
        <pt x="420" y="1234" on="0"/>
        <pt x="246" y="1381" on="0"/>
        <pt x="234" y="1515" on="1"/>
        <pt x="428" y="1515" on="1"/>
        <pt x="428" y="1446" on="0"/>
        <pt x="502" y="1370" on="0"/>
        <pt x="602" y="1370" on="0"/>
        <pt x="676" y="1446" on="0"/>
        <pt x="676" y="1515" on="1"/>
        <pt x="870" y="1515" on="1"/>
        <pt x="858" y="1381" on="0"/>
        <pt x="685" y="1234" on="0"/>
      </contour>
    </TTGlyph>
    <TTGlyph name="brokenbar" xMin="88" yMin="-159" xMax="319" yMax="1636">
      <contour>
        <pt x="88" y="932" on="1"/>
        <pt x="88" y="1568" on="1"/>
        <pt x="88" y="1608" on="0"/>
        <pt x="149" y="1636" on="0"/>
        <pt x="223" y="1636" on="1"/>
        <pt x="277" y="1636" on="0"/>
        <pt x="319" y="1617" on="0"/>
        <pt x="319" y="1585" on="1"/>
        <pt x="319" y="954" on="1"/>
        <pt x="319" y="921" on="0"/>
        <pt x="302" y="879" on="0"/>
        <pt x="265" y="862" on="0"/>
        <pt x="232" y="857" on="0"/>
        <pt x="203" y="857" on="1"/>
        <pt x="183" y="857" on="0"/>
        <pt x="158" y="858" on="0"/>
        <pt x="123" y="866" on="0"/>
        <pt x="103" y="882" on="0"/>
        <pt x="88" y="911" on="0"/>
      </contour>
      <contour>
        <pt x="88" y="-84" on="1"/>
        <pt x="88" y="552" on="1"/>
        <pt x="88" y="592" on="0"/>
        <pt x="149" y="620" on="0"/>
        <pt x="223" y="620" on="1"/>
        <pt x="277" y="620" on="0"/>
        <pt x="319" y="601" on="0"/>
        <pt x="319" y="569" on="1"/>
        <pt x="319" y="-62" on="1"/>
        <pt x="319" y="-95" on="0"/>
        <pt x="302" y="-137" on="0"/>
        <pt x="265" y="-154" on="0"/>
        <pt x="232" y="-159" on="0"/>
        <pt x="203" y="-159" on="1"/>
        <pt x="183" y="-159" on="0"/>
        <pt x="158" y="-158" on="0"/>
        <pt x="123" y="-150" on="0"/>
        <pt x="103" y="-134" on="0"/>
        <pt x="88" y="-105" on="0"/>
      </contour>
    </TTGlyph>
    <TTGlyph name="bullet" xMin="163" yMin="300" xMax="998" yMax="1067">
      <contour>
        <pt x="583" y="300" on="1"/>
        <pt x="483" y="300" on="0"/>
        <pt x="320" y="367" on="0"/>
        <pt x="218" y="478" on="0"/>
        <pt x="163" y="616" on="0"/>
        <pt x="163" y="690" on="1"/>
        <pt x="163" y="763" on="0"/>
        <pt x="216" y="895" on="0"/>
        <pt x="318" y="1003" on="0"/>
        <pt x="483" y="1067" on="0"/>
        <pt x="586" y="1067" on="1"/>
        <pt x="687" y="1067" on="0"/>
        <pt x="848" y="1004" on="0"/>
        <pt x="946" y="897" on="0"/>
        <pt x="998" y="766" on="0"/>
        <pt x="998" y="693" on="1"/>
        <pt x="998" y="619" on="0"/>
        <pt x="944" y="480" on="0"/>
        <pt x="843" y="368" on="0"/>
        <pt x="681" y="300" on="0"/>
      </contour>
    </TTGlyph>
    <TTGlyph name="c" xMin="34" yMin="-27" xMax="1008" yMax="1095">
      <contour>
        <pt x="995" y="828" on="1"/>
        <pt x="995" y="769" on="0"/>
        <pt x="912" y="687" on="0"/>
        <pt x="823" y="687" on="1"/>
        <pt x="802" y="687" on="0"/>
        <pt x="793" y="706" on="0"/>
        <pt x="789" y="747" on="1"/>
        <pt x="774" y="890" on="1"/>
        <pt x="767" y="895" on="0"/>
        <pt x="742" y="908" on="0"/>
        <pt x="655" y="931" on="0"/>
        <pt x="607" y="931" on="1"/>
        <pt x="455" y="931" on="0"/>
        <pt x="268" y="696" on="0"/>
        <pt x="268" y="534" on="1"/>
        <pt x="268" y="359" on="0"/>
        <pt x="450" y="163" on="0"/>
        <pt x="622" y="163" on="1"/>
        <pt x="702" y="163" on="0"/>
        <pt x="891" y="231" on="0"/>
        <pt x="951" y="284" on="1"/>
        <pt x="1008" y="217" on="0"/>
        <pt x="1008" y="156" on="1"/>
        <pt x="1008" y="106" on="0"/>
        <pt x="890" y="20" on="0"/>
        <pt x="705" y="-27" on="0"/>
        <pt x="605" y="-27" on="1"/>
        <pt x="489" y="-27" on="0"/>
        <pt x="284" y="46" on="0"/>
        <pt x="126" y="185" on="0"/>
        <pt x="34" y="406" on="0"/>
        <pt x="34" y="545" on="1"/>
        <pt x="34" y="674" on="0"/>
        <pt x="131" y="887" on="0"/>
        <pt x="291" y="1022" on="0"/>
        <pt x="490" y="1095" on="0"/>
        <pt x="595" y="1095" on="1"/>
        <pt x="702" y="1095" on="0"/>
        <pt x="861" y="1052" on="0"/>
        <pt x="952" y="976" on="0"/>
        <pt x="995" y="883" on="0"/>
      </contour>
    </TTGlyph>
    <TTGlyph name="cacute" xMin="34" yMin="-27" xMax="1008" yMax="1673">
      <component glyphName="acute" x="340" y="48" flags="0x1004"/>
      <component glyphName="c" x="0" y="0" flags="0x1204"/>
    </TTGlyph>
    <TTGlyph name="caron" xMin="71" yMin="1149" xMax="849" yMax="1625">
      <contour>
        <pt x="510" y="1149" on="1"/>
        <pt x="410" y="1149" on="1"/>
        <pt x="352" y="1207" on="0"/>
        <pt x="191" y="1395" on="0"/>
        <pt x="158" y="1437" on="1"/>
        <pt x="146" y="1452" on="0"/>
        <pt x="115" y="1490" on="0"/>
        <pt x="97" y="1511" on="0"/>
        <pt x="79" y="1536" on="0"/>
        <pt x="71" y="1555" on="0"/>
        <pt x="71" y="1564" on="1"/>
        <pt x="71" y="1596" on="0"/>
        <pt x="110" y="1625" on="0"/>
        <pt x="158" y="1625" on="1"/>
        <pt x="191" y="1625" on="0"/>
        <pt x="237" y="1606" on="0"/>
        <pt x="260" y="1582" on="0"/>
        <pt x="284" y="1552" on="1"/>
        <pt x="465" y="1321" on="1"/>
        <pt x="646" y="1552" on="1"/>
        <pt x="670" y="1582" on="0"/>
        <pt x="693" y="1606" on="0"/>
        <pt x="739" y="1625" on="0"/>
        <pt x="772" y="1625" on="1"/>
        <pt x="815" y="1625" on="0"/>
        <pt x="849" y="1596" on="0"/>
        <pt x="849" y="1564" on="1"/>
        <pt x="849" y="1555" on="0"/>
        <pt x="841" y="1536" on="0"/>
        <pt x="823" y="1511" on="0"/>
        <pt x="805" y="1490" on="0"/>
        <pt x="774" y="1452" on="0"/>
        <pt x="762" y="1437" on="1"/>
        <pt x="731" y="1398" on="0"/>
        <pt x="567" y="1208" on="0"/>
      </contour>
    </TTGlyph>
    <TTGlyph name="ccaron" xMin="34" yMin="-27" xMax="1008" yMax="1673">
      <component glyphName="caron" x="96" y="48" flags="0x1004"/>
      <component glyphName="c" x="0" y="0" flags="0x1204"/>
    </TTGlyph>
    <TTGlyph name="ccedilla" xMin="34" yMin="-516" xMax="1008" yMax="1095">
      <component glyphName="cedilla" x="432" y="-21" flags="0x1004"/>
      <component glyphName="c" x="0" y="0" flags="0x1204"/>
    </TTGlyph>
    <TTGlyph name="cdotaccent" xMin="34" yMin="-27" xMax="1008" yMax="1523">
      <component glyphName="dotaccent" x="304" y="-3" flags="0x1004"/>
      <component glyphName="c" x="0" y="0" flags="0x1204"/>
    </TTGlyph>
    <TTGlyph name="cedilla" xMin="43" yMin="-495" xMax="421" yMax="11">
      <contour>
        <pt x="43" y="-480" on="1"/>
        <pt x="64" y="-372" on="1"/>
        <pt x="102" y="-384" on="0"/>
        <pt x="147" y="-384" on="1"/>
        <pt x="218" y="-384" on="0"/>
        <pt x="295" y="-324" on="0"/>
        <pt x="295" y="-281" on="1"/>
        <pt x="295" y="-229" on="0"/>
        <pt x="190" y="-150" on="0"/>
        <pt x="98" y="-150" on="1"/>
        <pt x="98" y="11" on="1"/>
        <pt x="202" y="11" on="1"/>
        <pt x="202" y="-85" on="1"/>
        <pt x="308" y="-103" on="0"/>
        <pt x="421" y="-221" on="0"/>
        <pt x="421" y="-294" on="1"/>
        <pt x="421" y="-375" on="0"/>
        <pt x="283" y="-495" on="0"/>
        <pt x="163" y="-495" on="1"/>
        <pt x="100" y="-495" on="0"/>
      </contour>
    </TTGlyph>
    <TTGlyph name="cent" xMin="50" yMin="-304" xMax="1024" yMax="1406">
      <contour>
        <pt x="1011" y="798" on="1"/>
        <pt x="1011" y="748" on="0"/>
        <pt x="932" y="667" on="0"/>
        <pt x="851" y="667" on="1"/>
        <pt x="810" y="667" on="0"/>
        <pt x="790" y="687" on="0"/>
        <pt x="790" y="727" on="1"/>
        <pt x="790" y="860" on="1"/>
        <pt x="783" y="865" on="0"/>
        <pt x="758" y="878" on="0"/>
        <pt x="671" y="901" on="0"/>
        <pt x="623" y="901" on="1"/>
        <pt x="471" y="901" on="0"/>
        <pt x="284" y="683" on="0"/>
        <pt x="284" y="534" on="1"/>
        <pt x="284" y="378" on="0"/>
        <pt x="466" y="203" on="0"/>
        <pt x="638" y="203" on="1"/>
        <pt x="718" y="203" on="0"/>
        <pt x="907" y="271" on="0"/>
        <pt x="967" y="324" on="1"/>
        <pt x="1024" y="258" on="0"/>
        <pt x="1024" y="196" on="1"/>
        <pt x="1024" y="142" on="0"/>
        <pt x="890" y="54" on="0"/>
        <pt x="786" y="31" on="1"/>
        <pt x="786" y="-261" on="1"/>
        <pt x="785" y="-264" on="0"/>
        <pt x="782" y="-290" on="0"/>
        <pt x="778" y="-292" on="0"/>
        <pt x="761" y="-303" on="0"/>
        <pt x="728" y="-304" on="0"/>
        <pt x="699" y="-304" on="1"/>
        <pt x="678" y="-304" on="0"/>
        <pt x="657" y="-287" on="0"/>
        <pt x="657" y="-262" on="1"/>
        <pt x="657" y="-208" on="0"/>
        <pt x="655" y="14" on="1"/>
        <pt x="644" y="13" on="0"/>
        <pt x="621" y="13" on="1"/>
        <pt x="602" y="13" on="0"/>
        <pt x="566" y="15" on="1"/>
        <pt x="566" y="-261" on="1"/>
        <pt x="565" y="-264" on="0"/>
        <pt x="562" y="-290" on="0"/>
        <pt x="558" y="-292" on="0"/>
        <pt x="541" y="-303" on="0"/>
        <pt x="508" y="-304" on="0"/>
        <pt x="479" y="-304" on="1"/>
        <pt x="458" y="-304" on="0"/>
        <pt x="437" y="-287" on="0"/>
        <pt x="437" y="-262" on="1"/>
        <pt x="437" y="-205" on="0"/>
        <pt x="435" y="37" on="1"/>
        <pt x="261" y="84" on="0"/>
        <pt x="50" y="344" on="0"/>
        <pt x="50" y="545" on="1"/>
        <pt x="50" y="736" on="0"/>
        <pt x="272" y="995" on="0"/>
        <pt x="442" y="1042" on="1"/>
        <pt x="440" y="1362" on="0"/>
        <pt x="437" y="1373" on="1"/>
        <pt x="437" y="1406" on="0"/>
        <pt x="516" y="1406" on="1"/>
        <pt x="567" y="1406" on="0"/>
        <pt x="574" y="1385" on="1"/>
        <pt x="566" y="1281" on="0"/>
        <pt x="566" y="1240" on="1"/>
        <pt x="566" y="1063" on="1"/>
        <pt x="596" y="1065" on="0"/>
        <pt x="611" y="1065" on="1"/>
        <pt x="646" y="1065" on="0"/>
        <pt x="662" y="1064" on="1"/>
        <pt x="660" y="1357" on="0"/>
        <pt x="657" y="1373" on="1"/>
        <pt x="657" y="1406" on="0"/>
        <pt x="736" y="1406" on="1"/>
        <pt x="787" y="1406" on="0"/>
        <pt x="794" y="1385" on="1"/>
        <pt x="786" y="1281" on="0"/>
        <pt x="786" y="1240" on="1"/>
        <pt x="786" y="1046" on="1"/>
        <pt x="902" y="1018" on="0"/>
        <pt x="1011" y="886" on="0"/>
      </contour>
    </TTGlyph>
    <TTGlyph name="circumflex" xMin="71" yMin="1149" xMax="849" yMax="1625">
      <contour>
        <pt x="410" y="1625" on="1"/>
        <pt x="510" y="1625" on="1"/>
        <pt x="567" y="1566" on="0"/>
        <pt x="731" y="1376" on="0"/>
        <pt x="762" y="1337" on="1"/>
        <pt x="774" y="1322" on="0"/>
        <pt x="805" y="1284" on="0"/>
        <pt x="823" y="1263" on="0"/>
        <pt x="841" y="1238" on="0"/>
        <pt x="849" y="1219" on="0"/>
        <pt x="849" y="1210" on="1"/>
        <pt x="849" y="1178" on="0"/>
        <pt x="815" y="1149" on="0"/>
        <pt x="772" y="1149" on="1"/>
        <pt x="739" y="1149" on="0"/>
        <pt x="693" y="1168" on="0"/>
        <pt x="670" y="1192" on="0"/>
        <pt x="646" y="1222" on="1"/>
        <pt x="465" y="1453" on="1"/>
        <pt x="284" y="1222" on="1"/>
        <pt x="260" y="1192" on="0"/>
        <pt x="237" y="1168" on="0"/>
        <pt x="191" y="1149" on="0"/>
        <pt x="158" y="1149" on="1"/>
        <pt x="110" y="1149" on="0"/>
        <pt x="71" y="1178" on="0"/>
        <pt x="71" y="1210" on="1"/>
        <pt x="71" y="1219" on="0"/>
        <pt x="79" y="1238" on="0"/>
        <pt x="97" y="1263" on="0"/>
        <pt x="115" y="1284" on="0"/>
        <pt x="146" y="1322" on="0"/>
        <pt x="158" y="1337" on="1"/>
        <pt x="191" y="1379" on="0"/>
        <pt x="352" y="1567" on="0"/>
      </contour>
    </TTGlyph>
    <TTGlyph name="colon" xMin="54" yMin="38" xMax="410" yMax="1095">
      <contour>
        <pt x="54" y="201" on="1"/>
        <pt x="54" y="270" on="0"/>
        <pt x="146" y="364" on="0"/>
        <pt x="235" y="364" on="1"/>
        <pt x="322" y="364" on="0"/>
        <pt x="410" y="269" on="0"/>
        <pt x="410" y="201" on="1"/>
        <pt x="410" y="134" on="0"/>
        <pt x="322" y="38" on="0"/>
        <pt x="235" y="38" on="1"/>
        <pt x="146" y="38" on="0"/>
        <pt x="54" y="133" on="0"/>
      </contour>
      <contour>
        <pt x="54" y="932" on="1"/>
        <pt x="54" y="1001" on="0"/>
        <pt x="146" y="1095" on="0"/>
        <pt x="235" y="1095" on="1"/>
        <pt x="322" y="1095" on="0"/>
        <pt x="410" y="1000" on="0"/>
        <pt x="410" y="932" on="1"/>
        <pt x="410" y="865" on="0"/>
        <pt x="322" y="769" on="0"/>
        <pt x="235" y="769" on="1"/>
        <pt x="146" y="769" on="0"/>
        <pt x="54" y="864" on="0"/>
      </contour>
    </TTGlyph>
    <TTGlyph name="comma" xMin="69" yMin="-207" xMax="448" yMax="300">
      <contour>
        <pt x="157" y="-176" on="1"/>
        <pt x="157" y="-160" on="0"/>
        <pt x="246" y="-65" on="0"/>
        <pt x="246" y="-57" on="1"/>
        <pt x="246" y="-43" on="0"/>
        <pt x="210" y="-23" on="0"/>
        <pt x="158" y="-5" on="0"/>
        <pt x="105" y="23" on="0"/>
        <pt x="69" y="84" on="0"/>
        <pt x="69" y="128" on="1"/>
        <pt x="69" y="204" on="0"/>
        <pt x="174" y="300" on="0"/>
        <pt x="257" y="300" on="1"/>
        <pt x="337" y="300" on="0"/>
        <pt x="448" y="195" on="0"/>
        <pt x="448" y="119" on="1"/>
        <pt x="448" y="44" on="0"/>
        <pt x="380" y="-107" on="0"/>
        <pt x="265" y="-207" on="0"/>
        <pt x="205" y="-207" on="1"/>
        <pt x="157" y="-207" on="0"/>
      </contour>
    </TTGlyph>
    <TTGlyph name="copyright" xMin="49" yMin="-27" xMax="1641" yMax="1516">
      <contour>
        <pt x="852" y="-27" on="1"/>
        <pt x="693" y="-27" on="0"/>
        <pt x="405" y="78" on="0"/>
        <pt x="181" y="270" on="0"/>
        <pt x="49" y="568" on="0"/>
        <pt x="49" y="748" on="1"/>
        <pt x="49" y="983" on="0"/>
        <pt x="259" y="1334" on="0"/>
        <pt x="625" y="1516" on="0"/>
        <pt x="859" y="1516" on="1"/>
        <pt x="1032" y="1516" on="0"/>
        <pt x="1326" y="1400" on="0"/>
        <pt x="1528" y="1198" on="0"/>
        <pt x="1641" y="919" on="0"/>
        <pt x="1641" y="758" on="1"/>
        <pt x="1641" y="535" on="0"/>
        <pt x="1429" y="173" on="0"/>
        <pt x="1069" y="-27" on="0"/>
      </contour>
      <contour>
        <pt x="853" y="111" on="1"/>
        <pt x="1024" y="111" on="0"/>
        <pt x="1309" y="276" on="0"/>
        <pt x="1477" y="574" on="0"/>
        <pt x="1477" y="758" on="1"/>
        <pt x="1477" y="936" on="0"/>
        <pt x="1325" y="1219" on="0"/>
        <pt x="1042" y="1382" on="0"/>
        <pt x="859" y="1382" on="1"/>
        <pt x="674" y="1382" on="0"/>
        <pt x="385" y="1233" on="0"/>
        <pt x="218" y="943" on="0"/>
        <pt x="218" y="750" on="1"/>
        <pt x="218" y="602" on="0"/>
        <pt x="323" y="356" on="0"/>
        <pt x="500" y="197" on="0"/>
        <pt x="727" y="111" on="0"/>
      </contour>
      <contour>
        <pt x="875" y="322" on="1"/>
        <pt x="762" y="322" on="0"/>
        <pt x="583" y="397" on="0"/>
        <pt x="474" y="523" on="0"/>
        <pt x="417" y="677" on="0"/>
        <pt x="417" y="761" on="1"/>
        <pt x="417" y="825" on="0"/>
        <pt x="450" y="947" on="0"/>
        <pt x="519" y="1055" on="0"/>
        <pt x="617" y="1135" on="0"/>
        <pt x="757" y="1182" on="0"/>
        <pt x="839" y="1182" on="1"/>
        <pt x="985" y="1182" on="0"/>
        <pt x="1042" y="1071" on="1"/>
        <pt x="1039" y="1129" on="0"/>
        <pt x="1038" y="1149" on="1"/>
        <pt x="1038" y="1166" on="0"/>
        <pt x="1058" y="1175" on="0"/>
        <pt x="1092" y="1175" on="1"/>
        <pt x="1140" y="1175" on="0"/>
        <pt x="1172" y="1152" on="0"/>
        <pt x="1178" y="1105" on="1"/>
        <pt x="1198" y="976" on="0"/>
        <pt x="1198" y="957" on="1"/>
        <pt x="1198" y="920" on="0"/>
        <pt x="1177" y="902" on="0"/>
        <pt x="1138" y="899" on="1"/>
        <pt x="1097" y="897" on="0"/>
        <pt x="1093" y="897" on="1"/>
        <pt x="1072" y="897" on="0"/>
        <pt x="1053" y="927" on="1"/>
        <pt x="1011" y="986" on="0"/>
        <pt x="899" y="1049" on="0"/>
        <pt x="842" y="1049" on="1"/>
        <pt x="743" y="1049" on="0"/>
        <pt x="608" y="906" on="0"/>
        <pt x="608" y="776" on="1"/>
        <pt x="608" y="632" on="0"/>
        <pt x="751" y="467" on="0"/>
        <pt x="883" y="467" on="1"/>
        <pt x="1049" y="467" on="0"/>
        <pt x="1202" y="607" on="1"/>
        <pt x="1223" y="568" on="0"/>
        <pt x="1223" y="528" on="1"/>
        <pt x="1223" y="505" on="0"/>
        <pt x="1176" y="438" on="0"/>
        <pt x="1094" y="370" on="0"/>
        <pt x="955" y="322" on="0"/>
      </contour>
    </TTGlyph>
    <TTGlyph name="currency" xMin="44" yMin="561" xMax="982" yMax="1515">
      <contour>
        <pt x="512" y="685" on="1"/>
        <pt x="397" y="685" on="0"/>
        <pt x="316" y="735" on="1"/>
        <pt x="243" y="660" on="1"/>
        <pt x="165" y="578" on="0"/>
        <pt x="163" y="572" on="1"/>
        <pt x="152" y="561" on="0"/>
        <pt x="137" y="561" on="1"/>
        <pt x="114" y="561" on="0"/>
        <pt x="44" y="625" on="0"/>
        <pt x="44" y="651" on="1"/>
        <pt x="44" y="654" on="0"/>
        <pt x="52" y="666" on="0"/>
        <pt x="69" y="684" on="0"/>
        <pt x="87" y="702" on="0"/>
        <pt x="119" y="734" on="0"/>
        <pt x="132" y="747" on="1"/>
        <pt x="213" y="829" on="1"/>
        <pt x="151" y="918" on="0"/>
        <pt x="151" y="1034" on="1"/>
        <pt x="151" y="1154" on="0"/>
        <pt x="216" y="1244" on="1"/>
        <pt x="193" y="1268" on="1"/>
        <pt x="67" y="1392" on="0"/>
        <pt x="57" y="1396" on="1"/>
        <pt x="46" y="1406" on="0"/>
        <pt x="46" y="1422" on="1"/>
        <pt x="46" y="1445" on="0"/>
        <pt x="110" y="1515" on="0"/>
        <pt x="135" y="1515" on="1"/>
        <pt x="139" y="1515" on="0"/>
        <pt x="151" y="1508" on="0"/>
        <pt x="170" y="1491" on="0"/>
        <pt x="186" y="1474" on="0"/>
        <pt x="219" y="1440" on="0"/>
        <pt x="232" y="1427" on="1"/>
        <pt x="322" y="1337" on="1"/>
        <pt x="403" y="1384" on="0"/>
        <pt x="512" y="1384" on="1"/>
        <pt x="620" y="1384" on="0"/>
        <pt x="704" y="1338" on="1"/>
        <pt x="794" y="1427" on="1"/>
        <pt x="808" y="1440" on="0"/>
        <pt x="838" y="1472" on="0"/>
        <pt x="856" y="1490" on="0"/>
        <pt x="874" y="1508" on="0"/>
        <pt x="886" y="1515" on="0"/>
        <pt x="890" y="1515" on="1"/>
        <pt x="915" y="1515" on="0"/>
        <pt x="979" y="1446" on="0"/>
        <pt x="979" y="1422" on="1"/>
        <pt x="979" y="1405" on="0"/>
        <pt x="968" y="1396" on="1"/>
        <pt x="964" y="1394" on="0"/>
        <pt x="896" y="1330" on="0"/>
        <pt x="864" y="1299" on="1"/>
        <pt x="833" y="1268" on="1"/>
        <pt x="811" y="1246" on="1"/>
        <pt x="881" y="1154" on="0"/>
        <pt x="881" y="1034" on="1"/>
        <pt x="881" y="917" on="0"/>
        <pt x="814" y="826" on="1"/>
        <pt x="894" y="747" on="1"/>
        <pt x="903" y="738" on="0"/>
        <pt x="927" y="714" on="0"/>
        <pt x="942" y="700" on="0"/>
        <pt x="959" y="682" on="0"/>
        <pt x="969" y="671" on="0"/>
        <pt x="978" y="660" on="0"/>
        <pt x="982" y="653" on="0"/>
        <pt x="982" y="651" on="1"/>
        <pt x="982" y="625" on="0"/>
        <pt x="912" y="561" on="0"/>
        <pt x="889" y="561" on="1"/>
        <pt x="874" y="561" on="0"/>
        <pt x="863" y="572" on="1"/>
        <pt x="862" y="575" on="0"/>
        <pt x="822" y="619" on="0"/>
        <pt x="802" y="640" on="1"/>
        <pt x="783" y="660" on="1"/>
        <pt x="710" y="734" on="1"/>
        <pt x="626" y="685" on="0"/>
      </contour>
      <contour>
        <pt x="730" y="1034" on="1"/>
        <pt x="730" y="1143" on="0"/>
        <pt x="600" y="1266" on="0"/>
        <pt x="424" y="1266" on="0"/>
        <pt x="298" y="1143" on="0"/>
        <pt x="298" y="1034" on="1"/>
        <pt x="298" y="924" on="0"/>
        <pt x="424" y="804" on="0"/>
        <pt x="512" y="804" on="1"/>
        <pt x="601" y="804" on="0"/>
        <pt x="730" y="926" on="0"/>
      </contour>
    </TTGlyph>
    <TTGlyph name="d" xMin="34" yMin="-27" xMax="1284" yMax="1501">
      <contour>
        <pt x="892" y="464" on="1"/>
        <pt x="892" y="725" on="1"/>
        <pt x="839" y="820" on="0"/>
        <pt x="665" y="926" on="0"/>
        <pt x="572" y="926" on="1"/>
        <pt x="444" y="926" on="0"/>
        <pt x="269" y="725" on="0"/>
        <pt x="269" y="533" on="1"/>
        <pt x="269" y="349" on="0"/>
        <pt x="457" y="143" on="0"/>
        <pt x="586" y="143" on="1"/>
        <pt x="642" y="143" on="0"/>
        <pt x="750" y="184" on="0"/>
        <pt x="838" y="262" on="0"/>
        <pt x="892" y="387" on="0"/>
      </contour>
      <contour>
        <pt x="1119" y="1348" on="1"/>
        <pt x="1119" y="251" on="1"/>
        <pt x="1119" y="237" on="0"/>
        <pt x="1123" y="218" on="0"/>
        <pt x="1136" y="197" on="0"/>
        <pt x="1166" y="185" on="0"/>
        <pt x="1190" y="184" on="1"/>
        <pt x="1284" y="180" on="0"/>
        <pt x="1284" y="142" on="1"/>
        <pt x="1284" y="22" on="0"/>
        <pt x="1250" y="-8" on="1"/>
        <pt x="1195" y="0" on="0"/>
        <pt x="1131" y="0" on="1"/>
        <pt x="1041" y="0" on="0"/>
        <pt x="955" y="-8" on="1"/>
        <pt x="892" y="21" on="0"/>
        <pt x="892" y="131" on="1"/>
        <pt x="892" y="140" on="1"/>
        <pt x="838" y="60" on="0"/>
        <pt x="640" y="-27" on="0"/>
        <pt x="535" y="-27" on="1"/>
        <pt x="439" y="-27" on="0"/>
        <pt x="263" y="45" on="0"/>
        <pt x="120" y="180" on="0"/>
        <pt x="34" y="398" on="0"/>
        <pt x="34" y="668" on="0"/>
        <pt x="124" y="886" on="0"/>
        <pt x="275" y="1021" on="0"/>
        <pt x="461" y="1093" on="0"/>
        <pt x="562" y="1094" on="1"/>
        <pt x="568" y="1094" on="1"/>
        <pt x="765" y="1094" on="0"/>
        <pt x="892" y="947" on="1"/>
        <pt x="892" y="1209" on="1"/>
        <pt x="892" y="1262" on="0"/>
        <pt x="831" y="1306" on="0"/>
        <pt x="744" y="1310" on="1"/>
        <pt x="731" y="1313" on="0"/>
        <pt x="724" y="1333" on="0"/>
        <pt x="724" y="1366" on="1"/>
        <pt x="724" y="1417" on="0"/>
        <pt x="746" y="1495" on="0"/>
        <pt x="757" y="1501" on="1"/>
        <pt x="840" y="1490" on="0"/>
        <pt x="916" y="1490" on="1"/>
        <pt x="961" y="1490" on="0"/>
        <pt x="1061" y="1501" on="0"/>
        <pt x="1064" y="1501" on="1"/>
        <pt x="1099" y="1501" on="0"/>
        <pt x="1120" y="1466" on="0"/>
        <pt x="1120" y="1403" on="1"/>
        <pt x="1120" y="1396" on="0"/>
        <pt x="1119" y="1359" on="0"/>
      </contour>
    </TTGlyph>
    <TTGlyph name="dcaron" xMin="34" yMin="-27" xMax="1706" yMax="1501">
      <component glyphName="comma" x="1258" y="1201" flags="0x1004"/>
      <component glyphName="d" x="0" y="0" flags="0x1004"/>
    </TTGlyph>
    <TTGlyph name="dcroat" xMin="73" yMin="-27" xMax="1323" yMax="1501">
      <contour>
        <pt x="931" y="464" on="1"/>
        <pt x="931" y="725" on="1"/>
        <pt x="878" y="820" on="0"/>
        <pt x="704" y="926" on="0"/>
        <pt x="611" y="926" on="1"/>
        <pt x="483" y="926" on="0"/>
        <pt x="308" y="725" on="0"/>
        <pt x="308" y="533" on="1"/>
        <pt x="308" y="349" on="0"/>
        <pt x="496" y="143" on="0"/>
        <pt x="625" y="143" on="1"/>
        <pt x="681" y="143" on="0"/>
        <pt x="789" y="184" on="0"/>
        <pt x="877" y="262" on="0"/>
        <pt x="931" y="387" on="0"/>
      </contour>
      <contour>
        <pt x="931" y="1143" on="1"/>
        <pt x="664" y="1140" on="0"/>
        <pt x="657" y="1138" on="1"/>
        <pt x="618" y="1138" on="0"/>
        <pt x="618" y="1186" on="1"/>
        <pt x="618" y="1228" on="0"/>
        <pt x="644" y="1238" on="1"/>
        <pt x="671" y="1235" on="0"/>
        <pt x="746" y="1235" on="1"/>
        <pt x="750" y="1235" on="0"/>
        <pt x="878" y="1236" on="0"/>
        <pt x="924" y="1236" on="1"/>
        <pt x="922" y="1280" on="0"/>
        <pt x="860" y="1306" on="0"/>
        <pt x="783" y="1310" on="1"/>
        <pt x="770" y="1313" on="0"/>
        <pt x="763" y="1333" on="0"/>
        <pt x="763" y="1366" on="1"/>
        <pt x="763" y="1417" on="0"/>
        <pt x="785" y="1495" on="0"/>
        <pt x="796" y="1501" on="1"/>
        <pt x="878" y="1490" on="0"/>
        <pt x="955" y="1490" on="1"/>
        <pt x="1000" y="1490" on="0"/>
        <pt x="1100" y="1501" on="0"/>
        <pt x="1103" y="1501" on="1"/>
        <pt x="1138" y="1501" on="0"/>
        <pt x="1159" y="1466" on="0"/>
        <pt x="1159" y="1403" on="1"/>
        <pt x="1159" y="1396" on="0"/>
        <pt x="1158" y="1359" on="0"/>
        <pt x="1158" y="1348" on="1"/>
        <pt x="1158" y="1237" on="1"/>
        <pt x="1217" y="1237" on="0"/>
        <pt x="1233" y="1239" on="1"/>
        <pt x="1258" y="1231" on="0"/>
        <pt x="1258" y="1187" on="1"/>
        <pt x="1258" y="1139" on="0"/>
        <pt x="1219" y="1139" on="1"/>
        <pt x="1217" y="1140" on="0"/>
        <pt x="1158" y="1142" on="1"/>
        <pt x="1158" y="251" on="1"/>
        <pt x="1158" y="237" on="0"/>
        <pt x="1162" y="218" on="0"/>
        <pt x="1175" y="197" on="0"/>
        <pt x="1205" y="185" on="0"/>
        <pt x="1229" y="184" on="1"/>
        <pt x="1323" y="180" on="0"/>
        <pt x="1323" y="142" on="1"/>
        <pt x="1323" y="22" on="0"/>
        <pt x="1289" y="-8" on="1"/>
        <pt x="1234" y="0" on="0"/>
        <pt x="1170" y="0" on="1"/>
        <pt x="1080" y="0" on="0"/>
        <pt x="994" y="-8" on="1"/>
        <pt x="931" y="21" on="0"/>
        <pt x="931" y="131" on="1"/>
        <pt x="931" y="140" on="1"/>
        <pt x="877" y="60" on="0"/>
        <pt x="679" y="-27" on="0"/>
        <pt x="574" y="-27" on="1"/>
        <pt x="478" y="-27" on="0"/>
        <pt x="302" y="45" on="0"/>
        <pt x="159" y="180" on="0"/>
        <pt x="73" y="398" on="0"/>
        <pt x="73" y="668" on="0"/>
        <pt x="163" y="886" on="0"/>
        <pt x="314" y="1021" on="0"/>
        <pt x="500" y="1093" on="0"/>
        <pt x="601" y="1094" on="1"/>
        <pt x="607" y="1094" on="1"/>
        <pt x="804" y="1094" on="0"/>
        <pt x="931" y="947" on="1"/>
      </contour>
    </TTGlyph>
    <TTGlyph name="degree" xMin="44" yMin="916" xMax="689" yMax="1513">
      <contour>
        <pt x="365" y="916" on="1"/>
        <pt x="263" y="916" on="0"/>
        <pt x="113" y="1004" on="0"/>
        <pt x="44" y="1137" on="0"/>
        <pt x="44" y="1214" on="1"/>
        <pt x="44" y="1271" on="0"/>
        <pt x="85" y="1376" on="0"/>
        <pt x="162" y="1462" on="0"/>
        <pt x="288" y="1513" on="0"/>
        <pt x="365" y="1513" on="1"/>
        <pt x="517" y="1513" on="0"/>
        <pt x="689" y="1335" on="0"/>
        <pt x="689" y="1093" on="0"/>
        <pt x="518" y="916" on="0"/>
      </contour>
      <contour>
        <pt x="558" y="1214" on="1"/>
        <pt x="558" y="1308" on="0"/>
        <pt x="443" y="1412" on="0"/>
        <pt x="287" y="1412" on="0"/>
        <pt x="175" y="1307" on="0"/>
        <pt x="175" y="1214" on="1"/>
        <pt x="175" y="1120" on="0"/>
        <pt x="287" y="1017" on="0"/>
        <pt x="443" y="1017" on="0"/>
        <pt x="558" y="1121" on="0"/>
      </contour>
    </TTGlyph>
    <TTGlyph name="dieresis" xMin="43" yMin="1236" xMax="932" yMax="1508">
      <contour>
        <pt x="43" y="1315" on="0"/>
        <pt x="43" y="1429" on="0"/>
        <pt x="120" y="1508" on="0"/>
        <pt x="195" y="1508" on="1"/>
        <pt x="268" y="1508" on="0"/>
        <pt x="342" y="1428" on="0"/>
        <pt x="342" y="1316" on="0"/>
        <pt x="268" y="1236" on="0"/>
        <pt x="195" y="1236" on="1"/>
        <pt x="120" y="1236" on="0"/>
      </contour>
      <contour>
        <pt x="633" y="1315" on="0"/>
        <pt x="633" y="1429" on="0"/>
        <pt x="710" y="1508" on="0"/>
        <pt x="785" y="1508" on="1"/>
        <pt x="858" y="1508" on="0"/>
        <pt x="932" y="1429" on="0"/>
        <pt x="932" y="1372" on="1"/>
        <pt x="932" y="1316" on="0"/>
        <pt x="858" y="1236" on="0"/>
        <pt x="785" y="1236" on="1"/>
        <pt x="710" y="1236" on="0"/>
      </contour>
    </TTGlyph>
    <TTGlyph name="divide" xMin="42" yMin="65" xMax="1025" yMax="1151">
      <contour>
        <pt x="221" y="697" on="1"/>
        <pt x="273" y="698" on="0"/>
        <pt x="846" y="698" on="1"/>
        <pt x="950" y="698" on="0"/>
        <pt x="989" y="701" on="1"/>
        <pt x="1025" y="687" on="0"/>
        <pt x="1025" y="616" on="1"/>
        <pt x="1025" y="521" on="0"/>
        <pt x="970" y="521" on="1"/>
        <pt x="965" y="523" on="0"/>
        <pt x="851" y="526" on="0"/>
        <pt x="797" y="526" on="1"/>
        <pt x="743" y="527" on="1"/>
        <pt x="242" y="527" on="1"/>
        <pt x="104" y="523" on="0"/>
        <pt x="97" y="519" on="1"/>
        <pt x="42" y="519" on="0"/>
        <pt x="42" y="614" on="1"/>
        <pt x="42" y="685" on="0"/>
        <pt x="78" y="699" on="1"/>
        <pt x="104" y="697" on="0"/>
      </contour>
      <contour>
        <pt x="342" y="238" on="1"/>
        <pt x="342" y="310" on="0"/>
        <pt x="440" y="411" on="0"/>
        <pt x="534" y="411" on="1"/>
        <pt x="627" y="411" on="0"/>
        <pt x="720" y="309" on="0"/>
        <pt x="720" y="167" on="0"/>
        <pt x="627" y="65" on="0"/>
        <pt x="534" y="65" on="1"/>
        <pt x="440" y="65" on="0"/>
        <pt x="342" y="165" on="0"/>
      </contour>
      <contour>
        <pt x="342" y="978" on="1"/>
        <pt x="342" y="1051" on="0"/>
        <pt x="440" y="1151" on="0"/>
        <pt x="534" y="1151" on="1"/>
        <pt x="627" y="1151" on="0"/>
        <pt x="720" y="1049" on="0"/>
        <pt x="720" y="907" on="0"/>
        <pt x="627" y="805" on="0"/>
        <pt x="534" y="805" on="1"/>
        <pt x="440" y="805" on="0"/>
        <pt x="342" y="906" on="0"/>
      </contour>
    </TTGlyph>
    <TTGlyph name="dollar" xMin="44" yMin="-27" xMax="958" yMax="1516">
      <contour>
        <pt x="284" y="238" on="1"/>
        <pt x="400" y="240" on="1"/>
        <pt x="398" y="210" on="0"/>
        <pt x="397" y="108" on="0"/>
        <pt x="394" y="57" on="0"/>
        <pt x="383" y="-2" on="0"/>
        <pt x="357" y="-27" on="0"/>
        <pt x="315" y="-27" on="0"/>
        <pt x="284" y="12" on="0"/>
        <pt x="284" y="48" on="1"/>
      </contour>
      <contour>
        <pt x="497" y="239" on="1"/>
        <pt x="613" y="239" on="1"/>
        <pt x="613" y="48" on="1"/>
        <pt x="613" y="13" on="0"/>
        <pt x="579" y="-27" on="0"/>
        <pt x="556" y="-27" on="1"/>
        <pt x="537" y="-27" on="0"/>
        <pt x="513" y="-3" on="0"/>
        <pt x="504" y="55" on="0"/>
        <pt x="501" y="105" on="0"/>
        <pt x="499" y="208" on="0"/>
      </contour>
      <contour>
        <pt x="382" y="1249" on="1"/>
        <pt x="266" y="1251" on="1"/>
        <pt x="266" y="1441" on="1"/>
        <pt x="266" y="1477" on="0"/>
        <pt x="297" y="1516" on="0"/>
        <pt x="339" y="1516" on="0"/>
        <pt x="365" y="1491" on="0"/>
        <pt x="376" y="1432" on="0"/>
        <pt x="379" y="1380" on="0"/>
        <pt x="380" y="1279" on="0"/>
      </contour>
      <contour>
        <pt x="595" y="1250" on="1"/>
        <pt x="479" y="1250" on="1"/>
        <pt x="480" y="1276" on="0"/>
        <pt x="482" y="1344" on="0"/>
        <pt x="483" y="1390" on="0"/>
        <pt x="486" y="1441" on="0"/>
        <pt x="493" y="1474" on="0"/>
        <pt x="504" y="1503" on="0"/>
        <pt x="524" y="1516" on="0"/>
        <pt x="538" y="1516" on="1"/>
        <pt x="561" y="1516" on="0"/>
        <pt x="595" y="1476" on="0"/>
        <pt x="595" y="1441" on="1"/>
      </contour>
      <contour>
        <pt x="958" y="484" on="1"/>
        <pt x="958" y="383" on="0"/>
        <pt x="835" y="250" on="0"/>
        <pt x="633" y="192" on="0"/>
        <pt x="495" y="192" on="1"/>
        <pt x="283" y="192" on="0"/>
        <pt x="44" y="314" on="0"/>
        <pt x="44" y="440" on="1"/>
        <pt x="44" y="583" on="0"/>
        <pt x="219" y="583" on="1"/>
        <pt x="247" y="583" on="0"/>
        <pt x="265" y="561" on="0"/>
        <pt x="265" y="530" on="1"/>
        <pt x="265" y="394" on="1"/>
        <pt x="302" y="374" on="0"/>
        <pt x="447" y="352" on="0"/>
        <pt x="521" y="352" on="1"/>
        <pt x="609" y="352" on="0"/>
        <pt x="724" y="425" on="0"/>
        <pt x="724" y="489" on="1"/>
        <pt x="724" y="534" on="0"/>
        <pt x="666" y="605" on="0"/>
        <pt x="572" y="649" on="0"/>
        <pt x="451" y="694" on="0"/>
        <pt x="326" y="732" on="0"/>
        <pt x="205" y="790" on="0"/>
        <pt x="111" y="858" on="0"/>
        <pt x="53" y="968" on="0"/>
        <pt x="53" y="1037" on="1"/>
        <pt x="53" y="1126" on="0"/>
        <pt x="185" y="1256" on="0"/>
        <pt x="376" y="1314" on="0"/>
        <pt x="485" y="1314" on="1"/>
        <pt x="933" y="1314" on="0"/>
        <pt x="933" y="1054" on="1"/>
        <pt x="933" y="1038" on="0"/>
        <pt x="922" y="1002" on="0"/>
        <pt x="891" y="954" on="0"/>
        <pt x="819" y="923" on="0"/>
        <pt x="767" y="923" on="1"/>
        <pt x="747" y="923" on="0"/>
        <pt x="724" y="929" on="0"/>
        <pt x="714" y="945" on="0"/>
        <pt x="712" y="960" on="0"/>
        <pt x="712" y="976" on="1"/>
        <pt x="712" y="1116" on="1"/>
        <pt x="698" y="1130" on="0"/>
        <pt x="553" y="1164" on="0"/>
        <pt x="501" y="1164" on="1"/>
        <pt x="399" y="1164" on="0"/>
        <pt x="300" y="1088" on="0"/>
        <pt x="300" y="1030" on="1"/>
        <pt x="300" y="988" on="0"/>
        <pt x="373" y="924" on="0"/>
        <pt x="489" y="879" on="0"/>
        <pt x="629" y="835" on="0"/>
        <pt x="769" y="774" on="0"/>
        <pt x="885" y="696" on="0"/>
        <pt x="958" y="567" on="0"/>
      </contour>
    </TTGlyph>
    <TTGlyph name="dotaccent" xMin="113" yMin="1200" xMax="469" yMax="1526">
      <contour>
        <pt x="113" y="1363" on="1"/>
        <pt x="113" y="1432" on="0"/>
        <pt x="205" y="1526" on="0"/>
        <pt x="294" y="1526" on="1"/>
        <pt x="381" y="1526" on="0"/>
        <pt x="469" y="1431" on="0"/>
        <pt x="469" y="1363" on="1"/>
        <pt x="469" y="1296" on="0"/>
        <pt x="381" y="1200" on="0"/>
        <pt x="294" y="1200" on="1"/>
        <pt x="205" y="1200" on="0"/>
        <pt x="113" y="1295" on="0"/>
      </contour>
    </TTGlyph>
    <TTGlyph name="dotlessi" xMin="95" yMin="-8" xMax="646" yMax="1078">
      <contour>
        <pt x="490" y="980" on="1"/>
        <pt x="490" y="251" on="1"/>
        <pt x="490" y="236" on="0"/>
        <pt x="493" y="219" on="0"/>
        <pt x="504" y="197" on="0"/>
        <pt x="532" y="186" on="0"/>
        <pt x="554" y="186" on="1"/>
        <pt x="592" y="186" on="0"/>
        <pt x="646" y="162" on="0"/>
        <pt x="646" y="138" on="1"/>
        <pt x="646" y="21" on="0"/>
        <pt x="613" y="-8" on="1"/>
        <pt x="523" y="0" on="0"/>
        <pt x="393" y="0" on="1"/>
        <pt x="258" y="0" on="0"/>
        <pt x="141" y="-8" on="1"/>
        <pt x="108" y="22" on="0"/>
        <pt x="108" y="138" on="1"/>
        <pt x="108" y="162" on="0"/>
        <pt x="162" y="186" on="0"/>
        <pt x="200" y="186" on="1"/>
        <pt x="239" y="186" on="0"/>
        <pt x="263" y="219" on="0"/>
        <pt x="263" y="249" on="1"/>
        <pt x="263" y="786" on="1"/>
        <pt x="263" y="839" on="0"/>
        <pt x="202" y="883" on="0"/>
        <pt x="115" y="887" on="1"/>
        <pt x="102" y="890" on="0"/>
        <pt x="95" y="910" on="0"/>
        <pt x="95" y="943" on="1"/>
        <pt x="95" y="994" on="0"/>
        <pt x="117" y="1072" on="0"/>
        <pt x="128" y="1078" on="1"/>
        <pt x="205" y="1067" on="0"/>
        <pt x="277" y="1067" on="1"/>
        <pt x="325" y="1067" on="0"/>
        <pt x="431" y="1078" on="0"/>
        <pt x="434" y="1078" on="1"/>
        <pt x="469" y="1078" on="0"/>
        <pt x="490" y="1043" on="0"/>
      </contour>
    </TTGlyph>
    <TTGlyph name="e" xMin="34" yMin="-27" xMax="1071" yMax="1096">
      <contour>
        <pt x="1071" y="591" on="1"/>
        <pt x="1071" y="545" on="0"/>
        <pt x="1024" y="496" on="0"/>
        <pt x="959" y="496" on="1"/>
        <pt x="269" y="496" on="1"/>
        <pt x="273" y="405" on="0"/>
        <pt x="329" y="273" on="0"/>
        <pt x="421" y="198" on="0"/>
        <pt x="531" y="163" on="0"/>
        <pt x="596" y="163" on="1"/>
        <pt x="687" y="163" on="0"/>
        <pt x="877" y="227" on="0"/>
        <pt x="954" y="285" on="1"/>
        <pt x="1011" y="218" on="0"/>
        <pt x="1011" y="153" on="1"/>
        <pt x="1011" y="110" on="0"/>
        <pt x="897" y="27" on="0"/>
        <pt x="703" y="-27" on="0"/>
        <pt x="598" y="-27" on="1"/>
        <pt x="512" y="-27" on="0"/>
        <pt x="357" y="7" on="0"/>
        <pt x="208" y="92" on="0"/>
        <pt x="100" y="222" on="0"/>
        <pt x="34" y="426" on="0"/>
        <pt x="34" y="555" on="1"/>
        <pt x="34" y="681" on="0"/>
        <pt x="130" y="891" on="0"/>
        <pt x="288" y="1024" on="0"/>
        <pt x="483" y="1096" on="0"/>
        <pt x="586" y="1096" on="1"/>
        <pt x="662" y="1096" on="0"/>
        <pt x="802" y="1058" on="0"/>
        <pt x="926" y="977" on="0"/>
        <pt x="1018" y="860" on="0"/>
        <pt x="1071" y="692" on="0"/>
      </contour>
      <contour>
        <pt x="869" y="651" on="1"/>
        <pt x="860" y="790" on="0"/>
        <pt x="703" y="935" on="0"/>
        <pt x="594" y="935" on="1"/>
        <pt x="478" y="935" on="0"/>
        <pt x="289" y="780" on="0"/>
        <pt x="275" y="651" on="1"/>
      </contour>
    </TTGlyph>
    <TTGlyph name="eacute" xMin="34" yMin="-27" xMax="1100" yMax="1674">
      <component glyphName="acute" x="487" y="49" flags="0x1004"/>
      <component glyphName="e" x="0" y="0" flags="0x1204"/>
    </TTGlyph>
    <TTGlyph name="ecaron" xMin="34" yMin="-27" xMax="1071" yMax="1674">
      <component glyphName="caron" x="126" y="49" flags="0x1004"/>
      <component glyphName="e" x="0" y="0" flags="0x1204"/>
    </TTGlyph>
</ttFont>
